<?xml version="1.0" encoding="utf-8"?>
<!-- Generator: Adobe Illustrator 18.0.0, SVG Export Plug-In . SVG Version: 6.00 Build 0)  -->
<!DOCTYPE svg PUBLIC "-//W3C//DTD SVG 1.1//EN" "http://www.w3.org/Graphics/SVG/1.1/DTD/svg11.dtd">
<svg version="1.1" id="Layer_1" xmlns="http://www.w3.org/2000/svg" xmlns:xlink="http://www.w3.org/1999/xlink" x="0px" y="0px"
	 viewBox="0 0 51.6 51.6" enable-background="new 0 0 51.6 51.6" xml:space="preserve">
<g transform="translate(0,-1020.3622)">
	<path fill="#FFFFFF" d="M25.1,1020.4c-5.3,0.1-10.6,1.9-15.1,5.3c-1.3,1-2.4,2.1-3.5,3.2c-1,1.2-2,2.4-2.8,3.7s-1.5,2.7-2,4.1
		c-0.6,1.4-1,2.9-1.3,4.4l2,0.4c0.3-1.4,0.7-2.7,1.2-4c0.5-1.3,1.1-2.6,1.9-3.8s1.6-2.3,2.6-3.4c1-1.1,2-2.1,3.2-3
		c8.8-6.7,20.9-6.5,29.3,0.4h-1v2h3.7c0.6,0,1-0.5,1-1v-3.7h-2v1.4c-4.3-3.6-9.5-5.6-14.8-5.9C26.7,1020.4,25.9,1020.4,25.1,1020.4z
		 M25.7,1025.7c-7.3,0-13.3,4-17,9.7h0v0.1c-2,3.2-3.4,6.7-3.4,10.7c0,4,1.4,7.5,3.4,10.7v0.1h0c3.6,5.7,9.7,9.7,17,9.7
		c7.3,0,13.3-4,17-9.7h0v-0.1c2-3.2,3.4-6.7,3.4-10.7s-1.5-7.5-3.4-10.7v-0.1h0C39.1,1029.7,33,1025.7,25.7,1025.7z M24.7,1027.9
		v7.5h-7.1c0.6-2.1,1.3-4.3,2.1-6.5C21.3,1028.3,23,1028,24.7,1027.9z M26.7,1027.9c1.7,0.1,3.3,0.4,4.7,1c0.9,2.2,1.6,4.4,2.2,6.5
		h-6.9V1027.9z M34,1029.9c2.5,1.3,4.6,3.2,6.3,5.4h-4.5C35.3,1033.6,34.7,1031.8,34,1029.9z M17.2,1030c-0.6,1.8-1.2,3.6-1.7,5.3
		h-4.4C12.8,1033.2,14.9,1031.3,17.2,1030z M48.1,1033.3l-1.8,1c0.7,1.3,1.4,2.6,1.8,4c0.5,1.4,0.8,2.7,1.1,4.1
		c0.2,1.4,0.3,2.8,0.3,4.2l2,0c0-1.5-0.1-3-0.3-4.6c-0.2-1.5-0.6-3-1.1-4.5C49.6,1036.2,48.9,1034.7,48.1,1033.3z M9.8,1037.4h5.3
		c-0.6,2.6-0.9,5.1-1,7.7H7.5C7.7,1042.3,8.5,1039.7,9.8,1037.4z M17.1,1037.4h7.6v7.7H16C16.2,1042.5,16.5,1040,17.1,1037.4z
		 M26.7,1037.4h7.5c0.6,2.6,0.9,5.1,1.1,7.7h-8.5V1037.4z M36.3,1037.4h5.4c1.3,2.3,2.1,4.9,2.3,7.7h-6.7
		C37.2,1042.5,36.8,1040,36.3,1037.4z M0,1045.6c0,1.5,0.1,3,0.3,4.6c0.2,1.5,0.6,3,1.1,4.5c0.5,1.5,1.2,2.9,2,4.3l1.8-1
		c-0.7-1.3-1.4-2.6-1.8-4c-0.5-1.4-0.8-2.7-1.1-4.1c-0.2-1.4-0.3-2.8-0.3-4.2L0,1045.6z M7.5,1047.1H14c0,2.5,0.3,5.1,0.8,7.7h-5
		C8.5,1052.5,7.7,1049.9,7.5,1047.1z M16,1047.1h8.7v7.7h-7.9C16.3,1052.2,16,1049.6,16,1047.1z M26.7,1047.1h8.6
		c0,2.5-0.3,5.1-0.8,7.7h-7.8V1047.1z M37.3,1047.1h6.6c-0.2,2.8-1,5.4-2.3,7.7h-5.1C37.1,1052.2,37.3,1049.6,37.3,1047.1z
		 M49.1,1050.8c-0.3,1.4-0.7,2.7-1.2,4c-0.5,1.3-1.1,2.6-1.9,3.8c-0.7,1.2-1.6,2.3-2.6,3.4c-1,1.1-2,2.1-3.2,3
		c-8.8,6.7-20.8,6.4-29.3-0.3h1v-2H8.3c-0.6,0-1,0.5-1,1v3.7h2v-1.4c4.3,3.6,9.5,5.6,14.8,6c6,0.4,12.2-1.3,17.3-5.3
		c1.3-1,2.4-2.1,3.5-3.2c1-1.2,2-2.4,2.8-3.7c0.8-1.3,1.5-2.7,2-4.1c0.6-1.4,1-2.9,1.3-4.4L49.1,1050.8z M11.2,1056.8h4
		c0.4,1.7,0.9,3.4,1.5,5C14.6,1060.6,12.7,1058.9,11.2,1056.8z M17.3,1056.8h7.5v7.5c-1.9-0.1-3.7-0.5-5.3-1.2
		C18.5,1061,17.8,1058.9,17.3,1056.8z M26.7,1056.8h7.3c-0.5,2.1-1.3,4.2-2.2,6.4c-1.6,0.6-3.3,1-5.1,1.1V1056.8z M36.1,1056.8h4.2
		c-1.6,2.1-3.5,3.9-5.8,5.2C35.2,1060.2,35.7,1058.5,36.1,1056.8z"/>
</g>
</svg>
