<?xml version="1.0" encoding="utf-8"?>
<!-- Generator: Adobe Illustrator 18.0.0, SVG Export Plug-In . SVG Version: 6.00 Build 0)  -->
<!DOCTYPE svg PUBLIC "-//W3C//DTD SVG 1.1//EN" "http://www.w3.org/Graphics/SVG/1.1/DTD/svg11.dtd">
<svg version="1.1" id="Layer_1" xmlns="http://www.w3.org/2000/svg" xmlns:xlink="http://www.w3.org/1999/xlink" x="0px" y="0px"
	 viewBox="51.8 861.6 841.9 194.1" enable-background="new 51.8 861.6 841.9 194.1" xml:space="preserve">
<g>
	<g>
		<path fill="#FFFFFF" d="M232.7,961.6h-10.4l-2.8-8.9h-17.2l-2.8,8.9H189l16.4-46.9c0.8-1.6,1.6-2.8,2.3-3.4c0.9-0.6,2-0.9,3.3-0.9
			s2.3,0.3,3.1,0.9c0.8,0.6,1.6,1.7,2.2,3.4L232.7,961.6z M217.1,944.3L211,924l-6.4,20.3H217.1z"/>
		<path fill="#FFFFFF" d="M236.6,937.4V931c0-6.7,1.7-11.9,5.3-15.6c3.4-3.7,8.4-5.6,14.5-5.6c6.2,0,11.2,1.9,15,5.6
			c2.7,2.7,3.9,6.5,3.9,11.9h-9.4c0-5.8-3.1-8.6-9.2-8.6c-1.9,0-3.4,0.3-4.7,1.1c-1.2,0.6-2.2,1.6-2.8,2.3c-0.6,0.9-1.1,2.2-1.4,4.1
			c-0.3,1.7-0.5,3.3-0.6,4.5c0,1.2,0,2.8,0,4.8c0,2,0,3.4,0,4.1c0,0.6,0.2,1.9,0.2,3.4c0.2,1.6,0.3,2.7,0.6,3.3
			c0.3,0.6,0.6,1.6,1.1,2.7s1.1,1.9,1.9,2.2c2,1.2,4.2,1.9,6.7,1.9c4.2,0,7.2-1.7,8.9-5.3v-3.4h-6.2v-8.4h14.8v15.4
			c-1.6,3.4-3.9,6.1-7,8c-3.3,1.7-6.9,2.7-10.9,2.7c-7.3,0-12.5-2-15.7-6.1C238.3,951.9,236.6,945.7,236.6,937.4z"/>
		<path fill="#FFFFFF" d="M324.5,961.6H313l-10-19h-7.2v19h-10v-40.2c0-3.9,0.9-6.7,2.7-8.4c1.7-1.7,4.8-2.7,8.9-2.7h8.6
			c5.1,0,9.2,1.6,12.2,4.7c3,3.1,4.5,7,4.5,11.9c0,3.4-0.9,6.4-2.7,9c-1.9,2.5-4.1,4.2-6.7,5.3L324.5,961.6z M310.3,932.1
			c1.4-1.4,2-3.3,2-5.5c0-2.2-0.6-3.9-2-5.3c-1.2-1.4-3.1-2-5.3-2h-5c-3,0-4.5,1.6-4.5,4.5v10.4h9.5
			C307.2,934.3,308.9,933.5,310.3,932.1z"/>
		<path fill="#FFFFFF" d="M370.4,933.7v3.9c0,8.6-1.6,14.8-4.8,18.7s-8.4,5.8-15.6,5.8s-12.3-1.9-15.6-5.8c-3.1-3.9-4.8-10.1-4.8-19
			v-3.7c0-8,1.6-13.9,4.8-17.8c3.3-3.9,8.4-5.8,15.4-5.8s12.2,2,15.6,5.9S370.4,925.7,370.4,933.7z M360.4,937.3v-2.7
			c0-4.7-0.6-8.3-1.7-11.1c-1.4-3.1-4.2-4.7-8.6-4.7c-4.5,0-7.3,1.6-8.7,4.7c-1.1,2.7-1.7,6.2-1.7,11.1v2.7c0,6.2,0.9,10.4,2.7,12.5
			c0.6,0.9,1.7,1.7,3,2.3s3,0.9,4.8,0.9c1.9,0,3.4-0.3,4.7-0.9c1.2-0.6,2.3-1.4,3-2.3c0.8-0.9,1.2-2.2,1.7-3.6
			C360.1,944,360.4,941,360.4,937.3z"/>
		<path fill="#FFFFFF" d="M411.7,914.8c3,3,4.4,7.3,4.4,12.9c0,5.8-1.4,10-4.4,12.9c-3,3-7.2,4.4-12.5,4.4h-9.8v16.4h-10v-51.3h20
			C404.5,910.3,408.7,911.9,411.7,914.8z M406.1,927.8c0-5.6-2.5-8.6-7.5-8.6h-9.4v17h9.4c2.3,0,4.2-0.6,5.5-1.9
			C405.3,933.1,406.1,930.9,406.1,927.8z"/>
		<path fill="#FFFFFF" d="M463.5,961.6H453l-2.8-8.9h-17.2l-2.8,8.9h-10.4l16.4-46.9c0.8-1.6,1.6-2.8,2.3-3.4c0.9-0.6,2-0.9,3.3-0.9
			c1.2,0,2.3,0.3,3.1,0.9c0.8,0.6,1.6,1.7,2.2,3.4L463.5,961.6z M447.7,944.3l-6.1-20.3l-6.4,20.3H447.7z"/>
		<path fill="#FFFFFF" d="M509.3,961.6h-11.5l-10-19h-7.2v19h-10v-40.2c0-3.9,0.9-6.7,2.7-8.4c1.7-1.7,4.8-2.7,8.9-2.7h8.6
			c5.1,0,9.2,1.6,12.2,4.7c3,3.1,4.5,7,4.5,11.9c0,3.4-0.9,6.4-2.7,9c-1.9,2.5-4.1,4.2-6.7,5.3L509.3,961.6z M495.1,932.1
			c1.4-1.4,2-3.3,2-5.5c0-2.2-0.6-3.9-2-5.3c-1.4-1.4-3.1-2-5.3-2h-5c-3,0-4.5,1.6-4.5,4.5v10.4h9.5
			C492,934.3,493.7,933.5,495.1,932.1z"/>
		<path fill="#FFFFFF" d="M550.9,919.3h-13.7v42.4h-10v-42.4h-13.7v-8.9h37.4L550.9,919.3L550.9,919.3z"/>
		<path fill="#FFFFFF" d="M598.8,910.3v46.2c0,1.6-0.5,3-1.4,4.1c-0.9,1.1-2,1.7-3.4,1.7c-3.3,0-6.1-1.9-8.1-5.8l-17.8-27.8v32.9
			h-10v-51.3h9.7l21.1,33.5v-33.5L598.8,910.3L598.8,910.3z"/>
		<path fill="#FFFFFF" d="M642.9,961.6h-18.1c-5.8,0-9.8-0.9-12.2-3c-2.3-2-3.4-5.5-3.4-10.6v-37.7h33.8v8.9h-23.9v12h16.7l-0.8,8.9
			h-15.9v7.2c0,2,0.5,3.4,1.4,4.2s2.5,1.1,5,1.1h17.5v9H642.9z"/>
		<path fill="#FFFFFF" d="M691.6,961.6h-11.5l-10-19h-7.2v19h-10v-40.2c0-3.9,0.9-6.7,2.7-8.4c1.7-1.7,4.8-2.7,8.9-2.7h8.6
			c5.1,0,9.2,1.6,12.2,4.7c3,3.1,4.5,7,4.5,11.9c0,3.4-0.9,6.4-2.7,9c-1.9,2.5-4.1,4.2-6.7,5.3L691.6,961.6z M677.4,932.1
			c1.4-1.4,2-3.3,2-5.5c0-2.2-0.6-3.9-2-5.3c-1.4-1.4-3.1-2-5.3-2h-5c-3,0-4.5,1.6-4.5,4.5v10.4h9.5
			C674.3,934.3,676,933.5,677.4,932.1z"/>
		<path fill="#FFFFFF" d="M734.5,946.5c0,4.8-1.7,8.7-5.3,11.4c-3.6,2.8-8.1,4.2-13.6,4.2c-4.4,0-8.6-1.2-12.6-3.6
			c-2-1.2-3.7-3-5-5.3c-1.2-2.3-1.9-4.8-1.9-7.8l9-0.5c0,2.7,1.1,4.7,3.3,6.1c2.2,1.4,4.7,2.2,7.3,2.2c6.1,0,9-2.2,9-6.4
			c0-3.4-2-5.5-6.1-6.1l-8.4-0.9c-4.2-0.6-7.5-2.2-10-4.5c-2.5-2.3-3.7-5.8-3.7-10.1c0-4.4,1.7-8.1,5.3-10.9c3.6-2.8,8-4.4,13.3-4.4
			s9.7,1.4,12.9,4.1c3.3,2.7,4.8,6.2,4.8,10.4l-8.9,0.5c-0.8-4.2-3.6-6.2-8.4-6.2c-3,0-5.3,0.6-6.9,1.9c-1.7,1.2-2.5,2.7-2.5,4.4
			c0,1.7,0.6,3.1,1.9,4.1c1.2,0.9,2.7,1.6,4.5,1.9l8.3,0.9C729.8,932.9,734.5,937.9,734.5,946.5z"/>
		<path fill="#FFFFFF" d="M780.6,961.6h-10v-20.7h-18.9v20.7h-10v-51.3h10V932h18.9v-21.7h10V961.6z"/>
		<path fill="#FFFFFF" d="M801.8,961.6h-10v-51.3h10V961.6z"/>
		<path fill="#FFFFFF" d="M846.1,914.8c3,3,4.4,7.3,4.4,12.9c0,5.8-1.4,10-4.4,12.9c-3,3-7.2,4.4-12.5,4.4h-9.8v16.4h-10v-51.3h20
			C839.1,910.3,843.3,911.9,846.1,914.8z M840.7,927.8c0-5.6-2.5-8.6-7.5-8.6h-9.4v17h9.4c2.3,0,4.2-0.6,5.5-1.9
			C839.9,933.1,840.7,930.9,840.7,927.8z"/>
		<path fill="#FFFFFF" d="M893.7,946.5c0,4.8-1.7,8.7-5.3,11.4c-3.6,2.8-8.1,4.2-13.6,4.2c-4.4,0-8.6-1.2-12.6-3.6
			c-2-1.2-3.7-3-5-5.3c-1.2-2.3-1.9-4.8-1.9-7.8l9-0.5c0,2.7,1.1,4.7,3.3,6.1c2.2,1.4,4.7,2.2,7.3,2.2c6.1,0,9-2.2,9-6.4
			c0-3.4-2-5.5-6.1-6.1l-8.4-0.9c-4.2-0.6-7.5-2.2-10-4.5c-2.5-2.3-3.7-5.8-3.7-10.1c0-4.4,1.7-8.1,5.3-10.9c3.6-2.8,8-4.4,13.3-4.4
			c5.3,0,9.7,1.4,12.9,4.1c3.3,2.7,4.8,6.2,4.8,10.4l-8.9,0.5c-0.8-4.2-3.6-6.2-8.4-6.2c-3,0-5.3,0.6-6.9,1.9
			c-1.7,1.2-2.5,2.7-2.5,4.4c0,1.7,0.6,3.1,1.9,4.1c1.2,0.9,2.7,1.6,4.5,1.9l8.3,0.9C889,932.9,893.7,937.9,893.7,946.5z"/>
	</g>
	<g opacity="0.5">
		<path fill="#FFFFFF" d="M207.7,982c1.6,1.6,2.3,3.8,2.3,6.8s-0.7,5.2-2.3,6.8c-1.6,1.6-3.7,2.3-6.6,2.3h-5.2v8.5h-5.2v-26.8H201
			C203.8,979.7,206.1,980.4,207.7,982z M204.7,988.8c0-3-1.2-4.5-3.8-4.5H196v8.9h4.9c1.2,0,2.3-0.3,3-1
			C204.4,991.6,204.7,990.5,204.7,988.8z"/>
		<path fill="#FFFFFF" d="M234,991.9v2.1c0,4.5-0.9,7.8-2.6,9.8c-1.7,2.1-4.4,3.1-8.2,3.1c-3.8,0-6.4-1-8.2-3.1
			c-1.7-2.1-2.4-5.4-2.4-9.9v-1.9c0-4.2,0.9-7.3,2.6-9.2c1.7-2.1,4.4-3.1,8-3.1c3.7,0,6.4,1,8.2,3.1S234,987.7,234,991.9z
			 M228.8,993.8v-1.4c0-2.4-0.3-4.4-0.9-5.8c-0.7-1.7-2.3-2.4-4.5-2.4c-2.3,0-3.8,0.9-4.5,2.4c-0.5,1.4-0.9,3.3-0.9,5.8v1.4
			c0,3.3,0.5,5.4,1.4,6.6c0.3,0.5,0.9,0.9,1.6,1.2c0.7,0.3,1.6,0.5,2.4,0.5c1,0,1.7-0.2,2.4-0.5c0.7-0.3,1.2-0.7,1.6-1.2
			s0.7-1,0.9-1.9C228.6,997.3,228.8,995.7,228.8,993.8z"/>
		<path fill="#FFFFFF" d="M268.7,979.7l-7.1,26.8h-4.4l-4.9-16.4l-4.9,16.4H243l-7.1-26.8h5.4l4.2,16.9l4.2-13.9
			c0.5-2.1,1.4-3.1,2.8-3.1c0.7,0,1.2,0.3,1.7,0.9c0.3,0.5,0.7,1.4,1,2.3l4,13.9l4.2-16.9H268.7z"/>
		<path fill="#FFFFFF" d="M289.8,1006.6h-9.6c-3,0-5.1-0.5-6.3-1.6c-1.2-1-1.9-3-1.9-5.6v-19.7h17.8v4.7h-12.4v6.3h8.7l-0.3,4.7
			h-8.4v3.7c0,1,0.2,1.7,0.7,2.3c0.5,0.3,1.4,0.5,2.6,0.5h9.1L289.8,1006.6L289.8,1006.6z"/>
		<path fill="#FFFFFF" d="M315.2,1006.6h-6.1l-5.2-9.9H300v9.9h-5.2v-21.1c0-2.1,0.5-3.5,1.4-4.4s2.4-1.4,4.7-1.4h4.5
			c2.6,0,4.7,0.9,6.3,2.4c1.6,1.6,2.4,3.7,2.4,6.1c0,1.7-0.5,3.3-1.4,4.7s-2.1,2.3-3.5,2.8L315.2,1006.6z M307.9,991
			c0.7-0.7,1-1.7,1-2.8c0-1.2-0.3-2.1-1-2.8c-0.7-0.7-1.6-1-2.8-1h-2.6c-1.6,0-2.3,0.9-2.3,2.4v5.4h4.9
			C306.3,992.3,307.2,991.9,307.9,991z"/>
		<path fill="#FFFFFF" d="M337.3,1006.6h-9.6c-3,0-5.1-0.5-6.3-1.6c-1.2-1-1.9-3-1.9-5.6v-19.7h17.8v4.7H325v6.3h8.7l-0.3,4.7H325
			v3.7c0,1,0.2,1.7,0.7,2.3c0.5,0.3,1.4,0.5,2.6,0.5h9.1L337.3,1006.6L337.3,1006.6z"/>
		<path fill="#FFFFFF" d="M362.8,993v3c-0.2,1.9-0.3,3.3-0.7,4.7c-0.3,1.4-1,2.4-2.1,3.5c-1.7,1.7-4.2,2.6-7.5,2.6
			c-3.8,0-6.4-0.5-7.8-1.6c-1.4-1-2.1-2.8-2.1-5.6v-19.9H353c3,0,5.4,0.9,7.1,2.6c1.4,1.4,2.3,3.1,2.4,5.1
			C362.6,988.8,362.8,990.7,362.8,993z M357.2,997.8c0.2-1,0.2-2.6,0.2-4.7s0-3.7-0.2-4.7c-0.2-1-0.5-1.7-0.9-2.3
			c-0.9-1-2.3-1.7-4-1.7h-4.7v14.8c0,1,0.3,1.7,1,2.1c0.7,0.3,1.9,0.5,3.7,0.5c1.7,0,3.1-0.5,4-1.7
			C356.9,999.8,357.2,998.9,357.2,997.8z"/>
		<path fill="#FFFFFF" d="M395.6,998.9c0,2.4-0.7,4.4-2.1,5.8c-1.4,1.4-3.3,1.9-5.6,1.9h-3.7c-3,0-5.1-0.5-6.3-1.6
			c-1.2-1-1.9-2.8-1.9-5.4v-20h11.3c2.6,0,4.5,0.7,5.8,1.9c1.2,1.2,1.9,3.1,1.9,5.4c0,1.4-0.3,2.4-1,3.5c-0.7,0.9-1.4,1.6-2.3,2.1
			C394.3,993.8,395.6,995.9,395.6,998.9z M387,990.2c1.9,0,3-1,3-3s-1-3-3-3h-5.8v5.8h5.8V990.2z M390.3,998.5
			c0-1.2-0.2-2.1-0.7-2.8c-0.3-0.7-1.2-0.9-2.3-0.9h-6.1v4.2c0,1,0.2,1.7,0.7,2.1c0.5,0.3,1.4,0.5,2.6,0.5h2.8
			C389.3,1001.8,390.3,1000.8,390.3,998.5z"/>
		<path fill="#FFFFFF" d="M419.3,979.7l-8,15.9v11H406v-11l-8-15.9h5.8l5.1,10.8l4.9-10.8H419.3z"/>
		<path fill="#FFFFFF" d="M448.9,984.4h-9.4c-1,0-1.9,0.2-2.3,0.7c-0.5,0.3-0.7,1.2-0.7,2.3v3.7h9.9l-0.3,4.7h-9.4v11h-5.2v-21.4
			c0-1.9,0.3-3.3,1.2-4.2s2.4-1.2,4.5-1.2h11.9v4.5H448.9z"/>
		<path fill="#FFFFFF" d="M474,1006.6h-5.4l-1.6-4.7H458l-1.4,4.7h-5.4l8.5-24.6c0.3-0.9,0.9-1.4,1.2-1.7c0.3-0.3,1-0.5,1.7-0.5
			s1.2,0.2,1.6,0.5c0.3,0.3,0.9,0.9,1,1.7L474,1006.6z M465.8,997.5l-3.1-10.6l-3.3,10.6H465.8z"/>
		<path fill="#FFFFFF" d="M498.1,1006.6H492l-5.2-9.9h-3.8v9.9h-5.2v-21.1c0-2.1,0.5-3.5,1.4-4.4s2.4-1.4,4.7-1.4h4.5
			c2.6,0,4.7,0.9,6.3,2.4s2.4,3.7,2.4,6.1c0,1.7-0.5,3.3-1.4,4.7s-2.1,2.3-3.5,2.8L498.1,1006.6z M490.6,991c0.7-0.7,1-1.7,1-2.8
			c0-1.2-0.3-2.1-1-2.8c-0.7-0.7-1.6-1-2.8-1h-2.6c-1.6,0-2.3,0.9-2.3,2.4v5.4h4.9C489,992.3,489.9,991.9,490.6,991z"/>
		<path fill="#FFFFFF" d="M522.1,990.5l-4.9,10.1c-0.7,1.4-1.6,2.1-2.6,2.1s-1.9-0.7-2.6-2.1l-4.9-10.1v16h-5.2v-26.8h5.2l7.7,15.5
			l7.5-15.5h5.2v26.8h-5.2v-16H522.1z"/>
		<path fill="#FFFFFF" d="M550.7,984.4h-9.4c-1,0-1.9,0.2-2.3,0.7c-0.5,0.3-0.7,1.2-0.7,2.3v3.7h9.9l-0.3,4.7h-9.4v11h-5.2v-21.4
			c0-1.9,0.3-3.3,1.2-4.2s2.4-1.2,4.5-1.2h11.9v4.5H550.7z"/>
		<path fill="#FFFFFF" d="M574.9,991.9v2.1c0,4.5-0.9,7.8-2.6,9.8c-1.7,2.1-4.4,3.1-8.2,3.1s-6.4-1-8.2-3.1
			c-1.7-2.1-2.4-5.4-2.4-9.9v-1.9c0-4.2,0.9-7.3,2.6-9.2c1.7-2.1,4.4-3.1,8-3.1s6.4,1,8.2,3.1S574.9,987.7,574.9,991.9z
			 M569.7,993.8v-1.4c0-2.4-0.3-4.4-0.9-5.8c-0.7-1.7-2.3-2.4-4.5-2.4c-2.3,0-3.8,0.9-4.5,2.4c-0.5,1.4-0.9,3.3-0.9,5.8v1.4
			c0,3.3,0.5,5.4,1.4,6.6c0.3,0.5,0.9,0.9,1.6,1.2c0.7,0.3,1.6,0.5,2.4,0.5s1.7-0.2,2.4-0.5c0.7-0.3,1.2-0.7,1.6-1.2
			c0.3-0.5,0.7-1,0.9-1.9C569.5,997.3,569.7,995.7,569.7,993.8z"/>
		<path fill="#FFFFFF" d="M599.8,1006.6h-6.1l-5.2-9.9h-3.8v9.9h-5.2v-21.1c0-2.1,0.5-3.5,1.4-4.4s2.4-1.4,4.7-1.4h4.5
			c2.6,0,4.7,0.9,6.3,2.4c1.6,1.6,2.4,3.7,2.4,6.1c0,1.7-0.5,3.3-1.4,4.7s-2.1,2.3-3.5,2.8L599.8,1006.6z M592.4,991
			c0.7-0.7,1-1.7,1-2.8c0-1.2-0.3-2.1-1-2.8c-0.7-0.7-1.6-1-2.8-1h-2.6c-1.6,0-2.3,0.9-2.3,2.4v5.4h4.9
			C590.8,992.3,591.7,991.9,592.4,991z"/>
		<path fill="#FFFFFF" d="M621.6,984.4h-7.1v22.1h-5.2v-22.1h-7.1v-4.7h19.7v4.7H621.6z"/>
		<path fill="#FFFFFF" d="M643.4,1006.6h-9.6c-3,0-5.1-0.5-6.3-1.6s-1.9-3-1.9-5.6v-19.7h17.8v4.7H631v6.3h8.7l-0.3,4.7H631v3.7
			c0,1,0.2,1.7,0.7,2.3c0.5,0.3,1.4,0.5,2.6,0.5h9.1V1006.6z"/>
	</g>
	<path fill="#FFFFFF" d="M82.2,956.8L141,898c6.7-6.7,6.7-17.5,0-24.2l0,0l-58.8,58.8C75.7,939.3,75.7,950.1,82.2,956.8L82.2,956.8z
		"/>
	<rect x="164.7" y="861.6" fill="#FFFFFF" width="1.4" height="191.3"/>
	<path opacity="0.75" fill="#FFFFFF" enable-background="new    " d="M69,1005.7l58.8-58.8c6.7-6.7,6.7-17.5,0-24.2l0,0L69,981.6
		C62.2,988.3,62.2,999,69,1005.7L69,1005.7z"/>
	<path opacity="0.5" fill="#FFFFFF" enable-background="new    " d="M56.8,1055.8l58.8-58.8c6.7-6.7,6.7-17.5,0-24.2l0,0l-58.8,58.8
		C50.1,1038.3,50.1,1049.1,56.8,1055.8L56.8,1055.8z"/>
	<g opacity="0.25">
		<path fill="#FFFFFF" d="M115.3,923.7l-33.1,33.1c2,2,4.2,3.6,6.7,4.8l38.8-38.8C124,920,118.7,920.3,115.3,923.7z"/>
		<path fill="#FFFFFF" d="M101.9,972.8L69,1005.7c2.5,2.5,5.3,4.2,8.3,5.5l38.4-38.4C111.8,968.9,105.8,968.9,101.9,972.8z"/>
	</g>
</g>
</svg>
