<?xml version="1.0" encoding="utf-8"?>
<!-- Generator: Adobe Illustrator 18.0.0, SVG Export Plug-In . SVG Version: 6.00 Build 0)  -->
<!DOCTYPE svg PUBLIC "-//W3C//DTD SVG 1.1//EN" "http://www.w3.org/Graphics/SVG/1.1/DTD/svg11.dtd">
<svg version="1.1" id="Layer_1" xmlns="http://www.w3.org/2000/svg" xmlns:xlink="http://www.w3.org/1999/xlink" x="0px" y="0px"
	 viewBox="32.5 855.7 841.8 194.1" enable-background="new 32.5 855.7 841.8 194.1" xml:space="preserve">
<g>
	<path fill="#1D3B2D" d="M107.2,920l1.3-3.2c-3.8-2.7-9.1-2.4-12.6,1.1l-32.9,32.9c5.2,5.2,12.1,7.6,18.9,7.5l26.4-38.3L107.2,920z"
		/>
	<g>
		<path fill="#FFFFFF" d="M213.3,955.6h-10.5l-2.9-8.9h-17.2l-2.9,8.9h-10.5l16.4-46.9c0.8-1.6,1.6-2.7,2.4-3.3c1-0.6,1.9-1,3.3-1
			s2.4,0.3,3.2,0.8c0.8,0.6,1.4,1.7,2.1,3.5L213.3,955.6z M197.7,938.3l-6-20.4l-6.4,20.4H197.7z"/>
		<path fill="#FFFFFF" d="M217.3,931.4v-6.4c0-6.7,1.7-11.9,5.2-15.6c3.5-3.8,8.4-5.6,14.6-5.6c6.2,0,11.1,1.9,15,5.6
			c2.7,2.7,4,6.7,4,11.9h-9.5c0-5.7-3-8.6-9.2-8.6c-1.7,0-3.3,0.3-4.6,1.1c-1.3,0.6-2.2,1.4-2.9,2.4c-0.6,1-1.1,2.2-1.4,4
			c-0.3,1.7-0.5,3.3-0.6,4.5c0,1.3,0,2.9,0,4.8s0,3.3,0,4.1c0,0.6,0.2,1.7,0.2,3.3c0.2,1.6,0.3,2.7,0.6,3.3c0.3,0.6,0.6,1.6,1.1,2.5
			c0.5,1.1,1.1,1.7,1.9,2.2c1.9,1.3,4.1,1.9,6.7,1.9c4.1,0,7.2-1.7,8.9-5.4v-3.3H241v-8.4h14.8v15.4c-1.4,3.5-3.8,6.2-7,8
			c-3.2,1.7-6.8,2.7-11,2.7c-7.3,0-12.6-2.1-15.7-6C218.9,945.9,217.3,939.7,217.3,931.4z"/>
		<path fill="#FFFFFF" d="M305.2,955.6h-11.6l-10-19.1h-7.2v19.1h-10v-40.2c0-3.8,1-6.7,2.7-8.4c1.7-1.7,4.8-2.7,8.9-2.7h8.4
			c5.1,0,9.1,1.6,12.1,4.6c3,3,4.5,7,4.5,11.8c0,3.5-1,6.5-2.7,8.9c-1.7,2.5-4,4.3-6.7,5.2L305.2,955.6z M291.1,926
			c1.4-1.4,2.1-3.3,2.1-5.4c0-2.2-0.6-4-1.9-5.2c-1.3-1.3-3-2.1-5.2-2.1h-4.9c-3,0-4.5,1.6-4.5,4.6v10.5h9.4
			C287.9,928.2,289.6,927.4,291.1,926z"/>
		<path fill="#FFFFFF" d="M351.1,927.6v3.8c0,8.6-1.6,14.8-4.9,18.8c-3.2,3.8-8.4,5.9-15.6,5.9c-7.2,0-12.4-1.9-15.6-5.9
			c-3.2-3.8-4.8-10.2-4.8-18.9v-3.8c0-8,1.6-13.8,4.9-17.8s8.4-5.9,15.4-5.9c7,0,12.2,1.9,15.6,5.9S351.1,919.6,351.1,927.6z
			 M341,931.3v-2.7c0-4.6-0.6-8.3-1.7-11c-1.3-3.2-4.3-4.8-8.6-4.8c-4.5,0-7.3,1.6-8.7,4.8c-1.1,2.5-1.6,6.2-1.6,11v2.7
			c0,6.2,0.8,10.3,2.5,12.6c0.6,1,1.6,1.7,3,2.4c1.3,0.6,2.9,1,4.8,1c1.9,0,3.5-0.3,4.8-1s2.2-1.4,3-2.4s1.3-2.1,1.6-3.7
			C340.7,937.9,341,934.9,341,931.3z"/>
		<path fill="#FFFFFF" d="M392.3,908.8c3,3,4.5,7.3,4.5,13c0,5.7-1.4,10-4.5,13c-3,3-7.2,4.5-12.6,4.5h-9.9v16.4h-10v-51.4h19.9
			C385.1,904.4,389.4,905.8,392.3,908.8z M386.7,921.7c0-5.7-2.5-8.4-7.5-8.4h-9.4v16.9h9.4c2.4,0,4.3-0.6,5.6-1.9
			C386.1,927,386.7,924.7,386.7,921.7z"/>
		<path fill="#FFFFFF" d="M444.1,955.6h-10.5l-2.9-8.9h-17.2l-2.9,8.9h-10.5l16.4-46.9c0.8-1.6,1.6-2.7,2.4-3.3c1-0.6,1.9-1,3.3-1
			c1.4,0,2.4,0.3,3.2,0.8c0.8,0.5,1.4,1.7,2.1,3.5L444.1,955.6z M428.4,938.3l-6-20.4l-6.4,20.4H428.4z"/>
		<path fill="#FFFFFF" d="M489.9,955.6h-11.6l-10-19.1h-7.2v19.1h-10v-40.2c0-3.8,1-6.7,2.7-8.4c1.7-1.7,4.8-2.7,8.9-2.7h8.4
			c5.1,0,9.1,1.6,12.1,4.6s4.5,7,4.5,11.8c0,3.5-1,6.5-2.7,8.9s-4,4.3-6.7,5.2L489.9,955.6z M475.8,926c1.4-1.4,2.1-3.3,2.1-5.4
			c0-2.2-0.6-4-1.9-5.2c-1.3-1.3-3-2.1-5.2-2.1h-4.9c-3,0-4.5,1.6-4.5,4.6v10.5h9.4C472.8,928.2,474.5,927.4,475.8,926z"/>
		<path fill="#FFFFFF" d="M531.6,913.3h-13.8v42.3h-10v-42.3h-13.7v-8.9h37.5V913.3z"/>
		<path fill="#FFFFFF" d="M579.3,904.4v46.1c0,1.6-0.5,2.9-1.4,4.1c-1,1.1-2.1,1.7-3.3,1.7c-3.3,0-6-1.9-8.1-5.7L548.8,923v32.9h-10
			v-51.4h9.7l21,33.6v-33.6h9.9V904.4z"/>
		<path fill="#FFFFFF" d="M623.6,955.6h-18.1c-5.7,0-9.9-1-12.1-3c-2.2-2.1-3.5-5.6-3.5-10.5v-37.7h33.7v8.9h-23.9v12.1h16.7
			l-0.8,8.9h-15.9v7.2c0,2.1,0.5,3.3,1.4,4.1c1,0.8,2.5,1.1,4.9,1.1h17.5V955.6z"/>
		<path fill="#FFFFFF" d="M672.2,955.6h-11.6l-10-19.1h-7.2v19.1h-10v-40.2c0-3.8,1-6.7,2.7-8.4c1.7-1.7,4.8-2.7,8.9-2.7h8.4
			c5.1,0,9.1,1.6,12.1,4.6s4.5,7,4.5,11.8c0,3.5-1,6.5-2.7,8.9c-1.7,2.4-4,4.3-6.7,5.2L672.2,955.6z M658.1,926
			c1.4-1.4,2.1-3.3,2.1-5.4c0-2.2-0.6-4-1.9-5.2c-1.3-1.3-3-2.1-5.2-2.1h-4.9c-3,0-4.5,1.6-4.5,4.6v10.5h9.4
			C654.9,928.2,656.7,927.4,658.1,926z"/>
		<path fill="#FFFFFF" d="M715,940.5c0,4.9-1.7,8.6-5.4,11.5c-3.7,2.9-8.1,4.1-13.7,4.1c-4.3,0-8.6-1.3-12.7-3.7
			c-2.1-1.3-3.7-3-4.9-5.2c-1.3-2.2-1.9-4.9-1.9-7.8l9.1-0.5c0,2.5,1.1,4.6,3.3,6c2.2,1.4,4.6,2.2,7.3,2.2c6,0,9.1-2.1,9.1-6.4
			c0-3.5-2.1-5.6-6.2-6.2l-8.4-0.8c-4.1-0.6-7.5-2.1-10-4.5c-2.4-2.4-3.7-5.7-3.7-10.2c0-4.5,1.8-8.1,5.2-11c3.5-2.9,8-4.3,13.4-4.3
			c5.4,0,9.7,1.4,12.9,4.1c3.3,2.7,4.9,6.2,4.9,10.5l-8.9,0.5c-0.8-4.1-3.7-6.2-8.4-6.2c-2.9,0-5.2,0.6-6.8,1.9
			c-1.6,1.3-2.5,2.7-2.5,4.5c0,1.7,0.6,3,1.8,4c1.3,1,2.7,1.6,4.5,1.9l8.3,0.8C710.6,927,715,931.9,715,940.5z"/>
		<path fill="#FFFFFF" d="M761.2,955.6h-10v-20.7h-18.8v20.7h-10v-51.4h10v21.6h18.8v-21.6h10V955.6z"/>
		<path fill="#FFFFFF" d="M782.5,955.6h-10v-51.4h10V955.6z"/>
		<path fill="#FFFFFF" d="M826.9,908.8c3,3,4.5,7.3,4.5,13c0,5.7-1.4,10-4.5,13c-3,3-7.2,4.5-12.6,4.5h-9.9v16.4h-10v-51.4h19.9
			C819.7,904.4,823.9,905.8,826.9,908.8z M821.3,921.7c0-5.7-2.5-8.4-7.5-8.4h-9.4v16.9h9.4c2.4,0,4.3-0.6,5.6-1.9
			C820.7,927,821.3,924.7,821.3,921.7z"/>
		<path fill="#FFFFFF" d="M874.3,940.5c0,4.9-1.7,8.6-5.4,11.5c-3.7,2.9-8.1,4.1-13.7,4.1c-4.3,0-8.6-1.3-12.7-3.7
			c-2.1-1.3-3.7-3-4.9-5.2c-1.3-2.2-1.9-4.9-1.9-7.8l9.1-0.5c0,2.5,1.1,4.6,3.3,6c2.2,1.4,4.6,2.2,7.3,2.2c6,0,9.1-2.1,9.1-6.4
			c0-3.5-2.1-5.6-6.2-6.2l-8.4-0.8c-4.1-0.6-7.5-2.1-10-4.5c-2.4-2.4-3.7-5.7-3.7-10.2c0-4.5,1.7-8.1,5.2-11c3.5-2.9,8-4.3,13.4-4.3
			s9.7,1.4,12.9,4.1c3.3,2.7,4.9,6.2,4.9,10.5l-8.9,0.5c-0.8-4.1-3.7-6.2-8.4-6.2c-2.9,0-5.2,0.6-6.8,1.9c-1.6,1.3-2.5,2.7-2.5,4.5
			c0,1.7,0.6,3,1.7,4c1.3,1,2.7,1.6,4.5,1.9l8.3,0.8C869.7,927,874.3,931.9,874.3,940.5z"/>
	</g>
	<g opacity="0.5">
		<path fill="#FFFFFF" d="M188.2,976.1c1.6,1.6,2.3,3.9,2.3,6.7c0,2.8-0.7,5.3-2.3,6.7c-1.6,1.6-3.7,2.3-6.5,2.3h-5.1v8.7h-5.3
			v-26.9h10.4C184.5,973.8,186.7,974.5,188.2,976.1z M185.2,982.8c0-3-1.2-4.4-3.9-4.4h-4.9v8.8h4.9c1.2,0,2.3-0.4,2.8-1.1
			C184.7,985.4,185.2,984.4,185.2,982.8z"/>
		<path fill="#FFFFFF" d="M214.6,986v2.1c0,4.4-0.9,7.8-2.5,9.7c-1.6,1.9-4.4,3-8.1,3s-6.4-1.1-8.1-3c-1.6-2.1-2.5-5.3-2.5-9.9V986
			c0-4.2,0.9-7.2,2.5-9.4c1.8-2.1,4.4-3,8.1-3s6.4,1.1,8.1,3C213.7,978.7,214.6,981.7,214.6,986z M209.3,987.7v-1.4
			c0-2.5-0.4-4.4-0.9-5.8c-0.7-1.6-2.1-2.5-4.6-2.5c-2.3,0-3.9,0.9-4.6,2.5c-0.5,1.4-0.9,3.4-0.9,5.8v1.4c0,3.2,0.5,5.5,1.4,6.5
			c0.4,0.5,0.9,0.9,1.6,1.2s1.6,0.5,2.5,0.5s1.8-0.2,2.5-0.5s1.2-0.7,1.6-1.2c0.4-0.5,0.7-1.1,0.9-1.9
			C209.1,991.3,209.3,989.7,209.3,987.7z"/>
		<path fill="#FFFFFF" d="M249.2,973.8l-7.2,26.9h-4.4l-4.9-16.3l-4.9,16.3h-4.4l-7.1-26.9h5.5l4.1,17l4.1-14
			c0.5-2.1,1.4-3.2,2.8-3.2c0.7,0,1.2,0.4,1.6,0.9c0.4,0.5,0.7,1.2,1.1,2.3l4.1,14l4.2-17H249.2z"/>
		<path fill="#FFFFFF" d="M270.2,1000.6h-9.5c-3,0-5.1-0.5-6.4-1.6c-1.2-1.1-1.8-2.8-1.8-5.5v-19.8h17.7v4.6h-12.4v6.4h8.7l-0.4,4.6
			h-8.3v3.7c0,1.1,0.2,1.8,0.7,2.1c0.5,0.4,1.4,0.5,2.7,0.5h9.2v4.9H270.2z"/>
		<path fill="#FFFFFF" d="M295.7,1000.6h-6l-5.3-9.9h-3.7v9.9h-5.3v-21c0-1.9,0.5-3.5,1.4-4.4c0.9-0.9,2.5-1.4,4.6-1.4h4.4
			c2.7,0,4.8,0.9,6.4,2.5c1.6,1.6,2.3,3.7,2.3,6.2c0,1.8-0.5,3.4-1.4,4.8c-0.9,1.2-2.1,2.3-3.5,2.7L295.7,1000.6z M288.2,985.1
			c0.7-0.7,1.1-1.8,1.1-2.8s-0.4-2.1-1.1-2.8c-0.7-0.7-1.6-1.1-2.8-1.1h-2.7c-1.6,0-2.3,0.7-2.3,2.3v5.5h4.9
			C286.7,986.3,287.5,985.8,288.2,985.1z"/>
		<path fill="#FFFFFF" d="M317.6,1000.6H308c-3,0-5.1-0.5-6.4-1.6c-1.2-1.1-1.8-2.8-1.8-5.5v-19.8h17.7v4.6h-12.4v6.4h8.7l-0.4,4.6
			h-8.3v3.7c0,1.1,0.2,1.8,0.7,2.1c0.5,0.4,1.4,0.5,2.7,0.5h9.2v4.9H317.6z"/>
		<path fill="#FFFFFF" d="M343,987v2.8c-0.2,1.8-0.4,3.4-0.7,4.6c-0.4,1.2-1.1,2.5-2.1,3.4c-1.8,1.8-4.2,2.5-7.4,2.5
			c-3.9,0-6.5-0.5-8-1.6c-1.4-1.1-2.1-2.8-2.1-5.5v-19.8h10.4c3,0,5.3,0.9,7.1,2.5c1.4,1.4,2.1,3,2.5,5.1
			C342.8,982.8,343,984.7,343,987z M337.5,991.8c0.2-1.1,0.2-2.7,0.2-4.8s0-3.7-0.2-4.8c-0.2-0.9-0.5-1.8-0.9-2.3
			c-0.9-1.1-2.1-1.6-3.9-1.6H328v14.8c0,1.1,0.4,1.8,1.1,2.1c0.7,0.4,1.9,0.5,3.7,0.5c1.8,0,3-0.5,3.9-1.6
			C337,993.6,337.4,992.9,337.5,991.8z"/>
		<path fill="#FFFFFF" d="M375.7,992.9c0,2.5-0.7,4.4-1.9,5.7c-1.4,1.4-3.2,1.9-5.7,1.9h-3.5c-3,0-5.1-0.5-6.4-1.6
			c-1.2-1.1-1.9-2.8-1.9-5.3v-20h11.3c2.5,0,4.4,0.7,5.8,1.9c1.2,1.2,1.9,3,1.9,5.5c0,1.4-0.4,2.5-1.1,3.5c-0.7,1.1-1.4,1.6-2.3,2.1
			C374.5,987.7,375.7,989.9,375.7,992.9z M367.2,984.2c1.9,0,2.8-0.9,2.8-2.8c0-1.9-0.9-2.8-2.8-2.8h-5.7v5.8h5.7V984.2z
			 M370.4,992.5c0-1.2-0.2-2.1-0.7-2.7c-0.4-0.5-1.2-0.9-2.3-0.9h-6v4.2c0,1.1,0.2,1.8,0.7,2.1s1.4,0.5,2.5,0.5h2.7
			C369.5,995.9,370.4,994.8,370.4,992.5z"/>
		<path fill="#FFFFFF" d="M399.4,973.8l-8.1,15.7v11h-5.1v-11l-8.1-15.7h5.7l4.9,10.8l4.9-10.8H399.4z"/>
		<path fill="#FFFFFF" d="M428.9,978.4h-9.4c-1.1,0-1.9,0.2-2.3,0.7c-0.4,0.4-0.7,1.2-0.7,2.3v3.7h9.9l-0.4,4.6h-9.4v11h-5.3v-21.4
			c0-1.9,0.4-3.4,1.2-4.2c0.9-0.9,2.3-1.2,4.4-1.2h11.8L428.9,978.4L428.9,978.4z"/>
		<path fill="#FFFFFF" d="M453.8,1000.6h-5.5l-1.6-4.6h-9l-1.4,4.6h-5.5l8.7-24.6c0.4-0.9,0.9-1.4,1.2-1.8c0.5-0.4,1.1-0.5,1.8-0.5
			c0.7,0,1.2,0.2,1.6,0.5c0.4,0.4,0.7,0.9,1.1,1.8L453.8,1000.6z M445.7,991.4l-3.2-10.6l-3.4,10.6H445.7z"/>
		<path fill="#FFFFFF" d="M477.8,1000.6h-6l-5.3-9.9h-3.7v9.9h-5.3v-21c0-1.9,0.5-3.5,1.4-4.4s2.5-1.4,4.6-1.4h4.4
			c2.7,0,4.8,0.9,6.4,2.5c1.6,1.6,2.3,3.7,2.3,6.2c0,1.8-0.5,3.4-1.4,4.8c-0.9,1.2-2.1,2.3-3.5,2.7L477.8,1000.6z M470.4,985.1
			c0.7-0.7,1.1-1.8,1.1-2.8s-0.4-2.1-1.1-2.8c-0.7-0.7-1.6-1.1-2.8-1.1h-2.5c-1.6,0-2.3,0.7-2.3,2.3v5.5h4.9
			C468.8,986.3,469.7,985.8,470.4,985.1z"/>
		<path fill="#FFFFFF" d="M502,984.6l-4.8,10.2c-0.7,1.4-1.6,2.1-2.7,2.1s-1.9-0.7-2.7-2.1l-4.9-10.1v16.1h-5.3V974h5.1l7.6,15.5
			L502,974h5.1v26.9h-5.3v-16.3H502z"/>
		<path fill="#FFFFFF" d="M530.3,978.4h-9.4c-1.1,0-1.9,0.2-2.3,0.7c-0.4,0.4-0.7,1.2-0.7,2.3v3.7h9.9l-0.4,4.6h-9.4v11h-5.3v-21.4
			c0-1.9,0.4-3.4,1.2-4.2s2.3-1.2,4.4-1.2h11.8L530.3,978.4L530.3,978.4z"/>
		<path fill="#FFFFFF" d="M554.5,986v2.1c0,4.4-0.9,7.8-2.5,9.7s-4.4,3-8.1,3s-6.4-1.1-8.1-3c-1.6-2.1-2.5-5.3-2.5-9.9V986
			c0-4.2,0.9-7.2,2.5-9.4c1.6-2.1,4.4-3,8.1-3s6.4,1.1,8.1,3C553.6,978.7,554.5,981.7,554.5,986z M549.4,987.7v-1.4
			c0-2.5-0.4-4.4-0.9-5.8c-0.7-1.6-2.1-2.5-4.6-2.5c-2.3,0-3.9,0.9-4.6,2.5c-0.5,1.4-0.9,3.4-0.9,5.8v1.4c0,3.2,0.5,5.5,1.4,6.5
			c0.4,0.5,0.9,0.9,1.6,1.2s1.6,0.5,2.5,0.5s1.8-0.2,2.5-0.5s1.2-0.7,1.6-1.2c0.4-0.5,0.7-1.1,0.9-1.9
			C549.2,991.3,549.4,989.7,549.4,987.7z"/>
		<path fill="#FFFFFF" d="M579.4,1000.6h-6l-5.3-9.9h-3.7v9.9h-5.3v-21c0-1.9,0.5-3.5,1.4-4.4s2.5-1.4,4.6-1.4h4.4
			c2.7,0,4.8,0.9,6.4,2.5c1.6,1.6,2.3,3.7,2.3,6.2c0,1.8-0.5,3.4-1.4,4.8c-0.9,1.2-2.1,2.3-3.5,2.7L579.4,1000.6z M572,985.1
			c0.7-0.7,1.1-1.8,1.1-2.8s-0.4-2.1-1.1-2.8c-0.7-0.7-1.6-1.1-2.8-1.1h-2.7c-1.6,0-2.3,0.7-2.3,2.3v5.5h4.9
			C570.4,986.3,571.3,985.8,572,985.1z"/>
		<path fill="#FFFFFF" d="M601.1,978.4h-7.1v22.1h-5.3v-22.1h-7.1v-4.6h19.4V978.4z"/>
		<path fill="#FFFFFF" d="M622.9,1000.6h-9.4c-3,0-5.1-0.5-6.4-1.6c-1.2-1.1-1.8-2.8-1.8-5.5v-19.8H623v4.6h-12.4v6.4h8.7l-0.4,4.6
			h-8.3v3.7c0,1.1,0.2,1.8,0.7,2.1c0.5,0.4,1.4,0.5,2.7,0.5h9.2v4.9H622.9z"/>
	</g>
	<path fill="#2BB673" d="M62.9,950.8l58.9-58.9c6.7-6.7,6.7-17.5,0-24.2l0,0l-58.9,58.9C56.3,933.3,56.3,944.1,62.9,950.8
		L62.9,950.8z"/>
	<rect x="145.4" y="855.7" fill="#FFFFFF" width="1.4" height="191.2"/>
	<path fill="#1D3B2D" d="M68.5,1007.1l27.8-40.4c-3.8-3.8-10-3.8-13.8,0l-32.9,32.9C54.8,1004.9,61.7,1007.3,68.5,1007.1z"/>
	<path fill="#8DC63F" d="M49.6,999.7l58.9-58.9c6.7-6.7,6.7-17.5,0-24.2l0,0l-58.9,58.9C42.9,982.2,42.9,993,49.6,999.7L49.6,999.7z
		"/>
	<path fill="#F39C12" d="M37.5,1049.8l58.9-58.9c6.7-6.7,6.7-17.5,0-24.2l0,0l-58.9,58.9C30.8,1032.3,30.8,1043.1,37.5,1049.8
		L37.5,1049.8z"/>
</g>
</svg>
