<?xml version="1.0" encoding="utf-8"?>
<!-- Generator: Adobe Illustrator 18.0.0, SVG Export Plug-In . SVG Version: 6.00 Build 0)  -->
<!DOCTYPE svg PUBLIC "-//W3C//DTD SVG 1.1//EN" "http://www.w3.org/Graphics/SVG/1.1/DTD/svg11.dtd">
<svg version="1.1" id="Layer_1" xmlns="http://www.w3.org/2000/svg" xmlns:xlink="http://www.w3.org/1999/xlink" x="0px" y="0px"
	 viewBox="10.1 811.8 841.8 194" enable-background="new 10.1 811.8 841.8 194" xml:space="preserve">
<g>
	<path fill="#1D3B2D" d="M85.5,876.6l0.6-3.7c-3.9-2.7-9-2.4-12.6,1.1l-32.9,32.8c5.2,5.2,12.1,7.7,19,7.4l26.1-37.9L85.5,876.6z"/>
	<g>
		<path fill="#1D3B2D" d="M191,911.7h-10.5l-2.9-8.9h-17.3l-2.7,8.9h-10.5l16.5-47c0.6-1.6,1.5-2.7,2.4-3.4c1-0.6,1.9-1,3.2-1
			s2.4,0.3,3.1,0.8c0.8,0.6,1.5,1.8,2.1,3.4L191,911.7z M175.5,894.5l-6.1-20.3l-6.3,20.3H175.5z"/>
		<path fill="#1D3B2D" d="M194.9,887.5v-6.3c0-6.6,1.8-11.9,5.3-15.7c3.6-3.7,8.4-5.6,14.5-5.6c6.1,0,11.1,1.9,14.8,5.6
			c2.6,2.6,4,6.6,4,11.9h-9.4c0-5.6-3.1-8.6-9.2-8.6c-1.8,0-3.4,0.3-4.7,1c-1.3,0.6-2.3,1.5-2.9,2.4c-0.6,1-1.1,2.3-1.5,4
			c-0.3,1.8-0.5,3.2-0.6,4.5c0,1.1,0,2.7,0,4.8c0,2.1,0,3.4,0,4c0,0.6,0.2,1.8,0.2,3.4c0.2,1.6,0.3,2.7,0.6,3.4
			c0.3,0.6,0.6,1.6,1.1,2.6c0.5,1.1,1.1,1.8,1.9,2.3c1.9,1.3,4.2,1.9,6.8,1.9c4.2,0,7.1-1.8,8.9-5.3v-3.4h-6.1v-8.4h14.8v15.5
			c-1.5,3.6-3.9,6.1-7.1,7.9c-3.2,1.8-6.9,2.7-11,2.7c-7.3,0-12.4-2.1-15.8-6.1C196.4,902.2,194.9,895.8,194.9,887.5z"/>
		<path fill="#1D3B2D" d="M282.9,911.7h-11.6l-10-19H254v19h-10v-40.4c0-3.9,1-6.6,2.7-8.4c1.8-1.8,4.7-2.6,8.9-2.6h8.6
			c5.2,0,9.2,1.6,12.1,4.7c3.1,3.1,4.5,7.1,4.5,11.8c0,3.4-1,6.5-2.7,9c-1.8,2.6-4,4.2-6.6,5.2L282.9,911.7z M268.8,882
			c1.3-1.5,2.1-3.2,2.1-5.5c0-2.3-0.6-3.9-1.9-5.3c-1.3-1.3-3.1-1.9-5.3-1.9h-5.2c-2.9,0-4.5,1.5-4.5,4.5v10.5h9.4
			C265.6,884.3,267.4,883.7,268.8,882z"/>
		<path fill="#1D3B2D" d="M328.9,883.7v3.9c0,8.6-1.6,14.8-4.8,18.7c-3.2,3.9-8.4,5.8-15.7,5.8c-7.1,0-12.3-1.9-15.5-5.8
			c-3.2-3.9-4.8-10.2-4.8-18.9v-3.7c0-7.9,1.6-13.9,4.8-17.8c3.2-3.9,8.4-5.8,15.5-5.8c7.1,0,12.3,1.9,15.5,6
			C327.1,869.8,328.9,875.8,328.9,883.7z M318.9,887.4v-2.7c0-4.7-0.6-8.2-1.8-11c-1.3-3.2-4.2-4.7-8.7-4.7c-4.5,0-7.4,1.6-8.7,4.7
			c-1.1,2.6-1.6,6.3-1.6,11v2.7c0,6.1,0.8,10.3,2.6,12.6c0.6,1,1.6,1.6,3.1,2.4c1.3,0.6,2.9,1,4.7,1s3.4-0.3,4.7-1
			c1.3-0.6,2.3-1.5,3.1-2.3c0.6-1,1.3-2.1,1.6-3.6C318.5,894,318.9,890.9,318.9,887.4z"/>
		<path fill="#1D3B2D" d="M370,864.8c2.9,2.9,4.4,7.3,4.4,13.1c0,5.6-1.5,10-4.4,13.1c-2.9,2.9-7.1,4.4-12.4,4.4h-9.8v16.5h-10.2
			v-51.3h19.9C362.9,860.4,367.1,861.9,370,864.8z M364.4,877.9c0-5.6-2.4-8.6-7.4-8.6h-9.4v16.9h9.4c2.4,0,4.2-0.6,5.5-1.9
			C363.7,883,364.4,880.9,364.4,877.9z"/>
		<path fill="#1D3B2D" d="M421.8,911.7h-10.5l-2.9-8.9h-17.3l-2.7,8.9h-10.5l16.5-47c0.6-1.6,1.5-2.7,2.4-3.4c0.8-0.6,1.9-1,3.2-1
			c1.3,0,2.4,0.3,3.1,0.8c0.8,0.6,1.5,1.8,2.1,3.4L421.8,911.7z M406.2,894.5l-6.1-20.3l-6.3,20.3H406.2z"/>
		<path fill="#1D3B2D" d="M467.7,911.7h-11.6l-10-19h-7.3v19h-10v-40.4c0-3.9,1-6.6,2.7-8.4c1.8-1.8,4.7-2.6,8.9-2.6h8.6
			c5.2,0,9.2,1.6,12.1,4.7c2.9,3.1,4.5,7.1,4.5,11.8c0,3.4-1,6.5-2.7,9c-1.8,2.6-4,4.2-6.6,5.2L467.7,911.7z M453.5,882
			c1.3-1.5,2.1-3.2,2.1-5.5c0-2.3-0.6-3.9-1.9-5.3c-1.3-1.3-3.1-1.9-5.3-1.9h-5c-2.9,0-4.5,1.5-4.5,4.5v10.5h9.4
			C450.4,884.3,452.2,883.7,453.5,882z"/>
		<path fill="#1D3B2D" d="M509.3,869.3h-13.7v42.4h-10v-42.4h-13.7v-8.9h37.4V869.3z"/>
		<path fill="#1D3B2D" d="M557.1,860.4v46.2c0,1.6-0.5,2.9-1.5,4s-2.1,1.6-3.4,1.6c-3.4,0-6-1.9-8.1-5.8l-17.8-27.8v32.9h-10v-51.3
			h9.7l21,33.6v-33.6h10V860.4z"/>
		<path fill="#1D3B2D" d="M601.3,911.7h-18.2c-5.8,0-9.8-1-12.1-3.1c-2.3-1.9-3.6-5.5-3.6-10.5v-37.8h33.7v8.9h-23.7v12.1h16.8
			l-0.6,8.9h-16v7.1c0,1.9,0.5,3.4,1.3,4.2c1,0.8,2.6,1.1,5,1.1h17.4V911.7z"/>
		<path fill="#1D3B2D" d="M649.9,911.7h-11.6l-10-19H621v19h-10v-40.4c0-3.9,1-6.6,2.7-8.4c1.8-1.8,4.7-2.6,8.9-2.6h8.6
			c5.2,0,9.2,1.6,12.1,4.7c2.9,3.1,4.5,7.1,4.5,11.8c0,3.4-1,6.5-2.7,9s-4,4.2-6.6,5.2L649.9,911.7z M635.9,882
			c1.3-1.5,2.1-3.2,2.1-5.5c0-2.3-0.6-3.9-1.9-5.3c-1.3-1.3-3.1-1.9-5.3-1.9h-5c-2.9,0-4.5,1.5-4.5,4.5v10.5h9.4
			C632.6,884.3,634.4,883.7,635.9,882z"/>
		<path fill="#1D3B2D" d="M692.8,896.6c0,4.8-1.8,8.7-5.3,11.5c-3.6,2.7-8.1,4.2-13.6,4.2c-4.4,0-8.6-1.1-12.8-3.6
			c-2.1-1.3-3.7-3.1-5-5.3c-1.3-2.3-1.9-4.8-1.9-7.7l9-0.5c0,2.6,1.1,4.7,3.4,6.1c2.3,1.5,4.7,2.1,7.4,2.1c6,0,9-2.1,9-6.3
			c0-3.4-2.1-5.5-6.1-6.1l-8.4-0.8c-4.2-0.6-7.4-2.1-10-4.5c-2.4-2.4-3.7-5.8-3.7-10.2s1.8-8.1,5.3-11s7.9-4.4,13.2-4.4
			c5.3,0,9.7,1.3,12.9,4c3.2,2.7,4.8,6.1,4.8,10.5l-8.9,0.5c-0.8-4.2-3.6-6.3-8.4-6.3c-2.9,0-5.2,0.6-6.9,1.9
			c-1.6,1.3-2.4,2.7-2.4,4.4c0,1.6,0.6,3.1,1.8,4c1.1,1,2.7,1.6,4.5,1.8l8.2,0.8C688.3,883,692.8,887.9,692.8,896.6z"/>
		<path fill="#1D3B2D" d="M739,911.7h-10v-20.8h-18.9v20.8h-10v-51.3h10V882H729v-21.6h10V911.7z"/>
		<path fill="#1D3B2D" d="M760.3,911.7h-10v-51.3h10V911.7z"/>
		<path fill="#1D3B2D" d="M804.5,864.8c2.9,2.9,4.4,7.3,4.4,13.1c0,5.6-1.5,10-4.4,13.1c-2.9,2.9-7.1,4.4-12.4,4.4h-9.8v16.5h-10
			v-51.3h19.9C797.4,860.4,801.6,861.9,804.5,864.8z M799,877.9c0-5.6-2.4-8.6-7.4-8.6h-9.4v16.9h9.4c2.4,0,4.2-0.6,5.5-1.9
			C798.4,883,799,880.9,799,877.9z"/>
		<path fill="#1D3B2D" d="M852,896.6c0,4.8-1.8,8.7-5.3,11.5c-3.6,2.7-8.1,4.2-13.6,4.2c-4.4,0-8.6-1.1-12.8-3.6
			c-2.1-1.3-3.7-3.1-5-5.3c-1.3-2.3-1.9-4.8-1.9-7.7l9-0.5c0,2.6,1.1,4.7,3.4,6.1c2.3,1.5,4.7,2.1,7.4,2.1c6,0,9-2.1,9-6.3
			c0-3.4-2.1-5.5-6.1-6.1l-8.4-0.8c-4.2-0.6-7.4-2.1-10-4.5c-2.4-2.4-3.7-5.8-3.7-10.2s1.8-8.1,5.3-11s7.9-4.4,13.2-4.4
			s9.7,1.3,12.9,4c3.2,2.7,4.8,6.1,4.8,10.5l-8.9,0.5c-0.8-4.2-3.6-6.3-8.4-6.3c-2.9,0-5.2,0.6-6.9,1.9c-1.6,1.3-2.4,2.7-2.4,4.4
			c0,1.6,0.6,3.1,1.8,4c1.1,1,2.7,1.6,4.5,1.8l8.2,0.8C847.5,883,852,887.9,852,896.6z"/>
	</g>
	<g>
		<path fill="#BCBEC0" d="M165.9,932.2c1.6,1.6,2.3,3.8,2.3,6.8c0,3-0.7,5.2-2.3,6.8c-1.6,1.6-3.8,2.3-6.4,2.3h-5.2v8.6h-5.2v-26.8
			h10.4C162.1,929.9,164.4,930.6,165.9,932.2z M163,939c0-3-1.3-4.5-3.9-4.5h-4.8v8.8h4.8c1.3,0,2.1-0.4,2.9-1.1
			C162.6,941.6,163,940.4,163,939z"/>
		<path fill="#BCBEC0" d="M192.3,942v2c0,4.5-0.9,7.7-2.5,9.8c-1.6,2.1-4.5,3-8.2,3c-3.8,0-6.4-1.1-8-3c-1.6-2-2.5-5.4-2.5-9.8v-2.1
			c0-4.1,0.9-7.3,2.5-9.3c1.6-2,4.3-3,8-3c3.8,0,6.4,1.1,8,3C191.4,934.7,192.3,937.9,192.3,942z M186.9,943.8v-1.4
			c0-2.3-0.4-4.3-0.9-5.7c-0.7-1.6-2.1-2.5-4.5-2.5c-2.3,0-3.9,0.9-4.5,2.5c-0.5,1.4-0.9,3.2-0.9,5.7v1.4c0,3.2,0.5,5.4,1.4,6.6
			c0.4,0.5,0.9,0.9,1.6,1.3c0.7,0.4,1.4,0.5,2.5,0.5c0.9,0,1.8-0.2,2.5-0.5c0.7-0.4,1.3-0.7,1.6-1.3c0.4-0.5,0.7-1.1,0.9-2
			C186.8,947.4,186.9,945.8,186.9,943.8z"/>
		<path fill="#BCBEC0" d="M226.8,929.9l-7.1,26.8h-4.3l-5-16.3l-5,16.3H201l-7.1-26.8h5.4l4.1,16.8l4.1-13.9c0.5-2.1,1.4-3,2.9-3
			c0.7,0,1.3,0.4,1.6,0.9c0.4,0.5,0.7,1.3,1.1,2.3l4.1,13.9l4.1-16.8h5.5V929.9z"/>
		<path fill="#BCBEC0" d="M247.6,956.5h-9.5c-3,0-5.2-0.5-6.3-1.6c-1.3-1.1-1.8-2.9-1.8-5.5v-19.6h17.7v4.6h-12.3v6.3h8.8l-0.4,4.6
			h-8.2v3.8c0,1.1,0.2,1.8,0.7,2.1c0.5,0.4,1.3,0.5,2.7,0.5h9.1v4.8H247.6z"/>
		<path fill="#BCBEC0" d="M273,956.5h-6.1l-5.2-10H258v10h-5.2v-21.1c0-2,0.5-3.4,1.4-4.5c0.9-1.1,2.5-1.4,4.6-1.4h4.5
			c2.7,0,4.8,0.9,6.3,2.5c1.6,1.6,2.3,3.6,2.3,6.1c0,1.8-0.5,3.4-1.4,4.6c-0.9,1.3-2.1,2.1-3.4,2.7L273,956.5z M265.7,941.1
			c0.7-0.7,1.1-1.8,1.1-2.9s-0.4-2.1-1.1-2.7c-0.7-0.7-1.6-1.1-2.7-1.1h-2.7c-1.6,0-2.3,0.7-2.3,2.3v5.4h5
			C264.1,942.4,265,941.8,265.7,941.1z"/>
		<path fill="#BCBEC0" d="M295,956.5h-9.5c-3,0-5.2-0.5-6.3-1.6c-1.3-1.1-1.8-2.9-1.8-5.5v-19.6h17.7v4.6h-12.5v6.3h8.8l-0.4,4.6
			h-8.4v3.8c0,1.1,0.2,1.8,0.7,2.1s1.3,0.5,2.7,0.5h9.1v4.8H295z"/>
		<path fill="#BCBEC0" d="M320.3,943.1v2.9c-0.2,1.8-0.4,3.4-0.7,4.6c-0.4,1.2-1.1,2.3-2.1,3.4c-1.8,1.8-4.1,2.5-7.5,2.5
			c-3.8,0-6.4-0.5-7.9-1.6c-1.4-1.1-2.1-2.9-2.1-5.5v-19.6h10.4c3,0,5.4,0.9,7.1,2.5c1.4,1.4,2.1,3,2.5,5
			C320.2,938.8,320.3,940.8,320.3,943.1z M314.8,947.9c0.2-1.1,0.2-2.7,0.2-4.8c0-2.1,0-3.8-0.2-4.6c-0.2-0.9-0.4-1.8-0.9-2.3
			c-0.9-1.1-2.1-1.6-3.9-1.6h-4.6v14.8c0,1.1,0.4,1.6,1.1,2.1c0.7,0.4,2,0.5,3.6,0.5c1.8,0,3-0.5,3.9-1.6
			C314.4,949.7,314.6,948.8,314.8,947.9z"/>
		<path fill="#BCBEC0" d="M353,948.8c0,2.5-0.7,4.5-2,5.7s-3.2,2-5.5,2h-3.6c-3,0-5-0.5-6.3-1.6c-1.3-1.1-1.8-2.9-1.8-5.4v-19.8
			h11.3c2.5,0,4.5,0.7,5.7,2s2,3,2,5.4c0,1.4-0.4,2.5-1.1,3.4c-0.7,0.9-1.4,1.6-2.3,2C351.8,943.8,353,945.9,353,948.8z
			 M344.4,940.2c2,0,2.9-0.9,2.9-2.9c0-2-0.9-2.9-2.9-2.9h-5.7v5.7L344.4,940.2L344.4,940.2z M347.7,948.6c0-1.3-0.2-2.1-0.7-2.7
			c-0.4-0.5-1.3-0.9-2.3-0.9h-6.1v4.3c0,1.1,0.2,1.8,0.7,2.1c0.5,0.4,1.4,0.5,2.5,0.5h2.7C346.8,951.8,347.7,950.8,347.7,948.6z"/>
		<path fill="#BCBEC0" d="M376.6,929.9l-8,15.7v10.9h-5.2v-10.9l-8-15.7h5.7l5,10.7l5-10.7H376.6z"/>
		<path fill="#BCBEC0" d="M406.1,934.5h-9.5c-1.1,0-1.8,0.2-2.3,0.7c-0.5,0.5-0.7,1.3-0.7,2.1v3.8h9.8l-0.4,4.6h-9.5v10.9h-5.2
			v-21.3c0-2,0.4-3.4,1.3-4.3s2.3-1.3,4.5-1.3h11.8v4.6H406.1z"/>
		<path fill="#BCBEC0" d="M430.9,956.5h-5.4l-1.4-4.6h-8.9l-1.4,4.6h-5.4l8.6-24.5c0.4-0.9,0.7-1.4,1.3-1.8c0.5-0.4,1.1-0.5,1.8-0.5
			s1.3,0.2,1.6,0.5c0.4,0.4,0.7,0.9,1.1,1.8L430.9,956.5z M422.7,947.5l-3.2-10.5l-3.4,10.5H422.7z"/>
		<path fill="#BCBEC0" d="M454.8,956.5h-6.1l-5.2-10h-3.8v10h-5.2v-21.1c0-2,0.5-3.4,1.4-4.5c0.9-1.1,2.5-1.4,4.6-1.4h4.5
			c2.7,0,4.8,0.9,6.3,2.5s2.3,3.6,2.3,6.1c0,1.8-0.5,3.4-1.4,4.6c-0.9,1.3-2.1,2.1-3.4,2.7L454.8,956.5z M447.5,941.1
			c0.7-0.7,1.1-1.8,1.1-2.9s-0.4-2.1-1.1-2.7c-0.7-0.5-1.6-1.1-2.7-1.1h-2.7c-1.6,0-2.3,0.7-2.3,2.3v5.4h5
			C445.9,942.4,446.8,941.8,447.5,941.1z"/>
		<path fill="#BCBEC0" d="M478.9,940.6l-4.8,10.2c-0.7,1.4-1.6,2-2.7,2c-1.1,0-2-0.7-2.7-2.1l-4.8-10v15.9h-5.2v-26.8h5.2l7.5,15.4
			l7.5-15.4h5.2v26.8h-5.2V940.6z"/>
		<path fill="#BCBEC0" d="M507.1,934.5h-9.5c-1.1,0-1.8,0.2-2.3,0.7c-0.5,0.5-0.7,1.3-0.7,2.1v3.8h9.8l-0.4,4.6h-9.5v10.9h-5.2
			v-21.3c0-2,0.4-3.4,1.3-4.3c0.9-0.9,2.3-1.3,4.5-1.3H507v4.6H507.1z"/>
		<path fill="#BCBEC0" d="M531.4,942v2c0,4.5-0.9,7.7-2.5,9.8s-4.5,3-8.2,3c-3.8,0-6.4-1.1-8-3c-1.6-2-2.5-5.4-2.5-9.8v-2.1
			c0-4.1,0.9-7.3,2.5-9.3c1.6-2,4.3-3,8-3c3.8,0,6.4,1.1,8,3C530.5,934.7,531.4,937.9,531.4,942z M526.1,943.8v-1.4
			c0-2.3-0.4-4.3-0.9-5.7c-0.7-1.6-2.1-2.5-4.5-2.5c-2.3,0-3.9,0.9-4.5,2.5c-0.5,1.4-0.9,3.2-0.9,5.7v1.4c0,3.2,0.5,5.4,1.4,6.6
			c0.4,0.5,0.9,0.9,1.6,1.3c0.7,0.4,1.4,0.5,2.5,0.5c1.1,0,1.8-0.2,2.5-0.5c0.7-0.4,1.3-0.7,1.6-1.3c0.4-0.5,0.7-1.1,0.9-2
			C525.9,947.4,526.1,945.8,526.1,943.8z"/>
		<path fill="#BCBEC0" d="M556.2,956.5h-6.1l-5.2-10h-3.8v10h-5.2v-21.1c0-2,0.5-3.4,1.4-4.5c0.9-1.1,2.5-1.4,4.6-1.4h4.5
			c2.7,0,4.8,0.9,6.3,2.5s2.3,3.6,2.3,6.1c0,1.8-0.5,3.4-1.4,4.6c-0.9,1.3-2.1,2.1-3.4,2.7L556.2,956.5z M548.7,941.1
			c0.7-0.7,1.1-1.8,1.1-2.9s-0.4-2.1-1.1-2.7c-0.7-0.5-1.6-1.1-2.7-1.1h-2.7c-1.6,0-2.3,0.7-2.3,2.3v5.4h5
			C547.1,942.4,548,941.8,548.7,941.1z"/>
		<path fill="#BCBEC0" d="M577.9,934.5h-7.1v22.1h-5.2v-22.1h-7.1v-4.6h19.5V934.5z"/>
		<path fill="#BCBEC0" d="M599.6,956.5h-9.5c-3,0-5.2-0.5-6.3-1.6c-1.3-1.1-1.8-2.9-1.8-5.5v-19.6h17.7v4.6h-12.3v6.3h8.8l-0.4,4.6
			h-8.2v3.8c0,1.1,0.2,1.8,0.7,2.1c0.5,0.4,1.4,0.5,2.7,0.5h9.1v4.8H599.6z"/>
	</g>
	<path fill="#2BB673" d="M40.6,906.9L99.5,848c6.6-6.6,6.6-17.4,0-24.2l0,0l-58.9,58.9C34,889.3,34,900.1,40.6,906.9L40.6,906.9z"/>
	<rect x="123.1" y="811.8" fill="#D1D3D4" width="1.3" height="191.3"/>
	<path fill="#1D3B2D" d="M46.3,963.2L74,922.9c-3.9-3.9-10-3.9-13.7,0l-32.9,32.9C32.5,961,39.5,963.4,46.3,963.2z"/>
	<path fill="#8DC63F" d="M27.4,955.8l58.9-58.9c6.6-6.6,6.6-17.4,0-24.2l0,0l-58.9,58.9C20.6,938.2,20.6,949,27.4,955.8L27.4,955.8z
		"/>
	<path fill="#F39C12" d="M15.1,1005.8L74,946.9c6.6-6.6,6.6-17.4,0-24.2l0,0l-58.9,58.9C8.5,988.3,8.5,999.1,15.1,1005.8
		L15.1,1005.8z"/>
</g>
</svg>
