<?xml version="1.0" encoding="utf-8"?>
<!-- Generator: Adobe Illustrator 18.0.0, SVG Export Plug-In . SVG Version: 6.00 Build 0)  -->
<!DOCTYPE svg PUBLIC "-//W3C//DTD SVG 1.1//EN" "http://www.w3.org/Graphics/SVG/1.1/DTD/svg11.dtd">
<svg version="1.1" id="Layer_1" xmlns="http://www.w3.org/2000/svg" xmlns:xlink="http://www.w3.org/1999/xlink" x="0px" y="0px"
	 viewBox="0 0 23.6 45.5" enable-background="new 0 0 23.6 45.5" xml:space="preserve">
<g>
	<path fill="#2BB673" d="M7.6,20.8L22.4,6c1.7-1.7,1.7-4.4,0-6l0,0L7.6,14.7C6,16.4,6,19.1,7.6,20.8L7.6,20.8z"/>
	<path fill="#1D3B2D" d="M12.4,22.6l7-10.1c-1-1-2.5-1-3.4,0l-8.2,8.2C8.9,22.1,10.7,22.7,12.4,22.6z"/>
	<path fill="#1D3B2D" d="M9,34.9l7-10.1c-1-1-2.5-1-3.4,0L4.3,33C5.6,34.3,7.3,34.9,9,34.9z"/>
	<path fill="#8DC63F" d="M4.3,33L19,18.3c1.7-1.7,1.7-4.4,0-6l0,0L4.3,27C2.6,28.6,2.6,31.4,4.3,33L4.3,33z"/>
	<path fill="#F39C12" d="M1.3,45.5L16,30.8c1.7-1.7,1.7-4.4,0-6l0,0L1.3,39.5C-0.4,41.2-0.4,43.9,1.3,45.5L1.3,45.5z"/>
</g>
</svg>
