<?xml version="1.0" encoding="utf-8"?>
<!-- Generator: Adobe Illustrator 18.0.0, SVG Export Plug-In . SVG Version: 6.00 Build 0)  -->
<!DOCTYPE svg PUBLIC "-//W3C//DTD SVG 1.1//EN" "http://www.w3.org/Graphics/SVG/1.1/DTD/svg11.dtd">
<svg version="1.1" id="Layer_1" xmlns="http://www.w3.org/2000/svg" xmlns:xlink="http://www.w3.org/1999/xlink" x="0px" y="0px"
	 viewBox="0 0 362.6 109.9" enable-background="new 0 0 362.6 109.9" xml:space="preserve">
<g>
	<g>
		<path opacity="0.5" fill="#FFFFFF" d="M17,89.6c1.3,0,2.3-0.1,3.1-0.2v20.4h2.9V74.2c0.7,0.1,1.8,0.2,3,0.2
			c3.7,0,9.2-0.7,12.7-4.3c5.7-5.7,4-16.3,4-16.8c-0.1-0.6-0.6-1.1-1.2-1.2c-0.4-0.1-11.1-1.8-16.8,4c-0.7,0.7-1.2,1.4-1.7,2.2V28.1
			c2-1.6,8.1-7,8.1-13.7c0-7.8-8.4-13.9-8.7-14.1c-0.5-0.4-1.2-0.4-1.7,0c-0.4,0.3-8.7,6.3-8.7,14.1c0,6.7,6.1,12.1,8.1,13.7v45.6
			c-0.5-0.8-1.1-1.6-1.8-2.3c-5.7-5.7-16.3-4-16.8-4c-0.6,0.1-1.1,0.6-1.2,1.2c-0.1,0.4-1.8,11,4,16.8C7.8,88.9,13.3,89.6,17,89.6z
			 M26.7,58.1c3.7-3.7,10.6-3.5,13.2-3.3c0.2,2.6,0.5,9.4-3.3,13.2c-3.7,3.7-10.6,3.5-13.2,3.3C23.1,68.7,22.9,61.9,26.7,58.1z
			 M14.8,14.4c0-5,4.7-9.5,6.7-11.1c2,1.6,6.7,6.1,6.7,11.1s-4.7,9.5-6.7,11.1C19.5,23.9,14.8,19.4,14.8,14.4z M3,70.1
			c2.6-0.2,9.4-0.5,13.2,3.3c3.7,3.7,3.5,10.6,3.3,13.2c-2.6,0.2-9.4,0.5-13.2-3.3C2.5,79.6,2.8,72.7,3,70.1z"/>
		<path opacity="0.5" fill="#FFFFFF" d="M52.8,46.4c1.3,0,2.3-0.1,3.1-0.2v63.6h2.9V31c0.7,0.1,1.8,0.2,3,0.2
			c3.7,0,9.2-0.7,12.7-4.3c5.7-5.7,4-16.3,4-16.8c-0.1-0.6-0.6-1.1-1.2-1.2c-0.4-0.1-11.1-1.8-16.8,4c-0.7,0.7-1.2,1.4-1.7,2.2V1.4
			c0-0.8-0.6-1.4-1.4-1.4c-0.8,0-1.4,0.6-1.4,1.4v29c-0.5-0.8-1.1-1.6-1.8-2.3c-5.7-5.7-16.3-4-16.8-4c-0.6,0.1-1.1,0.6-1.2,1.2
			c-0.1,0.4-1.8,11,4,16.8C43.6,45.7,49,46.4,52.8,46.4z M62.5,14.9c3.7-3.7,10.6-3.5,13.2-3.3c0.2,2.6,0.5,9.4-3.3,13.2
			c-3.8,3.7-10.6,3.5-13.2,3.3C58.9,25.5,58.7,18.7,62.5,14.9z M38.8,26.9c2.6-0.2,9.4-0.5,13.2,3.3c3.7,3.7,3.5,10.6,3.3,13.2
			c-2.6,0.2-9.5,0.5-13.2-3.3C38.3,36.4,38.5,29.5,38.8,26.9z"/>
		<path opacity="0.5" fill="#FFFFFF" d="M92.4,28.1v31.2c-0.5-0.8-1.1-1.6-1.8-2.3c-5.7-5.7-16.3-4-16.8-4c-0.6,0.1-1.1,0.6-1.2,1.2
			c-0.1,0.4-1.8,11,4,16.8c3.6,3.6,9,4.3,12.7,4.3c1.3,0,2.3-0.1,3.1-0.2v34.8h2.9V59.8c0.7,0.1,1.8,0.2,3,0.2
			c3.7,0,9.2-0.7,12.7-4.3c5.7-5.7,4-16.3,4-16.8c-0.1-0.6-0.6-1.1-1.2-1.2c-0.4-0.1-11.1-1.8-16.8,4c-0.7,0.7-1.2,1.4-1.7,2.2V28.1
			c2-1.6,8.1-7,8.1-13.7c0-7.8-8.4-13.9-8.7-14.1c-0.5-0.4-1.2-0.4-1.7,0c-0.4,0.3-8.7,6.3-8.7,14.1C84.3,21.1,90.4,26.5,92.4,28.1z
			 M91.9,72.2c-2.6,0.2-9.4,0.5-13.2-3.3c-3.7-3.7-3.5-10.6-3.3-13.2c2.6-0.2,9.4-0.5,13.2,3.3C92.3,62.8,92.1,69.6,91.9,72.2z
			 M99.1,43.7c3.7-3.7,10.6-3.5,13.2-3.3c0.2,2.6,0.5,9.4-3.3,13.2c-3.8,3.7-10.6,3.5-13.2,3.3C95.5,54.3,95.3,47.5,99.1,43.7z
			 M93.8,3.3c2,1.6,6.7,6.1,6.7,11.1s-4.7,9.5-6.7,11.1c-2-1.6-6.7-6.1-6.7-11.1C87.2,9.4,91.9,4.9,93.8,3.3z"/>
	</g>
	<g>
		<path opacity="0.5" fill="#FFFFFF" d="M339.7,28.1v31.2c-0.5-0.8-1.1-1.6-1.8-2.3c-5.7-5.7-16.3-4-16.8-4
			c-0.6,0.1-1.1,0.6-1.2,1.2c-0.1,0.4-1.8,11,4,16.8c3.6,3.6,9,4.3,12.7,4.3c1.3,0,2.3-0.1,3.1-0.2v34.8h2.9V59.8
			c0.7,0.1,1.8,0.2,3,0.2c3.7,0,9.2-0.7,12.7-4.3c5.7-5.7,4-16.3,4-16.8c-0.1-0.6-0.6-1.1-1.2-1.2c-0.4-0.1-11.1-1.8-16.8,4
			c-0.7,0.7-1.2,1.4-1.7,2.2V28.1c2-1.6,8.1-7,8.1-13.7c0-7.8-8.4-13.9-8.7-14.1c-0.5-0.4-1.2-0.4-1.7,0c-0.4,0.3-8.7,6.3-8.7,14.1
			C331.6,21.1,337.7,26.5,339.7,28.1z M339.2,72.2c-2.6,0.2-9.4,0.5-13.2-3.3c-3.7-3.7-3.5-10.6-3.3-13.2c2.6-0.2,9.4-0.5,13.2,3.3
			C339.6,62.8,339.4,69.6,339.2,72.2z M346.4,43.7c3.7-3.7,10.6-3.5,13.2-3.3c0.2,2.6,0.5,9.4-3.3,13.2c-3.8,3.7-10.6,3.5-13.2,3.3
			C342.8,54.3,342.6,47.5,346.4,43.7z M341.1,3.3c2,1.6,6.7,6.1,6.7,11.1s-4.7,9.5-6.7,11.1c-2-1.6-6.7-6.1-6.7-11.1
			C334.5,9.4,339.2,4.9,341.1,3.3z"/>
		<path opacity="0.5" fill="#FFFFFF" d="M264.3,89.6c1.3,0,2.3-0.1,3.1-0.2v20.4h2.9V74.2c0.7,0.1,1.8,0.2,3,0.2
			c3.7,0,9.2-0.7,12.7-4.3c5.7-5.7,4-16.3,4-16.8c-0.1-0.6-0.6-1.1-1.2-1.2c-0.4-0.1-11.1-1.8-16.8,4c-0.7,0.7-1.2,1.4-1.7,2.2V28.1
			c2-1.6,8.1-7,8.1-13.7c0-7.8-8.4-13.9-8.7-14.1c-0.5-0.4-1.2-0.4-1.7,0c-0.4,0.3-8.7,6.3-8.7,14.1c0,6.7,6.1,12.1,8.1,13.7v45.6
			c-0.5-0.8-1.1-1.6-1.8-2.3c-5.7-5.7-16.3-4-16.8-4c-0.6,0.1-1.1,0.6-1.2,1.2c-0.1,0.4-1.8,11,4,16.8
			C255.1,88.9,260.6,89.6,264.3,89.6z M274,58.1c3.7-3.7,10.6-3.5,13.2-3.3c0.2,2.6,0.5,9.4-3.3,13.2c-3.7,3.7-10.6,3.5-13.2,3.3
			C270.4,68.7,270.2,61.9,274,58.1z M262.1,14.4c0-5,4.7-9.5,6.7-11.1c2,1.6,6.7,6.1,6.7,11.1s-4.7,9.5-6.7,11.1
			C266.8,23.9,262.1,19.4,262.1,14.4z M250.3,70.1c2.6-0.2,9.4-0.5,13.2,3.3c3.7,3.7,3.5,10.6,3.3,13.2c-2.6,0.2-9.4,0.5-13.2-3.3
			C249.8,79.6,250.1,72.7,250.3,70.1z"/>
		<path opacity="0.5" fill="#FFFFFF" d="M300.1,46.4c1.3,0,2.3-0.1,3.1-0.2v63.6h2.9V31c0.7,0.1,1.8,0.2,3,0.2
			c3.7,0,9.2-0.7,12.7-4.3c5.7-5.7,4-16.3,4-16.8c-0.1-0.6-0.6-1.1-1.2-1.2c-0.4-0.1-11.1-1.8-16.8,4c-0.7,0.7-1.2,1.4-1.7,2.2V1.4
			c0-0.8-0.6-1.4-1.4-1.4c-0.8,0-1.4,0.6-1.4,1.4v29c-0.5-0.8-1.1-1.6-1.8-2.3c-5.7-5.7-16.3-4-16.8-4c-0.6,0.1-1.1,0.6-1.2,1.2
			c-0.1,0.4-1.8,11,4,16.8C290.9,45.7,296.3,46.4,300.1,46.4z M309.8,14.9c3.7-3.7,10.6-3.5,13.2-3.3c0.2,2.6,0.5,9.4-3.3,13.2
			c-3.8,3.7-10.6,3.5-13.2,3.3C306.2,25.5,306,18.7,309.8,14.9z M286.1,26.9c2.6-0.2,9.4-0.5,13.2,3.3c3.7,3.7,3.5,10.6,3.3,13.2
			c-2.6,0.2-9.4,0.5-13.2-3.3C285.6,36.4,285.8,29.5,286.1,26.9z"/>
	</g>
	<g>
		<path opacity="0.5" fill="#FFFFFF" d="M216.2,28.1v31.2c-0.5-0.8-1.1-1.6-1.8-2.3c-5.7-5.7-16.3-4-16.8-4
			c-0.6,0.1-1.1,0.6-1.2,1.2c-0.1,0.4-1.8,11,4,16.8c3.6,3.6,9,4.3,12.7,4.3c1.3,0,2.3-0.1,3.1-0.2v34.8h2.9V59.8
			c0.7,0.1,1.8,0.2,3,0.2c3.7,0,9.2-0.7,12.7-4.3c5.7-5.7,4-16.3,4-16.8c-0.1-0.6-0.6-1.1-1.2-1.2c-0.4-0.1-11.1-1.8-16.8,4
			c-0.7,0.7-1.2,1.4-1.7,2.2V28.1c2-1.6,8.1-7,8.1-13.7c0-7.8-8.4-13.9-8.7-14.1c-0.5-0.4-1.2-0.4-1.7,0c-0.4,0.3-8.7,6.3-8.7,14.1
			C208.1,21.1,214.2,26.5,216.2,28.1z M215.7,72.2c-2.6,0.2-9.4,0.5-13.2-3.3c-3.7-3.7-3.5-10.6-3.3-13.2c2.6-0.2,9.4-0.5,13.2,3.3
			C216.1,62.8,215.9,69.6,215.7,72.2z M222.9,43.7c3.7-3.7,10.6-3.5,13.2-3.3c0.2,2.6,0.5,9.4-3.3,13.2c-3.8,3.7-10.6,3.5-13.2,3.3
			C219.3,54.3,219.1,47.5,222.9,43.7z M217.6,3.3c2,1.6,6.7,6.1,6.7,11.1s-4.7,9.5-6.7,11.1c-2-1.6-6.7-6.1-6.7-11.1
			C211,9.4,215.7,4.9,217.6,3.3z"/>
		<path opacity="0.5" fill="#FFFFFF" d="M176.6,46.4c1.3,0,2.3-0.1,3.1-0.2v63.6h2.9V31c0.7,0.1,1.8,0.2,3,0.2
			c3.7,0,9.2-0.7,12.7-4.3c5.7-5.7,4-16.3,4-16.8c-0.1-0.6-0.6-1.1-1.2-1.2c-0.4-0.1-11.1-1.8-16.8,4c-0.7,0.7-1.2,1.4-1.7,2.2V1.4
			c0-0.8-0.6-1.4-1.4-1.4c-0.8,0-1.4,0.6-1.4,1.4v29c-0.5-0.8-1.1-1.6-1.8-2.3c-5.7-5.7-16.3-4-16.8-4c-0.6,0.1-1.1,0.6-1.2,1.2
			c-0.1,0.4-1.8,11,4,16.8C167.4,45.7,172.8,46.4,176.6,46.4z M186.3,14.9c3.7-3.7,10.6-3.5,13.2-3.3c0.2,2.6,0.5,9.4-3.3,13.2
			c-3.8,3.7-10.6,3.5-13.2,3.3C182.7,25.5,182.5,18.7,186.3,14.9z M162.6,26.9c2.6-0.2,9.4-0.5,13.2,3.3c3.7,3.7,3.5,10.6,3.3,13.2
			c-2.6,0.2-9.4,0.5-13.2-3.3C162.1,36.4,162.3,29.5,162.6,26.9z"/>
		<path opacity="0.5" fill="#FFFFFF" d="M140.8,89.6c1.3,0,2.3-0.1,3.1-0.2v20.4h2.9V74.2c0.7,0.1,1.8,0.2,3,0.2
			c3.7,0,9.2-0.7,12.7-4.3c5.7-5.7,4-16.3,4-16.8c-0.1-0.6-0.6-1.1-1.2-1.2c-0.4-0.1-11.1-1.8-16.8,4c-0.7,0.7-1.2,1.4-1.7,2.2V28.1
			c2-1.6,8.1-7,8.1-13.7c0-7.8-8.4-13.9-8.7-14.1c-0.5-0.4-1.2-0.4-1.7,0c-0.4,0.3-8.7,6.3-8.7,14.1c0,6.7,6.1,12.1,8.1,13.7v45.6
			c-0.5-0.8-1.1-1.6-1.8-2.3c-5.7-5.7-16.3-4-16.8-4c-0.6,0.1-1.1,0.6-1.2,1.2c-0.1,0.4-1.8,11,4,16.8
			C131.6,88.9,137.1,89.6,140.8,89.6z M150.5,58.1c3.7-3.7,10.6-3.5,13.2-3.3c0.2,2.6,0.5,9.4-3.3,13.2c-3.7,3.7-10.6,3.5-13.2,3.3
			C146.9,68.7,146.7,61.9,150.5,58.1z M138.6,14.4c0-5,4.7-9.5,6.7-11.1c2,1.6,6.7,6.1,6.7,11.1s-4.7,9.5-6.7,11.1
			C143.3,23.9,138.6,19.4,138.6,14.4z M126.8,70.1c2.6-0.2,9.4-0.5,13.2,3.3c3.7,3.7,3.5,10.6,3.3,13.2c-2.6,0.2-9.4,0.5-13.2-3.3
			C126.3,79.6,126.6,72.7,126.8,70.1z"/>
	</g>
</g>
</svg>
