<?xml version="1.0" encoding="utf-8"?>
<!-- Generator: Adobe Illustrator 18.0.0, SVG Export Plug-In . SVG Version: 6.00 Build 0)  -->
<!DOCTYPE svg PUBLIC "-//W3C//DTD SVG 1.1//EN" "http://www.w3.org/Graphics/SVG/1.1/DTD/svg11.dtd">
<svg version="1.1" id="Layer_1" xmlns="http://www.w3.org/2000/svg" xmlns:xlink="http://www.w3.org/1999/xlink" x="0px" y="0px"
	 viewBox="0 0 36.6 36.6" enable-background="new 0 0 36.6 36.6" xml:space="preserve">
<g>
	<path fill="#1D3B2D" d="M0.3,36.3L0.3,36.3c-0.4-0.4-0.4-1,0-1.3L34.9,0.3c0.4-0.4,1-0.4,1.3,0l0,0c0.4,0.4,0.4,1,0,1.3L1.6,36.3
		C1.2,36.7,0.6,36.7,0.3,36.3z"/>
	<path fill="#1D3B2D" d="M0.3,0.3L0.3,0.3c0.4-0.4,1-0.4,1.3,0L36.3,35c0.4,0.4,0.4,1,0,1.3l0,0c-0.4,0.4-1,0.4-1.3,0L0.3,1.6
		C-0.1,1.2-0.1,0.6,0.3,0.3z"/>
</g>
</svg>
