<?xml version="1.0" encoding="utf-8"?>
<!-- Generator: Adobe Illustrator 18.0.0, SVG Export Plug-In . SVG Version: 6.00 Build 0)  -->
<!DOCTYPE svg PUBLIC "-//W3C//DTD SVG 1.1//EN" "http://www.w3.org/Graphics/SVG/1.1/DTD/svg11.dtd">
<svg version="1.1" id="Layer_1" xmlns="http://www.w3.org/2000/svg" xmlns:xlink="http://www.w3.org/1999/xlink" x="0px" y="0px"
	 viewBox="0 0 36.1 36.1" enable-background="new 0 0 36.1 36.1" xml:space="preserve">
<g>
	<path fill="#FFFFFF" d="M0.3,35.8L0.3,35.8c-0.4-0.4-0.4-1,0-1.3L34.4,0.3c0.4-0.4,1-0.4,1.3,0v0c0.4,0.4,0.4,1,0,1.3L1.6,35.8
		C1.2,36.2,0.6,36.2,0.3,35.8z"/>
	<path fill="#FFFFFF" d="M0.3,0.3L0.3,0.3c0.4-0.4,1-0.4,1.3,0l34.2,34.2c0.4,0.4,0.4,1,0,1.3v0c-0.4,0.4-1,0.4-1.3,0L0.3,1.6
		C-0.1,1.2-0.1,0.6,0.3,0.3z"/>
</g>
</svg>
