<?xml version="1.0" encoding="utf-8"?>
<!-- Generator: Adobe Illustrator 18.0.0, SVG Export Plug-In . SVG Version: 6.00 Build 0)  -->
<!DOCTYPE svg PUBLIC "-//W3C//DTD SVG 1.1//EN" "http://www.w3.org/Graphics/SVG/1.1/DTD/svg11.dtd">
<svg version="1.1" id="Layer_1" xmlns="http://www.w3.org/2000/svg" xmlns:xlink="http://www.w3.org/1999/xlink" x="0px" y="0px"
	 viewBox="0 0 18.6 23.4" enable-background="new 0 0 18.6 23.4" xml:space="preserve">
<g>
	<path fill="#FFFFFF" d="M16.6,20.1c1.3-2.1,2-5.1,2-8.4s-0.7-6.3-2-8.4l0.4-0.4c0.6-0.6,0.6-1.7,0-2.3C16.8,0.2,16.4,0,15.9,0
		c-0.4,0-0.8,0.2-1.2,0.5L14.3,1c-0.2-0.1-0.4-0.2-0.6-0.2c0,0,0,0-0.1,0c-2.8-0.2-5.7-0.2-8.5,0c0,0,0,0-0.1,0
		C4.8,0.8,4.6,0.9,4.4,1L3.9,0.5C3.5,0.2,3.1,0,2.7,0C2.2,0,1.9,0.2,1.5,0.5c-0.6,0.6-0.6,1.7,0,2.3L2,3.3c-1.3,2.1-2,5.2-2,8.4
		s0.7,6.3,2,8.4l-0.4,0.4c-0.6,0.6-0.6,1.7,0,2.3c0.3,0.3,0.7,0.5,1.2,0.5c0.4,0,0.8-0.2,1.2-0.5l0.5-0.5c0.2,0.1,0.4,0.2,0.6,0.2
		c0,0,0,0,0.1,0c2.8,0.2,5.7,0.2,8.5,0c0,0,0,0,0.1,0c0.2-0.1,0.4-0.1,0.6-0.2l0.5,0.5c0.3,0.3,0.7,0.5,1.2,0.5
		c0.4,0,0.8-0.2,1.2-0.5c0.6-0.6,0.6-1.7,0-2.3L16.6,20.1z M16.6,22.5c-0.4,0.4-1,0.4-1.4,0l-0.7-0.7c-0.1-0.1-0.2-0.1-0.2-0.1
		c-0.1,0-0.1,0-0.2,0c-0.2,0.1-0.4,0.2-0.7,0.2c-2.8,0.2-5.6,0.2-8.4,0c-0.2-0.1-0.4-0.1-0.7-0.2c-0.1-0.1-0.3-0.1-0.4,0.1l-0.7,0.7
		c-0.4,0.4-1,0.4-1.4,0c-0.4-0.4-0.4-1,0-1.4l0.7-0.7c0.1-0.1,0.1-0.3,0.1-0.4c-1.3-2-2-5-2-8.3s0.7-6.3,2-8.3
		C2.8,3.3,2.8,3.1,2.6,3L2,2.3c-0.4-0.4-0.4-1,0-1.4c0.4-0.4,1-0.4,1.4,0l0.7,0.7c0.1,0.1,0.3,0.1,0.4,0.1c0.2-0.1,0.4-0.2,0.7-0.2
		c2.8-0.2,5.6-0.2,8.4,0c0.2,0.1,0.4,0.1,0.7,0.2c0.1,0.1,0.3,0.1,0.4-0.1l0.7-0.7c0.4-0.4,1-0.4,1.4,0c0.4,0.4,0.4,1,0,1.4L15.9,3
		c-0.1,0.1-0.1,0.3-0.1,0.4c1.3,2,2,5,2,8.3s-0.7,6.3-2,8.3c-0.1,0.1-0.1,0.3,0.1,0.4l0.7,0.7C17,21.4,17,22.1,16.6,22.5z"/>
	<path fill="#FFFFFF" d="M12.2,11.4c0.4-0.9,0.3-1.8-0.1-2.3V5.5c0-0.2-0.2-0.3-0.3-0.3c-0.2,0-0.3,0.2-0.3,0.3v3.3
		c-0.2,0-0.4,0-0.6,0.1c0-1-0.5-1.9-1.2-2.1V4.3C9.7,4.1,9.5,4,9.3,4C9.2,4,9,4.1,9,4.3v2.5C8.3,7,7.8,7.8,7.8,8.9
		C7.6,8.8,7.4,8.8,7.2,8.8V5.5c0-0.2-0.2-0.3-0.3-0.3c-0.2,0-0.3,0.2-0.3,0.3v3.6c-0.5,0.5-0.5,1.4-0.1,2.3c-0.3,0.5-0.4,1.3,0,2.1
		c-0.2,0.2-0.2,0.5-0.3,0.8c0,0.5,0.1,1,0.4,1.5C7.2,17,8.3,17.5,9,17.1v2c0,0.2,0.2,0.3,0.3,0.3c0.2,0,0.3-0.2,0.3-0.3v-2
		c0.2,0.1,0.3,0.1,0.5,0.1c0.7,0,1.4-0.5,1.9-1.3c0.3-0.5,0.4-1.1,0.4-1.5c0-0.3-0.1-0.6-0.3-0.8C12.6,12.7,12.6,11.9,12.2,11.4z
		 M9,16.1c0,0.2-0.1,0.3-0.3,0.4c-0.4,0.2-1.1-0.1-1.6-0.9c-0.2-0.4-0.3-0.8-0.3-1.2c0-0.2,0.1-0.5,0.3-0.7c0.4-0.2,1.1,0.1,1.6,0.9
		c0.2,0.3,0.2,0.5,0.3,0.8C9,15.4,9,16.1,9,16.1z M9,13.9c-0.6-0.7-1.4-1.1-2-0.8c-0.2-0.6-0.2-1.2,0.2-1.5c0.4-0.2,1.1,0.1,1.6,0.9
		c0.2,0.3,0.2,0.5,0.3,0.8V13.9z M9,11.8c-0.6-0.7-1.4-1.1-2-0.8c-0.2-0.6-0.2-1.2,0.2-1.5c0.4-0.2,1.1,0.1,1.6,0.9
		C8.8,10.7,8.9,11,9,11.2L9,11.8L9,11.8z M9.4,10.1c0,0,0,0.1-0.1,0.1c0,0,0-0.1-0.1-0.1C9,9.7,8.7,9.4,8.4,9.2c0-0.1,0-0.1,0-0.2
		c0-1,0.5-1.6,0.9-1.6S10.2,8,10.2,9c0,0.1,0,0.1,0,0.2C9.9,9.4,9.6,9.7,9.4,10.1z M9.6,13.4c0.1-0.3,0.2-0.5,0.3-0.8
		c0.5-0.8,1.2-1.1,1.6-0.9c0.3,0.2,0.4,0.8,0.2,1.5c-0.6-0.2-1.4,0.1-2,0.8V13.4z M11.5,15.6c-0.5,0.8-1.2,1.1-1.6,0.9
		c-0.2-0.1-0.2-0.3-0.3-0.4v-0.6c0.1-0.3,0.2-0.5,0.3-0.8c0.5-0.8,1.2-1.1,1.6-0.9c0.2,0.1,0.3,0.5,0.3,0.7
		C11.8,14.7,11.7,15.2,11.5,15.6z M11.7,11c-0.6-0.2-1.4,0.1-2,0.8v-0.6c0.1-0.3,0.2-0.5,0.3-0.8c0.5-0.8,1.2-1.1,1.6-0.9
		C11.8,9.7,11.9,10.3,11.7,11z"/>
</g>
</svg>
