<?xml version="1.0" encoding="utf-8"?>
<!-- Generator: Adobe Illustrator 18.0.0, SVG Export Plug-In . SVG Version: 6.00 Build 0)  -->
<!DOCTYPE svg PUBLIC "-//W3C//DTD SVG 1.1//EN" "http://www.w3.org/Graphics/SVG/1.1/DTD/svg11.dtd">
<svg version="1.1" id="Layer_1" xmlns="http://www.w3.org/2000/svg" xmlns:xlink="http://www.w3.org/1999/xlink" x="0px" y="0px"
	 viewBox="0 0 21.3 26.7" enable-background="new 0 0 21.3 26.7" xml:space="preserve">
<g>
	<path fill="#1D3B2D" d="M19,23c1.5-2.4,2.3-5.9,2.3-9.6S20.5,6.1,19,3.7l0.5-0.5c0.7-0.7,0.7-1.9,0-2.7C19.2,0.2,18.7,0,18.2,0
		c-0.5,0-1,0.2-1.3,0.5l-0.6,0.6c-0.2-0.1-0.5-0.2-0.7-0.2c0,0,0,0-0.1,0c-3.2-0.3-6.5-0.3-9.7,0c0,0,0,0-0.1,0C5.5,1,5.2,1,5,1.1
		L4.4,0.5C4.1,0.2,3.6,0,3.1,0c-0.5,0-1,0.2-1.3,0.5C1,1.3,1,2.5,1.8,3.2l0.5,0.5C0.8,6.1,0,9.6,0,13.4s0.8,7.3,2.3,9.6l-0.5,0.5
		c-0.7,0.7-0.7,1.9,0,2.7c0.4,0.4,0.8,0.5,1.3,0.5s1-0.2,1.3-0.5L5,25.6c0.2,0.1,0.5,0.2,0.7,0.2c0,0,0,0,0.1,0
		c3.2,0.2,6.5,0.2,9.7,0c0,0,0,0,0.1,0c0.2-0.1,0.5-0.1,0.7-0.2l0.6,0.6c0.4,0.4,0.8,0.5,1.3,0.5c0.5,0,1-0.2,1.3-0.5
		c0.7-0.7,0.7-1.9,0-2.7L19,23z M19,25.7c-0.4,0.4-1.2,0.4-1.6,0l-0.8-0.8c-0.1-0.1-0.2-0.1-0.3-0.1c-0.1,0-0.1,0-0.2,0
		c-0.2,0.1-0.5,0.2-0.8,0.3c-3.2,0.2-6.4,0.2-9.6,0c-0.2-0.1-0.5-0.2-0.8-0.3c-0.2-0.1-0.3-0.1-0.4,0.1l-0.8,0.8
		c-0.4,0.4-1.2,0.4-1.6,0c-0.5-0.5-0.5-1.1,0-1.6L3,23.3c0.1-0.1,0.2-0.3,0.1-0.5c-1.5-2.3-2.3-5.7-2.3-9.5s0.8-7.2,2.3-9.5
		C3.2,3.7,3.2,3.5,3,3.4L2.3,2.6C1.8,2.2,1.8,1.5,2.3,1c0.4-0.4,1.2-0.4,1.6,0l0.8,0.8C4.8,1.9,5,2,5.1,1.9c0.2-0.1,0.5-0.2,0.8-0.3
		c3.2-0.2,6.4-0.2,9.6,0c0.2,0.1,0.5,0.2,0.8,0.3c0.2,0.1,0.3,0.1,0.4-0.1L17.4,1c0.4-0.4,1.2-0.4,1.6,0c0.5,0.5,0.5,1.1,0,1.6
		l-0.8,0.8c-0.1,0.1-0.2,0.3-0.1,0.5c1.5,2.3,2.3,5.7,2.3,9.5s-0.8,7.3-2.3,9.5c-0.1,0.2-0.1,0.3,0.1,0.5l0.8,0.8
		C19.4,24.5,19.4,25.2,19,25.7z"/>
	<path fill="#1D3B2D" d="M13.9,13c0.5-1,0.4-2.1-0.2-2.6V6.3c0-0.2-0.2-0.4-0.4-0.4s-0.4,0.2-0.4,0.4v3.8c-0.2,0-0.4,0-0.6,0.1
		C12.4,9,11.8,8,11,7.7V4.9c0-0.2-0.2-0.4-0.4-0.4c-0.2,0-0.4,0.2-0.4,0.4v2.8C9.5,8,9,8.9,8.9,10.1c-0.2-0.1-0.4-0.1-0.6-0.1V6.3
		c0-0.2-0.2-0.4-0.4-0.4S7.6,6.1,7.6,6.3v4.2C7,11,7,12,7.4,13.1c-0.4,0.6-0.4,1.5,0,2.4c-0.2,0.3-0.3,0.6-0.3,1
		c0,0.6,0.2,1.2,0.5,1.8c0.7,1.2,1.9,1.8,2.8,1.4v2.3c0,0.2,0.2,0.4,0.4,0.4c0.2,0,0.4-0.2,0.4-0.4v-2.3c0.2,0.1,0.4,0.2,0.6,0.2
		c0.8,0,1.6-0.6,2.1-1.5c0.3-0.6,0.5-1.2,0.5-1.8c0-0.4-0.1-0.7-0.3-1C14.4,14.5,14.4,13.6,13.9,13z M10.3,18.4
		c0,0.2-0.1,0.4-0.3,0.5c-0.4,0.2-1.3-0.2-1.8-1.1c-0.2-0.5-0.4-0.9-0.4-1.4c0-0.2,0.1-0.6,0.3-0.8c0.4-0.2,1.3,0.2,1.8,1.1
		c0.2,0.3,0.3,0.6,0.3,0.9C10.3,17.6,10.3,18.4,10.3,18.4z M10.3,15.9c-0.7-0.8-1.6-1.2-2.3-1c-0.3-0.7-0.2-1.4,0.2-1.7
		c0.4-0.2,1.3,0.2,1.8,1.1c0.2,0.3,0.3,0.6,0.3,0.9V15.9z M10.3,13.5c-0.7-0.8-1.6-1.2-2.3-1c-0.3-0.7-0.2-1.4,0.2-1.7
		c0.4-0.2,1.3,0.2,1.8,1.1c0.2,0.3,0.3,0.6,0.3,0.9L10.3,13.5L10.3,13.5z M10.7,11.6c0,0,0,0.1-0.1,0.1c0,0,0-0.1-0.1-0.1
		c-0.3-0.5-0.6-0.8-0.9-1.1c0-0.1,0-0.2,0-0.2c0-1.1,0.5-1.8,1-1.8s1,0.8,1,1.8c0,0.1,0,0.2,0,0.2C11.3,10.8,11,11.1,10.7,11.6z
		 M11,15.3c0.1-0.3,0.2-0.6,0.3-0.9c0.5-0.9,1.4-1.3,1.8-1.1c0.4,0.2,0.5,0.9,0.2,1.7c-0.7-0.3-1.6,0.1-2.3,1V15.3z M13.1,17.8
		c-0.5,0.9-1.4,1.3-1.8,1.1c-0.2-0.1-0.3-0.3-0.3-0.5v-0.7c0.1-0.3,0.2-0.6,0.3-0.9c0.5-0.9,1.4-1.3,1.8-1.1
		c0.3,0.2,0.3,0.5,0.3,0.8C13.5,16.8,13.4,17.4,13.1,17.8z M13.3,12.5c-0.7-0.3-1.6,0.1-2.3,1v-0.7c0.1-0.3,0.2-0.6,0.3-0.9
		c0.5-0.9,1.4-1.3,1.8-1.1C13.5,11.1,13.6,11.8,13.3,12.5z"/>
</g>
</svg>
