<?xml version="1.0" encoding="utf-8"?>
<!-- Generator: Adobe Illustrator 23.0.1, SVG Export Plug-In . SVG Version: 6.00 Build 0)  -->
<svg version="1.1" id="Layer_1" xmlns="http://www.w3.org/2000/svg" xmlns:xlink="http://www.w3.org/1999/xlink" x="0px" y="0px"
	 viewBox="0 0 108.6 108.6" style="enable-background:new 0 0 108.6 108.6;" xml:space="preserve">
<style type="text/css">
	.st0{fill:url(#SVGID_1_);}
	.st1{fill:url(#SVGID_2_);}
	.st2{fill:url(#SVGID_3_);}
	.st3{fill:url(#SVGID_4_);}
</style>
<g>
	<linearGradient id="SVGID_1_" gradientUnits="userSpaceOnUse" x1="38.7714" y1="-10.4634" x2="113.1165" y2="89.1692">
		<stop  offset="0" style="stop-color:#8DC63F"/>
		<stop  offset="1" style="stop-color:#2BB673"/>
	</linearGradient>
	<path class="st0" d="M93.1,7.8c0-4.3-3.5-7.8-7.8-7.8H23.3c-4.3,0-7.8,3.5-7.8,7.8v7.8h77.6V7.8z"/>
	<linearGradient id="SVGID_2_" gradientUnits="userSpaceOnUse" x1="17.1101" y1="5.7001" x2="91.4552" y2="105.3327">
		<stop  offset="0" style="stop-color:#8DC63F"/>
		<stop  offset="1" style="stop-color:#2BB673"/>
	</linearGradient>
	<path class="st1" d="M100.8,23.3H7.8C3.5,23.3,0,26.7,0,31v46.5c0,4.3,3.5,7.8,7.8,7.8h7.8v15.5c0,4.3,3.5,7.8,7.8,7.8h62.1
		c4.3,0,7.8-3.5,7.8-7.8V85.3h7.8c4.3,0,7.8-3.5,7.8-7.8V31C108.6,26.7,105.1,23.3,100.8,23.3z M85.3,100.8H23.3V62.1h62.1V100.8z
		 M93.1,46.5H77.6v-7.8h15.5V46.5z"/>
	<linearGradient id="SVGID_3_" gradientUnits="userSpaceOnUse" x1="-6.5016" y1="23.319" x2="67.8435" y2="122.9516">
		<stop  offset="0" style="stop-color:#8DC63F"/>
		<stop  offset="1" style="stop-color:#2BB673"/>
	</linearGradient>
	<path class="st2" d="M34.9,93.1h15.5c2.1,0,3.9-1.7,3.9-3.9c0-2.1-1.7-3.9-3.9-3.9H34.9c-2.1,0-3.9,1.7-3.9,3.9
		C31,91.4,32.8,93.1,34.9,93.1z"/>
	<linearGradient id="SVGID_4_" gradientUnits="userSpaceOnUse" x1="8.4091" y1="12.1928" x2="82.7542" y2="111.8253">
		<stop  offset="0" style="stop-color:#8DC63F"/>
		<stop  offset="1" style="stop-color:#2BB673"/>
	</linearGradient>
	<path class="st3" d="M34.9,77.6h38.8c2.1,0,3.9-1.7,3.9-3.9c0-2.1-1.7-3.9-3.9-3.9H34.9c-2.1,0-3.9,1.7-3.9,3.9
		C31,75.8,32.8,77.6,34.9,77.6z"/>
</g>
</svg>
