<?xml version="1.0" encoding="utf-8"?>
<!-- Generator: Adobe Illustrator 18.0.0, SVG Export Plug-In . SVG Version: 6.00 Build 0)  -->
<!DOCTYPE svg PUBLIC "-//W3C//DTD SVG 1.1//EN" "http://www.w3.org/Graphics/SVG/1.1/DTD/svg11.dtd">
<svg version="1.1" id="Layer_1" xmlns="http://www.w3.org/2000/svg" xmlns:xlink="http://www.w3.org/1999/xlink" x="0px" y="0px"
	 viewBox="0 0 19.3 17.9" enable-background="new 0 0 19.3 17.9" xml:space="preserve">
<g>
	<g transform="translate(0.000000,511.000000) scale(0.100000,-0.100000)">
		<linearGradient id="SVGID_1_" gradientUnits="userSpaceOnUse" x1="43.6976" y1="5093.3252" x2="56.2503" y2="5077.812">
			<stop  offset="0" style="stop-color:#8DC63F"/>
			<stop  offset="1" style="stop-color:#2BB673"/>
		</linearGradient>
		<path fill="url(#SVGID_1_)" d="M52.1,5109.4c-12.9-2.5-23.1-11.7-27.1-24.4c-1.6-5.1-1.7-14.3-0.2-19.1
			c3.4-11.2,12-20.2,22.9-23.9c3.6-1.2,12.5-1.9,15.9-1.3l1.8,0.3l0.3,4.1c1.2,14.8,11,30.2,23,35.9c3.6,1.7,3.6,1.7,3.3,3.5
			c-0.2,1-1.3,3.8-2.4,6.3c-2.9,6-9.3,12.5-15.1,15.3C67.2,5109.6,59.2,5110.8,52.1,5109.4z"/>
		<linearGradient id="SVGID_2_" gradientUnits="userSpaceOnUse" x1="62.717" y1="5108.7148" x2="75.2697" y2="5093.2017">
			<stop  offset="0" style="stop-color:#8DC63F"/>
			<stop  offset="1" style="stop-color:#2BB673"/>
		</linearGradient>
		<path fill="url(#SVGID_2_)" d="M109.8,5082.7c-16.7-3.8-29.6-16.1-33.9-32.5c-1.6-5.9-1.6-15.6,0-21.5c4.2-16,16.4-28.2,32.3-32.3
			c8.4-2.1,20.3-1.2,28.2,2.3c12.1,5.4,21.5,16.1,25.1,28.8c1.6,5.5,1.9,14.6,0.8,20.4c-4.2,20.9-22.3,35.7-43.5,35.6
			C115.5,5083.4,111.5,5083,109.8,5082.7z"/>
		<linearGradient id="SVGID_3_" gradientUnits="userSpaceOnUse" x1="0.4041" y1="5058.2939" x2="12.9568" y2="5042.7803">
			<stop  offset="0" style="stop-color:#8DC63F"/>
			<stop  offset="1" style="stop-color:#2BB673"/>
		</linearGradient>
		<path fill="url(#SVGID_3_)" d="M26,5042.8c-7-4.6-13.2-11-17.6-18.4c-2.8-4.6-5.8-12.1-7.2-17.8c-1.9-7.9-2.6-7.1,6.4-7.1h7.8
			l10.6,10.6l10.6,10.6l8.3-8.3l8.3-8.3l4.4,4.4c3.7,3.8,11,9.3,13,10c0.5,0.2,0.2,2.1-1,7.4l-1.7,7.2l-3.5-0.4
			c-12.6-1.6-23.1,1.7-32.4,10l-2.7,2.4L26,5042.8z"/>
		<linearGradient id="SVGID_4_" gradientUnits="userSpaceOnUse" x1="-18.9767" y1="5042.6113" x2="-6.424" y2="5027.0981">
			<stop  offset="0" style="stop-color:#8DC63F"/>
			<stop  offset="1" style="stop-color:#2BB673"/>
		</linearGradient>
		<path fill="url(#SVGID_4_)" d="M18.8,4991.5l-14.9-14.3l8.3-0.3l8.3-0.3l1.4-5.6c4.8-19,17.5-31.8,37.7-38.1
			c2.7-0.8,5.8-1.7,6.8-1.9l1.8-0.3l-1.6,1.2c-3.6,2.6-8.9,8.3-11.5,12.2c-5,7.6-7.8,16.5-8.5,27.3l-0.3,5.5l8.8,0.1l8.8,0.2
			L49,4991.5c-8.2,7.8-15,14.3-15.1,14.3C33.8,5005.8,27,4999.4,18.8,4991.5z"/>
		<linearGradient id="SVGID_5_" gradientUnits="userSpaceOnUse" x1="27.4502" y1="5080.1782" x2="40.0029" y2="5064.665">
			<stop  offset="0" style="stop-color:#8DC63F"/>
			<stop  offset="1" style="stop-color:#2BB673"/>
		</linearGradient>
		<path fill="url(#SVGID_5_)" d="M77.3,4998c-2.6-1.7-6.2-4.3-8.1-5.8l-3.3-2.8l9-9c4.9-4.9,9-9.2,9-9.4c0-0.2-6.3-0.4-14.1-0.4
			H55.6l0.5-3.3c0.6-4.7,2.8-11.6,5-15.6c3.8-7,7.5-10.8,17.7-18l4.1-2.9h55h55v4.4c-0.1,27.5-10.9,48.6-32.1,62.6l-5.1,3.4
			l-4.2-3.6c-6.7-5.8-13.6-9.4-21.9-11.5c-5.6-1.4-17-1.2-22.8,0.3c-8.2,2.2-16.8,7-22,12.4c-1.3,1.3-2.5,2.4-2.6,2.4
			S79.8,4999.7,77.3,4998z"/>
	</g>
</g>
</svg>
