<?xml version="1.0" encoding="utf-8"?>
<!-- Generator: Adobe Illustrator 18.0.0, SVG Export Plug-In . SVG Version: 6.00 Build 0)  -->
<!DOCTYPE svg PUBLIC "-//W3C//DTD SVG 1.1//EN" "http://www.w3.org/Graphics/SVG/1.1/DTD/svg11.dtd">
<svg version="1.1" id="Layer_1" xmlns="http://www.w3.org/2000/svg" xmlns:xlink="http://www.w3.org/1999/xlink" x="0px" y="0px"
	 viewBox="0 0 24.1 24.1" enable-background="new 0 0 24.1 24.1" xml:space="preserve">
<g>
	<linearGradient id="SVGID_1_" gradientUnits="userSpaceOnUse" x1="1" y1="4.3153" x2="22.8034" y2="24.6075">
		<stop  offset="0" style="stop-color:#8DC63F"/>
		<stop  offset="1" style="stop-color:#2BB673"/>
	</linearGradient>
	<path fill="url(#SVGID_1_)" d="M22,6.3v-1c0-1.2-0.9-2.1-2.1-2.1h-0.9l0.4,1h0.5c0.6,0,1,0.5,1,1v1h-0.8h-8.7H4.2H2.1
		c-0.6,0-1-0.5-1-1s0.5-1,1-1H4l2.5-1H2.1C0.9,3.1,0,4.1,0,5.2V22c0,1.2,0.9,2.1,2.1,2.1H22c1.2,0,2.1-0.9,2.1-2.1v-4.2h-6.3
		c-1.2,0-2.1-0.9-2.1-2.1v-1c0-1.2,0.9-2.1,2.1-2.1h6.3V8.4C24.1,7.2,23.2,6.3,22,6.3z"/>
	<linearGradient id="SVGID_2_" gradientUnits="userSpaceOnUse" x1="3.6224" y1="1.4975" x2="25.4258" y2="21.7898">
		<stop  offset="0" style="stop-color:#8DC63F"/>
		<stop  offset="1" style="stop-color:#2BB673"/>
	</linearGradient>
	<path fill="url(#SVGID_2_)" d="M19.9,15.2c0,0.9-0.7,1.6-1.6,1.6c-0.9,0-1.6-0.7-1.6-1.6c0-0.9,0.7-1.6,1.6-1.6
		C19.2,13.6,19.9,14.3,19.9,15.2z"/>
	<linearGradient id="SVGID_3_" gradientUnits="userSpaceOnUse" x1="6.2476" y1="-1.3231" x2="28.051" y2="18.9691">
		<stop  offset="0" style="stop-color:#8DC63F"/>
		<stop  offset="1" style="stop-color:#2BB673"/>
	</linearGradient>
	<polygon fill="url(#SVGID_3_)" points="18.7,5.2 16.8,0 4.2,5.2 	"/>
</g>
</svg>
