<?xml version="1.0" encoding="utf-8"?>
<!-- Generator: Adobe Illustrator 18.0.0, SVG Export Plug-In . SVG Version: 6.00 Build 0)  -->
<!DOCTYPE svg PUBLIC "-//W3C//DTD SVG 1.1//EN" "http://www.w3.org/Graphics/SVG/1.1/DTD/svg11.dtd">
<svg version="1.1" id="Layer_1" xmlns="http://www.w3.org/2000/svg" xmlns:xlink="http://www.w3.org/1999/xlink" x="0px" y="0px"
	 viewBox="0 0 19.3 25.7" enable-background="new 0 0 19.3 25.7" xml:space="preserve">
<g>
	<linearGradient id="SVGID_1_" gradientUnits="userSpaceOnUse" x1="8.4575" y1="6.1438" x2="8.9746" y2="7.2224">
		<stop  offset="0" style="stop-color:#8DC63F"/>
		<stop  offset="1" style="stop-color:#2BB673"/>
	</linearGradient>
	<polygon fill="url(#SVGID_1_)" points="8.2,6.3 8.2,6.9 9.4,6.9 9.1,6.3 	"/>
	<linearGradient id="SVGID_2_" gradientUnits="userSpaceOnUse" x1="8.0476" y1="4.7761" x2="8.5764" y2="5.8791">
		<stop  offset="0" style="stop-color:#8DC63F"/>
		<stop  offset="1" style="stop-color:#2BB673"/>
	</linearGradient>
	<path fill="url(#SVGID_2_)" d="M8.8,5.7C8.7,5.6,8.6,5.4,8.5,5.3C8.4,5.1,8.3,4.9,8.2,4.7h0c0,0.2,0,0.4,0,0.7c0,0.1,0,0.2,0,0.4
		H8.8z"/>
	<linearGradient id="SVGID_3_" gradientUnits="userSpaceOnUse" x1="10.3159" y1="6.009" x2="10.8398" y2="7.1018">
		<stop  offset="0" style="stop-color:#8DC63F"/>
		<stop  offset="1" style="stop-color:#2BB673"/>
	</linearGradient>
	<path fill="url(#SVGID_3_)" d="M11.1,6.3H9.8l0.3,0.6c0,0,0,0.1,0.1,0.1h0.9V6.3z"/>
	<linearGradient id="SVGID_4_" gradientUnits="userSpaceOnUse" x1="4.1586" y1="1.6884" x2="15.8034" y2="25.9762">
		<stop  offset="0" style="stop-color:#8DC63F"/>
		<stop  offset="1" style="stop-color:#2BB673"/>
	</linearGradient>
	<path fill="url(#SVGID_4_)" d="M19.2,14.9c0-0.1-0.1-0.3-0.2-0.3c-0.1-0.1-0.2-0.2-0.3-0.2c-0.3-0.1-0.7-0.1-1-0.1
		c-0.9,0-1.8,0.3-2.5,0.7c-1.1,0.7-1.9,1.8-2.1,3c-0.1,0.5-0.1,1.1-0.1,1.6c-0.1,0.1-0.3,0.2-0.4,0.4c-0.2,0.2-0.5,0.4-0.7,0.6
		l-1.1,1l-0.3,0.3v-1v-3.4v-3c0-0.2,0-0.3,0-0.5c0-0.1,0-0.2,0-0.3c0.2,0,0.4-0.1,0.7-0.1c1.3-0.3,2.6-1,3.6-2c1-1,1.6-2.3,1.8-3.7
		c0.1-0.4,0.1-0.7,0.1-1.1l0,0c0,0,0,0,0,0c0-1.4-0.5-2.8-1.3-4c-0.8-1.2-2-2-3.3-2.5C11.3,0.1,10.5,0,9.7,0C9,0,8.4,0.1,7.8,0.3
		C6.5,0.6,5.2,1.4,4.4,2.5C3.4,3.6,2.9,5,2.8,6.4c-0.1,1.4,0.2,2.9,1,4.1c0.7,1.2,1.8,2.1,3,2.7c0.7,0.3,1.4,0.5,2.1,0.6v0.5v2.9
		v2.6c0,0-0.1-0.1-0.1-0.1l-1.1-1l-1.1-1c-0.1-0.1-0.1-0.1-0.2-0.2c0.1-1.1-0.1-2.2-0.7-3.1c-0.7-1.1-1.8-1.9-3-2.1
		c-0.3-0.1-0.7-0.1-1-0.1c-0.3,0-0.7,0-1,0.1c-0.1,0-0.2,0.1-0.3,0.2c-0.1,0.1-0.2,0.2-0.2,0.4c-0.3,1.2,0,2.5,0.6,3.6
		c0.7,1.1,1.8,1.9,3,2.1c0.3,0.1,0.7,0.1,1,0.1c0.2,0,0.4,0,0.6,0c0.1,0.1,0.3,0.2,0.4,0.4c0.2,0.2,0.4,0.4,0.7,0.6l1.1,0.9
		c0.4,0.3,0.7,0.7,1.1,1c0.1,0.1,0.2,0.2,0.3,0.2v1.8c0,0.2,0,0.3,0,0.5c0,0.1,0,0.2,0,0.3H6.5h-1c-0.4,0-0.7,0.3-0.7,0.7
		c0,0.4,0.3,0.7,0.7,0.7h2.8h4.5h1c0.4,0,0.7-0.3,0.7-0.7c0-0.4-0.3-0.7-0.7-0.7h-2.8h-0.5v-0.4c0.1-0.1,0.3-0.3,0.4-0.4
		c0.2-0.2,0.5-0.4,0.7-0.6l1.1-1l1.1-1c0.1-0.1,0.1-0.1,0.2-0.2c0.2,0,0.4,0,0.6,0c0.9,0,1.8-0.3,2.5-0.7c1.1-0.7,1.9-1.8,2.1-3
		C19.4,16.3,19.4,15.6,19.2,14.9z M9.7,7.5H8.2v1.9c0,0,0,0,0,0.1c0,0,0,0-0.1,0c0,0-0.1,0-0.1,0c0,0-0.1,0-0.2,0
		c-0.1,0-0.1,0-0.2,0c0,0-0.1,0-0.1,0c0,0,0,0-0.1,0c0,0,0,0,0-0.1V7.5H7.1c0,0-0.1,0-0.1-0.1c0,0,0-0.1,0-0.2c0-0.1,0-0.2,0-0.2
		C7,7,7,6.9,7.1,6.9h0.5V6.3H7.1c0,0-0.1,0-0.1-0.1c0,0,0-0.1,0-0.2c0-0.1,0-0.2,0-0.2c0,0,0.1-0.1,0.1-0.1h0.5V4.2
		c0-0.1,0-0.2,0.1-0.2c0.1,0,0.1-0.1,0.2-0.1h0.3c0.1,0,0.2,0,0.2,0C8.4,4,8.5,4,8.5,4c0,0,0.1,0.1,0.1,0.1c0,0.1,0.1,0.1,0.1,0.2
		l0.7,1.4h1.5V4c0,0,0,0,0-0.1c0,0,0,0,0.1,0s0.1,0,0.1,0c0,0,0.1,0,0.2,0c0.1,0,0.1,0,0.2,0s0.1,0,0.1,0s0,0,0.1,0c0,0,0,0,0,0.1
		v1.7h0.5c0,0,0.1,0,0.1,0.1s0,0.1,0,0.2c0,0.1,0,0.2,0,0.2s-0.1,0.1-0.1,0.1h-0.5v0.7h0.5c0,0,0.1,0,0.1,0.1s0,0.1,0,0.2
		c0,0.1,0,0.2,0,0.2c0,0-0.1,0.1-0.1,0.1h-0.5v1.8c0,0.1,0,0.1,0,0.1s0,0.1-0.1,0.1c0,0-0.1,0-0.1,0.1c0,0-0.1,0-0.1,0h-0.2
		c-0.1,0-0.1,0-0.2,0c-0.1,0-0.1,0-0.2-0.1c-0.1,0-0.1-0.1-0.2-0.2c-0.1-0.1-0.1-0.2-0.2-0.3L9.7,7.5z"/>
	<linearGradient id="SVGID_5_" gradientUnits="userSpaceOnUse" x1="10.7117" y1="7.3476" x2="11.2723" y2="8.5167">
		<stop  offset="0" style="stop-color:#8DC63F"/>
		<stop  offset="1" style="stop-color:#2BB673"/>
	</linearGradient>
	<path fill="url(#SVGID_5_)" d="M10.8,8.1c0.1,0.1,0.2,0.3,0.2,0.4h0c0-0.2,0-0.5,0-0.7c0-0.1,0-0.2,0-0.4h-0.6
		c0,0.1,0.1,0.2,0.1,0.2C10.7,7.8,10.8,8,10.8,8.1z"/>
</g>
</svg>
