<?xml version="1.0" encoding="utf-8"?>
<!-- Generator: Adobe Illustrator 18.0.0, SVG Export Plug-In . SVG Version: 6.00 Build 0)  -->
<!DOCTYPE svg PUBLIC "-//W3C//DTD SVG 1.1//EN" "http://www.w3.org/Graphics/SVG/1.1/DTD/svg11.dtd">
<svg version="1.1" id="Layer_1" xmlns="http://www.w3.org/2000/svg" xmlns:xlink="http://www.w3.org/1999/xlink" x="0px" y="0px"
	 viewBox="0 0 15.9 15.9" enable-background="new 0 0 15.9 15.9" xml:space="preserve">
<path fill="#3B5998" d="M15,15.9H0.9C0.4,15.9,0,15.5,0,15V0.9C0,0.4,0.4,0,0.9,0H15c0.4,0,0.9,0.4,0.9,0.9V15
	C15.9,15.6,15.6,15.9,15,15.9L15,15.9z M11,15.9V9.8H13l0.3-2.4H11V5.8c0-0.7,0.2-1.2,1.2-1.2h1.3V2.4c-0.7-0.1-1.2-0.1-1.9-0.1
	c-1.9,0-3.1,1.1-3.1,3.2v1.8H6.5v2.4h2.1v6.1H11V15.9z"/>
</svg>
