<?xml version="1.0" encoding="utf-8"?>
<!-- Generator: Adobe Illustrator 18.0.0, SVG Export Plug-In . SVG Version: 6.00 Build 0)  -->
<!DOCTYPE svg PUBLIC "-//W3C//DTD SVG 1.1//EN" "http://www.w3.org/Graphics/SVG/1.1/DTD/svg11.dtd">
<svg version="1.1" id="Layer_1" xmlns="http://www.w3.org/2000/svg" xmlns:xlink="http://www.w3.org/1999/xlink" x="0px" y="0px"
	 viewBox="0 0 23.1 23.1" enable-background="new 0 0 23.1 23.1" xml:space="preserve">
<g>
	<g>
		<path fill="#FFFFFF" d="M19.7,3.4c-1.1-1.1-2.3-1.9-3.7-2.5C14.6,0.3,13.1,0,11.6,0S8.5,0.3,7.1,0.9C5.7,1.5,4.5,2.3,3.4,3.4
			S1.5,5.7,0.9,7.1C0.3,8.5,0,10,0,11.6s0.3,3.1,0.9,4.5c0.6,1.4,1.4,2.6,2.5,3.7c1.1,1.1,2.3,1.9,3.7,2.5c1.3,0.5,2.6,0.8,4,0.9
			c0,0,0.1,0,0.1,0c0,0,0,0,0.1,0c0.1,0,0.2,0,0.3,0c1.6,0,3.1-0.3,4.5-0.9c1.4-0.6,2.6-1.4,3.7-2.5c1.1-1.1,1.9-2.3,2.5-3.7
			c0.3-0.7,0.5-1.4,0.7-2.1c0,0,0-0.1,0-0.1c0.2-0.8,0.2-1.5,0.2-2.3c0-1.6-0.3-3.1-0.9-4.5C21.6,5.7,20.8,4.5,19.7,3.4z M1.1,14.3
			c3.6,1.7,6.9,4.5,9.2,8C5.9,21.8,2.3,18.6,1.1,14.3z M11.6,22.4c-0.1,0-0.1,0-0.2,0c-2.6-4-6.4-7.2-10.4-9c0-0.2-0.1-0.5-0.1-0.7
			h0.4c5.4,0,11.3,3.2,15.4,8.5C15.1,21.9,13.4,22.4,11.6,22.4z M17.3,20.7c-2-2.5-4.4-4.7-7.1-6.2c-1.4-0.8-2.7-1.4-4.1-1.8h2.2
			c4.1,0,8.4,1.8,12.1,5C19.6,18.9,18.6,19.9,17.3,20.7z M5.8,9.9c-1.2,0-2.1-1-2.1-2.1c0-1.2,1-2.1,2.1-2.1c1.2,0,2.1,1,2.1,2.1
			C7.9,9,6.9,9.9,5.8,9.9z M20.9,17c-1.8-1.5-3.7-2.8-5.7-3.6c-0.6-0.3-1.3-0.5-1.9-0.7h2.2c2.2,0,4.4,0.5,6.6,1.5
			C21.8,15.1,21.4,16.1,20.9,17z M22.2,13.3c-2.3-1-4.5-1.5-6.8-1.5h-1.3v-1.7c1.8-0.2,3.3-1.7,3.3-3.6c0-2-1.6-3.6-3.6-3.6
			s-3.6,1.6-3.6,3.6c0,1.9,1.4,3.4,3.3,3.6v1.7H6.2v-1.1c1.4-0.2,2.5-1.4,2.5-2.9c0-1.6-1.3-2.9-2.9-2.9c-1.6,0-2.9,1.3-2.9,2.9
			c0,1.5,1.1,2.7,2.5,2.9v1.1H0.8c0-0.1,0-0.2,0-0.3c0-5.9,4.8-10.8,10.8-10.8c5.9,0,10.8,4.8,10.8,10.8
			C22.4,12.2,22.3,12.7,22.2,13.3z M13.8,9.4c-1.6,0-2.9-1.3-2.9-2.9s1.3-2.9,2.9-2.9s2.9,1.3,2.9,2.9C16.6,8.1,15.3,9.4,13.8,9.4z"
			/>
		<path fill="#FFFFFF" d="M5.8,6.5c-0.2,0-0.4,0.2-0.4,0.4c0,0.2,0.2,0.4,0.4,0.4c0.3,0,0.6,0.3,0.6,0.6c0,0.2,0.2,0.4,0.4,0.4
			S7.1,8,7.1,7.8C7.1,7.1,6.5,6.5,5.8,6.5z"/>
		<path fill="#FFFFFF" d="M13.8,4.5c-0.2,0-0.4,0.2-0.4,0.4c0,0.2,0.2,0.4,0.4,0.4c0.7,0,1.3,0.6,1.3,1.3c0,0.2,0.2,0.4,0.4,0.4
			c0.2,0,0.4-0.2,0.4-0.4C15.8,5.4,14.9,4.5,13.8,4.5z"/>
	</g>
</g>
</svg>
