<?xml version="1.0" encoding="utf-8"?>
<!-- Generator: Adobe Illustrator 18.0.0, SVG Export Plug-In . SVG Version: 6.00 Build 0)  -->
<!DOCTYPE svg PUBLIC "-//W3C//DTD SVG 1.1//EN" "http://www.w3.org/Graphics/SVG/1.1/DTD/svg11.dtd">
<svg version="1.1" id="Layer_1" xmlns="http://www.w3.org/2000/svg" xmlns:xlink="http://www.w3.org/1999/xlink" x="0px" y="0px"
	 viewBox="0 0 160.8 45.7" enable-background="new 0 0 160.8 45.7" xml:space="preserve">
<g>
	<g>
		<path fill="#FFFFFF" d="M51.6,18h-1.9v13h-4.3V12.3c-0.2-3.3,1.8-4.6,5-4.6c0.7,0,2.8,0,3.4,0.1v1.1c0,1.4-1.1,2.5-2.5,2.5h0
			c-1,0-1.6,0.4-1.7,1.3v1.1h4.1v2.1C53.7,17.1,52.8,18,51.6,18z"/>
		<path fill="#FFFFFF" d="M58.1,18.3h-4.3c0.5-3.2,2.8-4.8,6.7-4.8c4.8,0,7.2,1.6,7.3,4.8v5.9c0,4.8-2.9,6.9-7.5,7.2
			c-4.1,0.3-7-1.6-7-5.4c0.1-4.1,3.1-5.2,7.5-5.7c1.9-0.2,2.8-0.8,2.8-1.7c-0.1-1-1-1.5-2.8-1.5C59.2,17.1,58.3,17.5,58.1,18.3z
			 M63.6,23.9v-1.6c-1,0.4-2.2,0.8-3.5,1c-1.7,0.3-2.6,1.1-2.6,2.4c0.1,1.4,0.8,2,2.2,2C62.1,27.8,63.6,26.4,63.6,23.9z"/>
		<path fill="#FFFFFF" d="M79.6,13.8h-2c-5.8,0-8.7,2.8-8.9,8.3V31H71c1.2,0,2.1-1,2.1-2.1v0v-6.8c0-2.5,1.2-3.8,3.6-3.8
			C77.2,16.3,78.1,14.8,79.6,13.8z"/>
		<path fill="#FFFFFF" d="M82.1,20v8.9v0c0,1.2-1,2.1-2.1,2.1h-2.3V20.9c0-4.1,3.3-7.4,7.4-7.4c2.2,0,3.9,0.5,5.1,1.5
			c1.2-0.9,2.9-1.4,5.2-1.4c4.9,0,7.4,2.4,7.3,7.4v10.1h-2.2c-1.4-0.1-2.2-0.8-2.2-2.2v-8.9c-0.1-1.8-1.1-2.7-3-2.7
			s-2.9,0.9-2.9,2.7v11H88V20c-0.1-1.8-1.1-2.7-3-2.7S82.1,18.2,82.1,20z"/>
		<path fill="#FFFFFF" d="M108.6,18H108v10.9v0c0,1.2-0.9,2.1-2.1,2.1h-2.2V13.3c-0.2-3.3,1.8-4.6,5-4.6c0.7,0,1.4,0,2.1,0.1v3.6
			h-1.1c-1,0-1.6,0.4-1.7,1.3v1.1h2.8v1C110.8,17.1,109.8,18,108.6,18z"/>
		<path fill="#FFFFFF" d="M126.2,22.5c0,5.9-2.6,8.9-7.9,8.9s-7.8-3-7.8-8.9c0-6,2.6-9,7.8-9S126.2,16.5,126.2,22.5z M114.9,22.5
			c0,3.4,1.2,5.1,3.4,5.1c2.2,0,3.3-1.8,3.4-5.2c0-3.4-1.1-5-3.3-5C116,17.3,114.9,19.1,114.9,22.5z"/>
		<path fill="#FFFFFF" d="M127.1,22.1c0.1-5.6,3.1-8.3,8.9-8.3h0.6v4.5h-1.5c-2.4,0-3.6,1.3-3.6,3.8v6.8v0c0,1.2-1,2.1-2.1,2.1h-2.3
			V22.1z"/>
		<path fill="#FFFFFF" d="M153.1,31.4c-5.2-0.2-7.8-3.2-7.8-9.1s2.6-8.8,7.9-8.8c4.4,0,6.9,2.1,7.6,6.4c0.3,1.9-1.2,3.7-3.1,3.7
			h-7.8c0.2,2.6,1.3,4,3.4,4c1,0,2-0.4,2.8-1.2c0.4-0.4,0.9-0.6,1.5-0.6h3.2C159.7,29.4,157.3,31.4,153.1,31.4z M149.8,20.5h6.5
			c-0.3-2.3-1.3-3.5-3.2-3.5S150.1,18.2,149.8,20.5z"/>
		<path fill="#FFFFFF" d="M143.2,18.3c1.2,0,2.2-0.9,2.2-2.2v-2.3h-3.5V11c0-1.2-1-2.2-2.2-2.2h-2.2v18.4c0,4.5,4.6,3.7,4.6,3.7
			l1.1,0c1.2,0,2.2-0.9,2.2-2.2v-2.3h-3c-0.3,0-0.5-0.2-0.5-0.5v-7.7H143.2z"/>
	</g>
	<g>
		<path fill="#FFFFFF" d="M55.4,39h0.9l2.2,5h-1.2l-0.4-1.1h-1.9L54.4,44h-1.2L55.4,39z M55.8,40.5L55.2,42h1.2L55.8,40.5z"/>
		<path fill="#FFFFFF" d="M62.4,44h-1v-0.5h0c0,0.1-0.1,0.1-0.2,0.2c-0.1,0.1-0.1,0.1-0.2,0.2S60.8,44,60.7,44c-0.1,0-0.2,0-0.3,0
			c-0.3,0-0.5,0-0.7-0.1c-0.2-0.1-0.4-0.2-0.5-0.4c-0.1-0.2-0.3-0.3-0.3-0.6c-0.1-0.2-0.1-0.5-0.1-0.7c0-0.2,0-0.5,0.1-0.7
			c0.1-0.2,0.2-0.4,0.3-0.6c0.1-0.2,0.3-0.3,0.5-0.4c0.2-0.1,0.4-0.2,0.7-0.2c0.2,0,0.4,0,0.6,0.1c0.2,0.1,0.3,0.2,0.5,0.3h0v-2.3
			h1.1V44z M61.4,42.3c0-0.3-0.1-0.5-0.2-0.6c-0.1-0.2-0.4-0.2-0.6-0.2c-0.3,0-0.5,0.1-0.6,0.2c-0.1,0.2-0.2,0.4-0.2,0.6
			s0.1,0.5,0.2,0.6c0.1,0.2,0.4,0.2,0.6,0.2c0.3,0,0.5-0.1,0.6-0.2C61.4,42.8,61.4,42.5,61.4,42.3z"/>
		<path fill="#FFFFFF" d="M66.9,44h-1v-0.5h0c0,0.1-0.1,0.1-0.2,0.2c-0.1,0.1-0.1,0.1-0.2,0.2S65.3,44,65.2,44c-0.1,0-0.2,0-0.3,0
			c-0.3,0-0.5,0-0.7-0.1c-0.2-0.1-0.4-0.2-0.5-0.4c-0.1-0.2-0.3-0.3-0.3-0.6c-0.1-0.2-0.1-0.5-0.1-0.7c0-0.2,0-0.5,0.1-0.7
			c0.1-0.2,0.2-0.4,0.3-0.6c0.1-0.2,0.3-0.3,0.5-0.4c0.2-0.1,0.4-0.2,0.7-0.2c0.2,0,0.4,0,0.6,0.1c0.2,0.1,0.3,0.2,0.5,0.3h0v-2.3
			h1.1V44z M65.9,42.3c0-0.3-0.1-0.5-0.2-0.6c-0.1-0.2-0.4-0.2-0.6-0.2s-0.5,0.1-0.6,0.2c-0.1,0.2-0.2,0.4-0.2,0.6s0.1,0.5,0.2,0.6
			c0.1,0.2,0.4,0.2,0.6,0.2s0.5-0.1,0.6-0.2C65.8,42.8,65.9,42.5,65.9,42.3z"/>
		<path fill="#FFFFFF" d="M67.6,39.5c0-0.2,0.1-0.3,0.2-0.4s0.3-0.2,0.4-0.2s0.3,0.1,0.4,0.2c0.1,0.1,0.2,0.3,0.2,0.4
			s-0.1,0.3-0.2,0.4c-0.1,0.1-0.3,0.2-0.4,0.2s-0.3-0.1-0.4-0.2C67.7,39.8,67.6,39.7,67.6,39.5z M67.7,40.6h1.1V44h-1.1V40.6z"/>
		<path fill="#FFFFFF" d="M69.5,40.6h1V41h0c0-0.1,0.1-0.1,0.1-0.2c0.1-0.1,0.1-0.1,0.2-0.2c0.1-0.1,0.2-0.1,0.3-0.1
			c0.1,0,0.2,0,0.4,0c0.3,0,0.5,0,0.6,0.1c0.2,0.1,0.3,0.2,0.4,0.3c0.1,0.1,0.2,0.3,0.2,0.5c0,0.2,0,0.4,0,0.6V44h-1.1v-1.7
			c0-0.1,0-0.2,0-0.3c0-0.1,0-0.2-0.1-0.3c0-0.1-0.1-0.2-0.2-0.2c-0.1-0.1-0.2-0.1-0.3-0.1c-0.1,0-0.2,0-0.3,0.1s-0.1,0.1-0.2,0.2
			c0,0.1-0.1,0.2-0.1,0.3c0,0.1,0,0.2,0,0.3V44h-1.1V40.6z"/>
		<path fill="#FFFFFF" d="M77.2,43.7c0,0.6-0.2,1.1-0.5,1.5c-0.3,0.3-0.8,0.5-1.5,0.5c-0.3,0-0.6,0-0.9-0.1
			c-0.3-0.1-0.6-0.2-0.8-0.4l0.6-0.9c0.2,0.1,0.3,0.2,0.5,0.3c0.2,0.1,0.4,0.1,0.6,0.1c0.3,0,0.6-0.1,0.7-0.2
			c0.2-0.2,0.2-0.4,0.2-0.6v-0.3h0c-0.1,0.2-0.3,0.3-0.5,0.3C75.5,44,75.3,44,75.1,44c-0.3,0-0.5,0-0.7-0.1
			c-0.2-0.1-0.4-0.2-0.5-0.4c-0.1-0.2-0.3-0.3-0.3-0.6c-0.1-0.2-0.1-0.5-0.1-0.7c0-0.2,0-0.4,0.1-0.7c0.1-0.2,0.2-0.4,0.3-0.6
			c0.1-0.2,0.3-0.3,0.5-0.4c0.2-0.1,0.4-0.2,0.7-0.2c0.2,0,0.3,0,0.4,0c0.1,0,0.2,0.1,0.3,0.1c0.1,0.1,0.2,0.1,0.3,0.2
			c0.1,0.1,0.1,0.1,0.2,0.2h0v-0.5h1V43.7z M74.5,42.3c0,0.1,0,0.2,0.1,0.3c0,0.1,0.1,0.2,0.2,0.3c0.1,0.1,0.2,0.1,0.3,0.2
			c0.1,0,0.2,0.1,0.3,0.1c0.1,0,0.2,0,0.3-0.1c0.1,0,0.2-0.1,0.3-0.2c0.1-0.1,0.1-0.2,0.2-0.3c0-0.1,0.1-0.2,0.1-0.3
			c0-0.1,0-0.2-0.1-0.3c0-0.1-0.1-0.2-0.2-0.3c-0.1-0.1-0.2-0.1-0.3-0.2c-0.1,0-0.2-0.1-0.3-0.1c-0.1,0-0.2,0-0.3,0.1
			c-0.1,0-0.2,0.1-0.3,0.2c-0.1,0.1-0.1,0.2-0.2,0.3C74.5,42,74.5,42.2,74.5,42.3z"/>
		<path fill="#FFFFFF" d="M79.8,40.6h1.1l0.9,2.3h0l0.8-2.3h1.1L82.3,44h-1.1L79.8,40.6z"/>
		<path fill="#FFFFFF" d="M86.2,43.6L86.2,43.6c-0.1,0.2-0.3,0.3-0.5,0.4c-0.2,0.1-0.4,0.1-0.6,0.1c-0.2,0-0.3,0-0.5-0.1
			c-0.1,0-0.3-0.1-0.4-0.2c-0.1-0.1-0.2-0.2-0.3-0.3c-0.1-0.1-0.1-0.3-0.1-0.5c0-0.2,0-0.4,0.1-0.5c0.1-0.1,0.2-0.2,0.3-0.3
			c0.1-0.1,0.3-0.2,0.4-0.2s0.3-0.1,0.5-0.1c0.2,0,0.3,0,0.5,0c0.2,0,0.3,0,0.5,0c0-0.2-0.1-0.3-0.2-0.4c-0.1-0.1-0.3-0.2-0.5-0.2
			c-0.2,0-0.3,0-0.5,0.1c-0.1,0.1-0.3,0.2-0.4,0.3L84.1,41c0.2-0.2,0.4-0.3,0.7-0.4c0.3-0.1,0.5-0.1,0.8-0.1c0.3,0,0.6,0,0.8,0.1
			c0.2,0.1,0.4,0.2,0.5,0.3c0.1,0.2,0.2,0.3,0.3,0.6c0,0.2,0.1,0.5,0.1,0.8V44h-1V43.6z M85.9,42.5c-0.1,0-0.2,0-0.3,0
			s-0.2,0-0.3,0.1c-0.1,0-0.2,0.1-0.3,0.1c-0.1,0.1-0.1,0.2-0.1,0.3c0,0.1,0.1,0.2,0.2,0.3c0.1,0.1,0.2,0.1,0.3,0.1
			c0.1,0,0.2,0,0.3,0c0.1,0,0.2-0.1,0.3-0.1c0.1-0.1,0.1-0.1,0.2-0.2c0-0.1,0.1-0.2,0.1-0.3v-0.2H85.9z"/>
		<path fill="#FFFFFF" d="M87.8,38.7h1.1V44h-1.1V38.7z"/>
		<path fill="#FFFFFF" d="M93,44h-1v-0.5h0c0,0.1-0.1,0.1-0.1,0.2c-0.1,0.1-0.1,0.1-0.2,0.2C91.5,44,91.4,44,91.3,44s-0.2,0-0.4,0
			c-0.3,0-0.5,0-0.7-0.1c-0.2-0.1-0.3-0.2-0.4-0.3c-0.1-0.1-0.2-0.3-0.2-0.5c0-0.2,0-0.4,0-0.6v-1.9h1.1v1.7c0,0.1,0,0.2,0,0.3
			c0,0.1,0,0.2,0.1,0.3c0,0.1,0.1,0.2,0.2,0.2c0.1,0.1,0.2,0.1,0.3,0.1c0.1,0,0.2,0,0.3-0.1s0.1-0.1,0.2-0.2c0-0.1,0.1-0.2,0.1-0.3
			c0-0.1,0-0.2,0-0.3v-1.7H93V44z"/>
		<path fill="#FFFFFF" d="M96.9,43.4c-0.2,0.2-0.4,0.4-0.6,0.5s-0.5,0.2-0.8,0.2c-0.3,0-0.5,0-0.7-0.1c-0.2-0.1-0.4-0.2-0.6-0.4
			c-0.2-0.2-0.3-0.3-0.4-0.6c-0.1-0.2-0.1-0.5-0.1-0.7c0-0.3,0-0.5,0.1-0.7c0.1-0.2,0.2-0.4,0.4-0.6c0.2-0.2,0.4-0.3,0.6-0.4
			c0.2-0.1,0.5-0.1,0.7-0.1c0.2,0,0.5,0,0.7,0.1c0.2,0.1,0.4,0.2,0.5,0.4c0.1,0.2,0.2,0.3,0.3,0.6c0.1,0.2,0.1,0.5,0.1,0.7v0.3h-2.5
			c0,0.2,0.1,0.4,0.3,0.5c0.1,0.1,0.3,0.2,0.5,0.2c0.2,0,0.3,0,0.4-0.1c0.1-0.1,0.2-0.2,0.3-0.3L96.9,43.4z M96,41.9
			c0-0.2-0.1-0.3-0.2-0.5c-0.1-0.1-0.3-0.2-0.5-0.2c-0.1,0-0.2,0-0.3,0.1c-0.1,0-0.2,0.1-0.2,0.1c-0.1,0.1-0.1,0.1-0.1,0.2
			c0,0.1-0.1,0.2-0.1,0.2H96z"/>
		<path fill="#FFFFFF" d="M98,42.9h1l-0.6,2h-0.9L98,42.9z"/>
		<path fill="#FFFFFF" d="M104.2,41.7c-0.1-0.1-0.1-0.1-0.2-0.2s-0.2-0.1-0.3-0.1c-0.3,0-0.5,0.1-0.6,0.2c-0.1,0.2-0.2,0.4-0.2,0.6
			s0.1,0.5,0.2,0.6c0.1,0.2,0.4,0.2,0.6,0.2c0.1,0,0.2,0,0.3-0.1s0.2-0.1,0.2-0.2l0.7,0.7c-0.2,0.2-0.4,0.3-0.6,0.4
			c-0.2,0.1-0.4,0.1-0.6,0.1c-0.3,0-0.5,0-0.7-0.1c-0.2-0.1-0.4-0.2-0.6-0.4c-0.2-0.2-0.3-0.3-0.4-0.6c-0.1-0.2-0.1-0.5-0.1-0.7
			c0-0.3,0-0.5,0.1-0.7c0.1-0.2,0.2-0.4,0.4-0.6c0.2-0.2,0.4-0.3,0.6-0.4c0.2-0.1,0.5-0.1,0.7-0.1c0.2,0,0.4,0,0.6,0.1
			c0.2,0.1,0.4,0.2,0.6,0.4L104.2,41.7z"/>
		<path fill="#FFFFFF" d="M105.3,40.6h1.1v0.5h0c0.1-0.2,0.2-0.4,0.4-0.5c0.2-0.1,0.4-0.2,0.6-0.2c0.1,0,0.1,0,0.2,0
			c0.1,0,0.1,0,0.2,0v1c-0.1,0-0.1,0-0.2-0.1c-0.1,0-0.1,0-0.2,0c-0.2,0-0.4,0-0.5,0.1c-0.1,0.1-0.2,0.1-0.3,0.2
			c-0.1,0.1-0.1,0.2-0.1,0.4c0,0.1,0,0.3,0,0.5V44h-1.1V40.6z"/>
		<path fill="#FFFFFF" d="M111.3,43.4c-0.2,0.2-0.4,0.4-0.6,0.5c-0.3,0.1-0.5,0.2-0.8,0.2c-0.3,0-0.5,0-0.7-0.1
			c-0.2-0.1-0.4-0.2-0.6-0.4c-0.2-0.2-0.3-0.3-0.4-0.6c-0.1-0.2-0.1-0.5-0.1-0.7c0-0.3,0-0.5,0.1-0.7c0.1-0.2,0.2-0.4,0.4-0.6
			c0.2-0.2,0.4-0.3,0.6-0.4c0.2-0.1,0.5-0.1,0.7-0.1c0.2,0,0.5,0,0.7,0.1c0.2,0.1,0.4,0.2,0.5,0.4c0.1,0.2,0.2,0.3,0.3,0.6
			c0.1,0.2,0.1,0.5,0.1,0.7v0.3H109c0,0.2,0.1,0.4,0.3,0.5c0.1,0.1,0.3,0.2,0.5,0.2c0.2,0,0.3,0,0.4-0.1c0.1-0.1,0.2-0.2,0.3-0.3
			L111.3,43.4z M110.4,41.9c0-0.2-0.1-0.3-0.2-0.5c-0.1-0.1-0.3-0.2-0.5-0.2c-0.1,0-0.2,0-0.3,0.1c-0.1,0-0.2,0.1-0.2,0.1
			c-0.1,0.1-0.1,0.1-0.1,0.2c0,0.1-0.1,0.2-0.1,0.2H110.4z"/>
		<path fill="#FFFFFF" d="M114.3,43.6L114.3,43.6c-0.1,0.2-0.3,0.3-0.5,0.4c-0.2,0.1-0.4,0.1-0.6,0.1c-0.2,0-0.3,0-0.5-0.1
			c-0.1,0-0.3-0.1-0.4-0.2c-0.1-0.1-0.2-0.2-0.3-0.3c-0.1-0.1-0.1-0.3-0.1-0.5c0-0.2,0-0.4,0.1-0.5c0.1-0.1,0.2-0.2,0.3-0.3
			c0.1-0.1,0.3-0.2,0.4-0.2s0.3-0.1,0.5-0.1c0.2,0,0.3,0,0.5,0c0.2,0,0.3,0,0.5,0c0-0.2-0.1-0.3-0.2-0.4c-0.1-0.1-0.3-0.2-0.5-0.2
			c-0.2,0-0.3,0-0.5,0.1c-0.1,0.1-0.3,0.2-0.4,0.3l-0.6-0.6c0.2-0.2,0.4-0.3,0.7-0.4c0.3-0.1,0.5-0.1,0.8-0.1c0.3,0,0.6,0,0.8,0.1
			c0.2,0.1,0.4,0.2,0.5,0.3c0.1,0.2,0.2,0.3,0.3,0.6c0,0.2,0.1,0.5,0.1,0.8V44h-1V43.6z M114,42.5c-0.1,0-0.2,0-0.3,0
			s-0.2,0-0.3,0.1c-0.1,0-0.2,0.1-0.3,0.1c-0.1,0.1-0.1,0.2-0.1,0.3c0,0.1,0.1,0.2,0.2,0.3c0.1,0.1,0.2,0.1,0.3,0.1
			c0.1,0,0.2,0,0.3,0c0.1,0,0.2-0.1,0.3-0.1c0.1-0.1,0.1-0.1,0.2-0.2c0-0.1,0.1-0.2,0.1-0.3v-0.2H114z"/>
		<path fill="#FFFFFF" d="M118.2,41.4h-0.9v1.1c0,0.1,0,0.2,0,0.3s0,0.1,0.1,0.2c0,0.1,0.1,0.1,0.2,0.1c0.1,0,0.2,0,0.3,0
			c0.1,0,0.1,0,0.2,0c0.1,0,0.2,0,0.2-0.1V44c-0.1,0-0.2,0.1-0.4,0.1c-0.1,0-0.3,0-0.4,0c-0.2,0-0.3,0-0.5-0.1
			c-0.2,0-0.3-0.1-0.4-0.2c-0.1-0.1-0.2-0.2-0.3-0.3c-0.1-0.1-0.1-0.3-0.1-0.5v-1.6h-0.7v-0.8h0.7v-1h1.1v1h0.9V41.4z"/>
		<path fill="#FFFFFF" d="M118.7,39.5c0-0.2,0.1-0.3,0.2-0.4c0.1-0.1,0.3-0.2,0.4-0.2s0.3,0.1,0.4,0.2c0.1,0.1,0.2,0.3,0.2,0.4
			s-0.1,0.3-0.2,0.4c-0.1,0.1-0.3,0.2-0.4,0.2s-0.3-0.1-0.4-0.2C118.8,39.8,118.7,39.7,118.7,39.5z M118.8,40.6h1.1V44h-1.1V40.6z"
			/>
		<path fill="#FFFFFF" d="M120.6,40.6h1V41h0c0-0.1,0.1-0.1,0.1-0.2c0.1-0.1,0.1-0.1,0.2-0.2c0.1-0.1,0.2-0.1,0.3-0.1
			c0.1,0,0.2,0,0.4,0c0.3,0,0.5,0,0.6,0.1c0.2,0.1,0.3,0.2,0.4,0.3c0.1,0.1,0.2,0.3,0.2,0.5c0,0.2,0,0.4,0,0.6V44h-1.1v-1.7
			c0-0.1,0-0.2,0-0.3c0-0.1,0-0.2-0.1-0.3c0-0.1-0.1-0.2-0.2-0.2c-0.1-0.1-0.2-0.1-0.3-0.1c-0.1,0-0.2,0-0.3,0.1s-0.1,0.1-0.2,0.2
			c0,0.1-0.1,0.2-0.1,0.3c0,0.1,0,0.2,0,0.3V44h-1.1V40.6z"/>
		<path fill="#FFFFFF" d="M128.2,43.7c0,0.6-0.2,1.1-0.5,1.5c-0.3,0.3-0.8,0.5-1.5,0.5c-0.3,0-0.6,0-0.9-0.1
			c-0.3-0.1-0.6-0.2-0.8-0.4l0.6-0.9c0.2,0.1,0.3,0.2,0.5,0.3c0.2,0.1,0.4,0.1,0.6,0.1c0.3,0,0.6-0.1,0.7-0.2
			c0.2-0.2,0.2-0.4,0.2-0.6v-0.3h0c-0.1,0.2-0.3,0.3-0.5,0.3c-0.2,0.1-0.4,0.1-0.5,0.1c-0.3,0-0.5,0-0.7-0.1
			c-0.2-0.1-0.4-0.2-0.5-0.4c-0.1-0.2-0.3-0.3-0.3-0.6c-0.1-0.2-0.1-0.5-0.1-0.7c0-0.2,0-0.4,0.1-0.7c0.1-0.2,0.2-0.4,0.3-0.6
			c0.1-0.2,0.3-0.3,0.5-0.4c0.2-0.1,0.4-0.2,0.7-0.2c0.2,0,0.3,0,0.4,0c0.1,0,0.2,0.1,0.3,0.1c0.1,0.1,0.2,0.1,0.3,0.2
			c0.1,0.1,0.1,0.1,0.2,0.2h0v-0.5h1V43.7z M125.6,42.3c0,0.1,0,0.2,0.1,0.3c0,0.1,0.1,0.2,0.2,0.3c0.1,0.1,0.2,0.1,0.3,0.2
			c0.1,0,0.2,0.1,0.3,0.1c0.1,0,0.2,0,0.3-0.1c0.1,0,0.2-0.1,0.3-0.2c0.1-0.1,0.1-0.2,0.2-0.3c0-0.1,0.1-0.2,0.1-0.3
			c0-0.1,0-0.2-0.1-0.3c0-0.1-0.1-0.2-0.2-0.3c-0.1-0.1-0.2-0.1-0.3-0.2c-0.1,0-0.2-0.1-0.3-0.1c-0.1,0-0.2,0-0.3,0.1
			c-0.1,0-0.2,0.1-0.3,0.2c-0.1,0.1-0.1,0.2-0.2,0.3C125.6,42,125.6,42.2,125.6,42.3z"/>
		<path fill="#FFFFFF" d="M130.8,40.6h1.1l0.7,2.2h0l0.6-2.2h1.2l0.6,2.2h0l0.6-2.2h1.1l-1.2,3.4h-1l-0.7-2.3h0l-0.6,2.3H132
			L130.8,40.6z"/>
		<path fill="#FFFFFF" d="M140.3,43.4c-0.2,0.2-0.4,0.4-0.6,0.5c-0.3,0.1-0.5,0.2-0.8,0.2c-0.3,0-0.5,0-0.7-0.1
			c-0.2-0.1-0.4-0.2-0.6-0.4c-0.2-0.2-0.3-0.3-0.4-0.6c-0.1-0.2-0.1-0.5-0.1-0.7c0-0.3,0-0.5,0.1-0.7c0.1-0.2,0.2-0.4,0.4-0.6
			c0.2-0.2,0.4-0.3,0.6-0.4c0.2-0.1,0.5-0.1,0.7-0.1c0.2,0,0.5,0,0.7,0.1c0.2,0.1,0.4,0.2,0.5,0.4c0.1,0.2,0.2,0.3,0.3,0.6
			c0.1,0.2,0.1,0.5,0.1,0.7v0.3H138c0,0.2,0.1,0.4,0.3,0.5c0.1,0.1,0.3,0.2,0.5,0.2c0.2,0,0.3,0,0.4-0.1c0.1-0.1,0.2-0.2,0.3-0.3
			L140.3,43.4z M139.4,41.9c0-0.2-0.1-0.3-0.2-0.5c-0.1-0.1-0.3-0.2-0.5-0.2c-0.1,0-0.2,0-0.3,0.1c-0.1,0-0.2,0.1-0.2,0.1
			c-0.1,0.1-0.1,0.1-0.1,0.2c0,0.1-0.1,0.2-0.1,0.2H139.4z"/>
		<path fill="#FFFFFF" d="M143.2,43.6L143.2,43.6c-0.1,0.2-0.3,0.3-0.5,0.4c-0.2,0.1-0.4,0.1-0.6,0.1c-0.2,0-0.3,0-0.5-0.1
			c-0.1,0-0.3-0.1-0.4-0.2c-0.1-0.1-0.2-0.2-0.3-0.3c-0.1-0.1-0.1-0.3-0.1-0.5c0-0.2,0-0.4,0.1-0.5c0.1-0.1,0.2-0.2,0.3-0.3
			c0.1-0.1,0.3-0.2,0.4-0.2s0.3-0.1,0.5-0.1c0.2,0,0.3,0,0.5,0c0.2,0,0.3,0,0.5,0c0-0.2-0.1-0.3-0.2-0.4c-0.1-0.1-0.3-0.2-0.5-0.2
			c-0.2,0-0.3,0-0.5,0.1c-0.1,0.1-0.3,0.2-0.4,0.3l-0.6-0.6c0.2-0.2,0.4-0.3,0.7-0.4c0.3-0.1,0.5-0.1,0.8-0.1c0.3,0,0.6,0,0.8,0.1
			c0.2,0.1,0.4,0.2,0.5,0.3c0.1,0.2,0.2,0.3,0.3,0.6c0,0.2,0.1,0.5,0.1,0.8V44h-1V43.6z M143,42.5c-0.1,0-0.2,0-0.3,0
			c-0.1,0-0.2,0-0.3,0.1c-0.1,0-0.2,0.1-0.3,0.1c-0.1,0.1-0.1,0.2-0.1,0.3c0,0.1,0.1,0.2,0.2,0.3c0.1,0.1,0.2,0.1,0.3,0.1
			c0.1,0,0.2,0,0.3,0c0.1,0,0.2-0.1,0.3-0.1c0.1-0.1,0.1-0.1,0.2-0.2c0-0.1,0.1-0.2,0.1-0.3v-0.2H143z"/>
		<path fill="#FFFFFF" d="M144.9,38.7h1.1V44h-1.1V38.7z"/>
		<path fill="#FFFFFF" d="M149,41.4h-0.9v1.1c0,0.1,0,0.2,0,0.3s0,0.1,0.1,0.2c0,0.1,0.1,0.1,0.2,0.1c0.1,0,0.2,0,0.3,0
			c0.1,0,0.1,0,0.2,0c0.1,0,0.2,0,0.2-0.1V44c-0.1,0-0.2,0.1-0.4,0.1c-0.1,0-0.3,0-0.4,0c-0.2,0-0.3,0-0.5-0.1s-0.3-0.1-0.4-0.2
			c-0.1-0.1-0.2-0.2-0.3-0.3c-0.1-0.1-0.1-0.3-0.1-0.5v-1.6h-0.7v-0.8h0.7v-1h1.1v1h0.9V41.4z"/>
		<path fill="#FFFFFF" d="M150.6,38.7V41h0c0-0.1,0.1-0.1,0.1-0.2c0.1-0.1,0.1-0.1,0.2-0.2c0.1-0.1,0.2-0.1,0.3-0.1
			c0.1,0,0.2,0,0.4,0c0.3,0,0.5,0,0.6,0.1c0.2,0.1,0.3,0.2,0.4,0.3c0.1,0.1,0.2,0.3,0.2,0.5c0,0.2,0,0.4,0,0.6V44h-1.1v-1.7
			c0-0.1,0-0.2,0-0.3c0-0.1,0-0.2-0.1-0.3c0-0.1-0.1-0.2-0.2-0.2c-0.1-0.1-0.2-0.1-0.3-0.1s-0.2,0-0.3,0.1c-0.1,0-0.1,0.1-0.2,0.2
			c0,0.1-0.1,0.2-0.1,0.3c0,0.1,0,0.2,0,0.3V44h-1.1v-5.3H150.6z"/>
	</g>
	<g>
		<path fill="#F39C12" d="M29.3,20.2c-2.5-1-5.2-1.5-8-1.5c-2.8,0-5.5,0.6-8,1.5c0.8,5.5,3.8,10.4,8,13.7c3.7,2.9,8.3,4.6,13.3,4.6
			c2.8,0,5.5-0.6,8-1.5C41.5,29.3,36.3,23,29.3,20.2z"/>
		<path fill="#8DC63F" d="M21.3,0c-5,3.9-8.3,10.1-8.3,17c0,1.1,0.1,2.2,0.2,3.3c0.8,5.5,3.8,10.4,8,13.7c4.2-3.3,7.2-8.2,8-13.7
			c0.2-1.1,0.2-2.2,0.2-3.3C29.6,10.1,26.3,3.9,21.3,0z"/>
		<path fill="#2BB673" d="M21.3,18.7c-2.8,0-5.5,0.6-8,1.5C6.3,23,1.2,29.3,0,37c2.5,1,5.2,1.5,8,1.5c5,0,9.6-1.7,13.3-4.6
			c4.2-3.3,7.2-8.2,8-13.7C26.8,19.2,24.1,18.7,21.3,18.7z"/>
		<path opacity="0.2" d="M32.5,21.8c-1-0.6-2.1-1.1-3.2-1.6c-0.8,5.5-3.8,10.4-8,13.7C21.3,33.9,32.1,29.6,32.5,21.8z"/>
		<path opacity="0.1" d="M29.3,20.2c0,0-5.7-5.6-16.3-3.8c0,0.2,0,0.3,0,0.5c0,1.1,0.1,2.2,0.2,3.3c2.5-1,5.2-1.5,8-1.5
			S26.8,19.2,29.3,20.2L29.3,20.2z"/>
	</g>
</g>
</svg>
