<?xml version="1.0" encoding="utf-8"?>
<!-- Generator: Adobe Illustrator 18.0.0, SVG Export Plug-In . SVG Version: 6.00 Build 0)  -->
<!DOCTYPE svg PUBLIC "-//W3C//DTD SVG 1.1//EN" "http://www.w3.org/Graphics/SVG/1.1/DTD/svg11.dtd">
<svg version="1.1" id="Layer_1" xmlns="http://www.w3.org/2000/svg" xmlns:xlink="http://www.w3.org/1999/xlink" x="0px" y="0px"
	 viewBox="0 0 63.7 84.7" enable-background="new 0 0 63.7 84.7" xml:space="preserve">
<g>
	<linearGradient id="SVGID_1_" gradientUnits="userSpaceOnUse" x1="13.6887" y1="5.5589" x2="52.019" y2="85.505">
		<stop  offset="0" style="stop-color:#8DC63F"/>
		<stop  offset="1" style="stop-color:#2BB673"/>
	</linearGradient>
	<path fill="url(#SVGID_1_)" d="M63.3,49.2c-0.1-0.4-0.3-0.8-0.6-1.1c-0.3-0.3-0.7-0.5-1.1-0.6c-1.1-0.2-2.3-0.4-3.4-0.4
		c-3,0-5.9,0.8-8.4,2.4c-3.6,2.2-6.1,5.9-7,9.9c-0.4,1.8-0.5,3.6-0.2,5.4c-0.4,0.4-0.9,0.8-1.3,1.2c-0.7,0.7-1.5,1.3-2.2,2l-3.6,3.2
		l-1.1,1V69V57.7v-9.8c0-0.5,0-1,0-1.6c0-0.3,0-0.7,0-1c0.7-0.1,1.4-0.2,2.2-0.3c4.4-0.9,8.6-3.2,11.8-6.5c3.2-3.3,5.3-7.7,6-12.1
		c0.2-1.2,0.3-2.4,0.3-3.6h0c0,0,0,0,0,0c0-4.7-1.5-9.4-4.1-13.1C47.7,5.8,44,3,39.6,1.4C37.2,0.5,34.5,0,31.8,0
		c-2.1,0-4.2,0.3-6.2,0.8c-4.4,1.2-8.4,3.9-11.3,7.3c-3,3.7-4.8,8.1-5.2,12.9c-0.4,4.7,0.8,9.4,3.2,13.5c2.4,3.9,5.9,7.1,10,8.9
		c2.2,1,4.6,1.6,7,1.9v1.6v9.4v8.6c-0.1-0.1-0.3-0.2-0.4-0.4l-3.6-3.2l-3.6-3.2c-0.2-0.2-0.5-0.4-0.7-0.6c0.4-3.6-0.4-7.3-2.3-10.3
		c-2.2-3.6-5.9-6.1-9.9-7c-1.1-0.2-2.3-0.4-3.4-0.4c-1.1,0-2.3,0.1-3.4,0.4c-0.4,0.1-0.8,0.3-1.1,0.6c-0.4,0.3-0.6,0.8-0.7,1.2
		c-0.9,4.1-0.1,8.4,2,11.8c2.2,3.6,5.9,6.1,9.9,7c1.1,0.2,2.3,0.4,3.4,0.4c0.7,0,1.4-0.1,2.1-0.2c0.5,0.4,0.9,0.8,1.4,1.2
		c0.7,0.7,1.5,1.3,2.2,2l3.5,3.1c1.2,1.1,2.4,2.2,3.6,3.3c0.3,0.3,0.6,0.5,0.9,0.8v6c0,0.5,0,1,0,1.6c0,0.3,0,0.6,0,0.8h-8H18
		c-1.3,0-2.4,1.1-2.4,2.4s1.1,2.4,2.4,2.4h9.2h14.7h3.3c1.3,0,2.4-1.1,2.4-2.4s-1.1-2.4-2.4-2.4H36h-1.8v-1.2c0.5-0.4,1-0.9,1.5-1.3
		c0.7-0.7,1.5-1.3,2.2-2l3.6-3.2l3.6-3.2c0.2-0.2,0.5-0.4,0.7-0.7c0.7,0.1,1.4,0.1,2.1,0.1c3,0,5.9-0.8,8.4-2.4
		c3.6-2.2,6.1-5.9,7-9.9C63.8,53.8,63.8,51.5,63.3,49.2z M16.4,56.3c-0.1,0-0.3,0-0.5,0c-0.1,0-0.2,0-0.3,0c-0.3,0-0.5,0-0.8,0
		c-0.5,0-0.6-0.1-1-0.1c-1.5-0.3-2.7-0.7-4-1.5c-2.4-1.5-4.2-4-4.8-6.9c-0.1-0.4-0.2-0.8-0.2-1c0-0.5-0.1-0.9-0.1-1.2
		c0-0.3,0-0.5,0-0.8c0.1,0,0.3,0,0.5,0c0.1,0,0.2,0,0.3,0c0.3,0,0.5,0,0.8,0c0.5,0,0.6,0.1,1,0.1c1.5,0.3,2.7,0.7,4,1.5
		c2.4,1.5,4.2,4,4.8,6.9c0.1,0.4,0.2,0.8,0.2,1c0,0.5,0.1,0.9,0.1,1.2C16.4,55.8,16.4,56.1,16.4,56.3z M34,40.5
		c-0.5,0.1-1,0.1-1.4,0.1c-0.3,0-0.5,0-0.8,0c-0.7,0-1.5,0-2.2-0.1c0,0-0.1,0-0.2,0c-0.1,0-0.1,0-0.2,0c-0.1,0-0.1,0-0.2,0
		c-0.2,0-0.4-0.1-0.7-0.1c-0.6-0.1-1-0.2-1.4-0.3c-0.4-0.1-0.9-0.3-1.4-0.4c-0.1,0-0.2-0.1-0.3-0.1c-0.1,0-0.2-0.1-0.3-0.1
		c0,0,0,0-0.1,0l-0.2-0.1c-0.1,0-0.1-0.1-0.2-0.1c-0.8-0.4-1.7-0.9-2.4-1.4c-0.2-0.1-0.4-0.3-0.6-0.4l-0.1-0.1L21.2,37
		c0,0-0.2-0.1-0.2-0.1c0,0,0,0-0.1-0.1l-0.1-0.1c-0.1-0.1-0.1-0.1-0.2-0.2c-0.2-0.2-0.4-0.3-0.6-0.5c-0.7-0.7-1.4-1.3-2-2
		c0,0-0.1-0.1-0.1-0.1l-0.1-0.1l-0.1-0.1c0,0,0,0,0-0.1c0,0-0.1-0.1-0.1-0.1l-0.1-0.1l-0.1-0.1L17.3,33c-0.3-0.4-0.5-0.8-0.7-1.1
		c-0.3-0.5-0.5-0.9-0.7-1.2c-0.1-0.2-0.2-0.4-0.3-0.6c0-0.1-0.1-0.2-0.1-0.2c0-0.1-0.1-0.2-0.1-0.2c0,0,0,0,0,0
		c-0.4-0.9-0.7-1.8-0.9-2.7c-0.1-0.4-0.2-0.9-0.3-1.4l0-0.2l0-0.2c0,0,0,0,0-0.1c0,0,0,0,0-0.1c0-0.3-0.1-0.5-0.1-0.8
		c-0.1-1-0.1-2,0-3c0-0.2,0-0.4,0.1-0.6l0-0.1c0,0,0-0.1,0-0.1c0-0.1,0-0.1,0-0.2c0-0.1,0-0.1,0-0.2c0.1-0.4,0.2-0.9,0.3-1.4
		c0.2-0.9,0.5-1.8,0.9-2.7c0,0,0,0,0-0.1c0,0,0-0.1,0-0.1l0.1-0.1c0-0.1,0.1-0.1,0.1-0.2c0.1-0.2,0.2-0.4,0.3-0.6
		c0.2-0.4,0.4-0.8,0.7-1.3c0.2-0.4,0.5-0.8,0.8-1.2l0.1-0.1l0.1-0.1c0,0,0.1-0.1,0.1-0.2l0-0.1c0,0,0,0,0,0l0.1-0.1l0.1-0.1
		c0,0,0.1-0.1,0.1-0.1c0.6-0.8,1.3-1.4,2-2c0.1-0.1,0.2-0.2,0.4-0.3l0.2-0.2c0,0,0.1-0.1,0.1-0.1l0.1-0.1l0.1-0.1c0,0,0,0,0,0
		c0.4-0.3,0.7-0.5,1.2-0.8c0.8-0.5,1.7-1,2.5-1.4c0.1-0.1,0.2-0.1,0.3-0.1c0,0,0.1,0,0.1,0l0,0c0.2-0.1,0.5-0.2,0.7-0.3
		c0.5-0.2,0.9-0.3,1.3-0.4c0.4-0.1,0.9-0.2,1.4-0.3c0.2,0,0.4-0.1,0.6-0.1c0.1,0,0.2,0,0.3-0.1c0,0,0.1,0,0.1,0l0.1,0l0.1,0
		c0.7-0.1,1.4-0.1,2.2-0.1c0.3,0,0.5,0,0.8,0c0.4,0,0.9,0.1,1.5,0.1c0,0,0.1,0,0.1,0l0,0l0.2,0l0.2,0c0.2,0,0.5,0.1,0.8,0.1
		c0.9,0.2,1.9,0.5,2.8,0.8c0.2,0.1,0.4,0.2,0.6,0.2l0,0c0,0,0,0,0.1,0c0.2,0.1,0.3,0.1,0.4,0.2c0.5,0.2,0.9,0.4,1.3,0.7
		c0.4,0.2,0.8,0.5,1.2,0.7c0.2,0.1,0.4,0.2,0.5,0.4l0.1,0.1l0.1,0.1c0.1,0,0.1,0.1,0.2,0.1c0,0,0,0,0,0c0.7,0.5,1.4,1.2,2,1.8
		c0.4,0.4,0.7,0.7,0.9,1l0.1,0.1c0,0.1,0.1,0.1,0.1,0.2l0,0c0,0,0,0,0,0c0.1,0.2,0.3,0.4,0.4,0.6c0.5,0.7,1,1.5,1.5,2.4
		c0.1,0.2,0.2,0.4,0.3,0.6c0.1,0.1,0.1,0.2,0.1,0.3c0,0,0,0,0,0c0,0,0,0,0,0.1c0,0,0,0,0,0c0,0,0,0.1,0,0.1l0,0
		c0.2,0.4,0.3,0.8,0.5,1.3c0.3,0.9,0.5,1.9,0.7,2.8l0,0.2l0,0.2c0,0,0,0.1,0,0.1l0,0.1c0,0.2,0,0.4,0.1,0.7c0.1,0.5,0.1,1,0.1,1.5
		c0,0.5,0,1-0.1,1.5c0,0.2,0,0.4-0.1,0.6l0,0.1l0,0.1c0,0,0,0.1,0,0.1c0,0.1,0,0.1,0,0.2c0,0.1,0,0.1,0,0.2
		c-0.2,0.9-0.4,1.9-0.7,2.8c-0.1,0.4-0.3,0.9-0.5,1.3l0,0c0,0,0,0,0,0.1c0,0,0,0,0,0.1l-0.1,0.1c0,0.1-0.1,0.1-0.1,0.2
		c-0.1,0.2-0.2,0.4-0.3,0.6c-0.4,0.9-0.9,1.7-1.5,2.4c-0.1,0.2-0.2,0.3-0.4,0.5l-0.1,0.1l-0.1,0.2l-0.2,0.2c-0.3,0.3-0.6,0.7-0.9,1
		c-0.3,0.3-0.7,0.7-1,1c-0.1,0-0.1,0.1-0.2,0.2c-0.1,0.1-0.2,0.2-0.3,0.2c-0.1,0-0.1,0.1-0.2,0.1l-0.1,0.1c0,0-0.1,0.1-0.1,0.1
		c0,0,0,0,0,0c-0.8,0.6-1.5,1.1-2.4,1.5c-0.4,0.2-0.8,0.4-1.3,0.6c-0.1,0.1-0.2,0.1-0.3,0.1c0,0-0.1,0-0.1,0l0,0
		c-0.2,0.1-0.4,0.2-0.7,0.3c-0.9,0.3-1.8,0.6-2.8,0.8c-0.2,0.1-0.5,0.1-0.7,0.1l-0.2,0l-0.1,0C34.2,40.4,34.1,40.4,34,40.5z
		 M58.8,53.4c0,0.5-0.1,0.6-0.1,1c-0.3,1.5-0.7,2.7-1.5,4c-1.5,2.4-4,4.2-6.9,4.8c-0.4,0.1-0.8,0.2-1,0.2c-0.5,0-0.9,0.1-1.2,0.1
		l-0.1,0c-0.2,0-0.4,0-0.6,0c0-0.1,0-0.3,0-0.5c0-0.3,0-0.7,0-1c0-0.5,0.1-0.6,0.1-1c0.3-1.5,0.7-2.7,1.5-4c1.5-2.4,4-4.2,6.9-4.8
		c0.4-0.1,0.8-0.2,1-0.2c0.5,0,0.9-0.1,1.2-0.1l0.1,0c0.2,0,0.4,0,0.6,0c0,0.1,0,0.3,0,0.5C58.8,52.7,58.8,53.1,58.8,53.4z"/>
	<linearGradient id="SVGID_2_" gradientUnits="userSpaceOnUse" x1="21.9085" y1="1.6179" x2="60.2389" y2="81.564">
		<stop  offset="0" style="stop-color:#8DC63F"/>
		<stop  offset="1" style="stop-color:#2BB673"/>
	</linearGradient>
	<path fill="url(#SVGID_2_)" d="M35.4,30.5c0.2,0.2,0.3,0.4,0.5,0.6c0.2,0.1,0.3,0.2,0.5,0.3c0.2,0.1,0.4,0.1,0.6,0.1h0.6
		c0.1,0,0.2,0,0.4-0.1c0.1,0,0.2-0.1,0.3-0.2c0.1-0.1,0.2-0.2,0.2-0.3c0.1-0.1,0.1-0.3,0.1-0.5v-5.8h1.6c0.1,0,0.2-0.1,0.3-0.2
		c0.1-0.1,0.1-0.4,0.1-0.7c0-0.3,0-0.5-0.1-0.6c-0.1-0.1-0.2-0.2-0.3-0.2h-1.6v-2.3h1.6c0.1,0,0.2-0.1,0.3-0.2
		c0.1-0.1,0.1-0.4,0.1-0.7c0-0.3,0-0.5-0.1-0.6c-0.1-0.1-0.2-0.2-0.3-0.2h-1.6v-5.5c0-0.1,0-0.1-0.1-0.2c0-0.1-0.1-0.1-0.2-0.1
		c-0.1,0-0.2-0.1-0.4-0.1c-0.2,0-0.3,0-0.5,0c-0.2,0-0.4,0-0.6,0c-0.1,0-0.3,0-0.4,0.1c-0.1,0-0.2,0.1-0.2,0.1s-0.1,0.1-0.1,0.2v5.5
		h-5.1l-2.5-4.5c-0.2-0.3-0.3-0.5-0.4-0.7c-0.1-0.2-0.3-0.3-0.4-0.5c-0.1-0.1-0.3-0.2-0.5-0.2c-0.2,0-0.4-0.1-0.7-0.1h-1
		c-0.2,0-0.5,0.1-0.7,0.2c-0.2,0.2-0.3,0.4-0.3,0.8v4.9h-1.6c-0.1,0-0.2,0.1-0.3,0.2c-0.1,0.1-0.1,0.4-0.1,0.6c0,0.3,0,0.6,0.1,0.7
		c0.1,0.1,0.2,0.2,0.3,0.2h1.6v2.3h-1.6c-0.1,0-0.2,0.1-0.3,0.2c-0.1,0.1-0.1,0.4-0.1,0.6c0,0.3,0,0.5,0.1,0.7
		c0.1,0.1,0.2,0.2,0.3,0.2h1.6V31c0,0.1,0,0.1,0.1,0.2c0,0.1,0.1,0.1,0.2,0.1c0.1,0,0.2,0.1,0.3,0.1c0.1,0,0.3,0,0.6,0
		c0.2,0,0.4,0,0.6,0c0.1,0,0.3-0.1,0.4-0.1c0.1,0,0.2-0.1,0.2-0.1c0-0.1,0.1-0.1,0.1-0.2v-6.4h4.9l2.8,5
		C35,29.9,35.2,30.2,35.4,30.5z M27.1,17.7c0-0.8,0-1.5,0-2.2h0c0.3,0.6,0.6,1.2,0.9,1.8c0.3,0.6,0.6,1.1,0.9,1.6h-1.8
		C27.1,18.5,27.1,18.1,27.1,17.7z M27.1,22.9v-2.3h2.8l1.2,2.3H27.1z M33.4,22.5l-1.1-1.9h4.1v2.3h-2.9
		C33.5,22.7,33.4,22.6,33.4,22.5z M36.4,24.6c0,0.4,0,0.8,0,1.2c0,0.9,0,1.7,0,2.4h0c-0.2-0.4-0.5-0.9-0.7-1.4s-0.5-1-0.8-1.4
		c-0.1-0.2-0.3-0.5-0.4-0.8H36.4z"/>
</g>
</svg>
