<?xml version="1.0" encoding="utf-8"?>
<!-- Generator: Adobe Illustrator 18.0.0, SVG Export Plug-In . SVG Version: 6.00 Build 0)  -->
<!DOCTYPE svg PUBLIC "-//W3C//DTD SVG 1.1//EN" "http://www.w3.org/Graphics/SVG/1.1/DTD/svg11.dtd">
<svg version="1.1" id="Layer_1" xmlns="http://www.w3.org/2000/svg" xmlns:xlink="http://www.w3.org/1999/xlink" x="0px" y="0px"
	 viewBox="0 0 72.6 102.6" enable-background="new 0 0 72.6 102.6" xml:space="preserve">
<g>
	<linearGradient id="SVGID_1_" gradientUnits="userSpaceOnUse" x1="21.8193" y1="7.1054" x2="72.8873" y2="110.0394">
		<stop  offset="0" style="stop-color:#8DC63F"/>
		<stop  offset="1" style="stop-color:#2BB673"/>
	</linearGradient>
	<path fill="url(#SVGID_1_)" d="M36.3,72.6c20,0,36.3-16.2,36.3-36.3S56.4,0,36.3,0S0,16.2,0,36.3S16.3,72.6,36.3,72.6z M17.4,60.5
		c8-2.9,11.3-6.2,12.8-8.6c1.7,0.6,3.5,1.1,5.6,1.1H36h0.2h0.2h0.2c2.3,0,4.2-0.5,5.9-1.2c1.4,2.6,4.8,5.9,13,8.8
		C50,64.5,43.5,67,36.4,67C29.2,67.1,22.5,64.7,17.4,60.5z M43.1,44.6c-1.7,2-3.9,2.9-7,2.9H36c-3,0-5.3-0.9-7-2.9
		c-4.4-5-3.5-14.7-3.5-14.8v-0.2c0.5-10.1,7.9-11,10.1-11c0.2,0,0.3,0,0.3,0h0.2c1.7,0,10,0.2,10.4,10.9v0.2
		C46.9,32.5,46.7,40.4,43.1,44.6z M36.3,5.6c16.9,0,30.8,13.8,30.8,30.8c0,7.6-2.9,14.5-7.4,20c-10.6-3.2-12.5-6.8-12.8-7.7
		c0.2-0.2,0.3-0.3,0.3-0.3c5.9-6.5,5-17.7,4.8-18.9c-0.6-13-10.3-16.3-15.9-16c-5.7-0.2-15.3,3-15.9,16c-0.2,1.2-1.1,12.2,4.8,18.9
		c0.3,0.3,0.5,0.6,0.8,0.8c-0.6,1.2-3.2,4.4-12.7,7.3c-4.5-5.4-7.4-12.4-7.4-20C5.4,19.3,19.3,5.6,36.3,5.6z"/>
	<linearGradient id="SVGID_2_" gradientUnits="userSpaceOnUse" x1="2.2491" y1="16.8147" x2="53.3171" y2="119.7486">
		<stop  offset="0" style="stop-color:#8DC63F"/>
		<stop  offset="1" style="stop-color:#2BB673"/>
	</linearGradient>
	<path fill="url(#SVGID_2_)" d="M62.3,82.8H10.4c-1.5,0-2.7,1.2-2.7,2.7c0,1.5,1.2,2.7,2.7,2.7h51.9c1.5,0,2.7-1.2,2.7-2.7
		C65,84,63.8,82.8,62.3,82.8z"/>
	<linearGradient id="SVGID_3_" gradientUnits="userSpaceOnUse" x1="-3.5897" y1="19.7114" x2="47.4783" y2="122.6454">
		<stop  offset="0" style="stop-color:#8DC63F"/>
		<stop  offset="1" style="stop-color:#2BB673"/>
	</linearGradient>
	<path fill="url(#SVGID_3_)" d="M53.1,97.2H19.3c-1.5,0-2.7,1.2-2.7,2.7c0,1.5,1.2,2.7,2.7,2.7h33.7c1.5,0,2.7-1.2,2.7-2.7
		C55.8,98.4,54.6,97.2,53.1,97.2z"/>
</g>
</svg>
