<?xml version="1.0" encoding="utf-8"?>
<!-- Generator: Adobe Illustrator 23.0.0, SVG Export Plug-In . SVG Version: 6.00 Build 0)  -->
<svg version="1.1" id="Layer_1" xmlns="http://www.w3.org/2000/svg" xmlns:xlink="http://www.w3.org/1999/xlink" x="0px" y="0px"
	 viewBox="0 0 596.06 73.78" style="enable-background:new 0 0 596.06 73.78;" xml:space="preserve">
<style type="text/css">
	.st0{clip-path:url(#SVGID_2_);fill:#1D3B2D;}
	.st1{fill:#1D3B2D;}
	.st2{fill:#BCBEC0;}
	.st3{fill:#2BB673;}
	.st4{fill:#D1D3D4;}
	.st5{fill:#8DC63F;}
	.st6{fill:#F39C12;}
	.st7{opacity:0.2;}
	.st8{opacity:0.1;}
	.st9{opacity:0.5;fill:#8DC63F;enable-background:new    ;}
</style>
<g>
	<defs>
		<rect id="SVGID_1_" width="596.06" height="73.78"/>
	</defs>
	<clipPath id="SVGID_2_">
		<use xlink:href="#SVGID_1_"  style="overflow:visible;"/>
	</clipPath>
	<path class="st0" d="M596.06,114.6V0c-57.5,0-200.09,0-249.88,0s-95.72-7.88-129.26,30.92c-26.88,31.21-57.74,53.41-90.7,64.16
		C82.51,109.23,33.66,113.55,0,114.6H596.06z"/>
</g>
<g>
	<path class="st6" d="M406.9,35.07h-1.18V23.45h1.18V35.07z"/>
	<path class="st6" d="M410.69,27.39c0.02,0.21,0.04,0.41,0.04,0.62c0,0.2,0.01,0.41,0.01,0.62h0.03c0.12-0.21,0.27-0.4,0.46-0.57
		c0.19-0.17,0.39-0.33,0.62-0.45c0.23-0.13,0.47-0.22,0.73-0.3s0.51-0.11,0.76-0.11c0.99,0,1.71,0.26,2.18,0.78
		c0.47,0.52,0.71,1.26,0.71,2.22v4.88h-1.08v-4.25c0-0.85-0.15-1.51-0.44-1.96c-0.29-0.45-0.84-0.68-1.64-0.68
		c-0.05,0-0.21,0.02-0.46,0.07c-0.25,0.04-0.52,0.16-0.8,0.36c-0.28,0.2-0.53,0.49-0.75,0.89c-0.22,0.39-0.33,0.94-0.33,1.64v3.94
		h-1.08v-5.99c0-0.21-0.01-0.47-0.02-0.79s-0.04-0.62-0.06-0.9H410.69z"/>
	<path class="st6" d="M422.17,35.07h-1.22l-3.12-7.68h1.28l2.46,6.47h0.03l2.45-6.47h1.23L422.17,35.07z"/>
	<path class="st6" d="M427.46,31.52c0.03,0.38,0.13,0.74,0.28,1.08c0.15,0.34,0.36,0.63,0.61,0.88c0.25,0.25,0.54,0.44,0.87,0.58
		c0.33,0.14,0.68,0.21,1.07,0.21c0.58,0,1.08-0.13,1.5-0.4c0.42-0.27,0.74-0.58,0.96-0.93l0.84,0.69c-0.46,0.58-0.97,1-1.52,1.25
		s-1.15,0.38-1.78,0.38c-0.57,0-1.1-0.1-1.58-0.3c-0.49-0.2-0.91-0.48-1.26-0.85c-0.35-0.36-0.63-0.79-0.83-1.28
		c-0.2-0.49-0.3-1.03-0.3-1.61s0.1-1.12,0.3-1.61c0.2-0.49,0.47-0.92,0.82-1.28c0.35-0.36,0.76-0.64,1.23-0.84
		c0.47-0.2,0.98-0.3,1.53-0.3c0.58,0,1.1,0.1,1.56,0.31c0.46,0.21,0.85,0.48,1.16,0.83c0.31,0.34,0.55,0.75,0.71,1.21
		c0.16,0.47,0.25,0.96,0.25,1.49v0.49H427.46z M432.68,30.64c0-0.73-0.22-1.33-0.66-1.78s-1.05-0.68-1.84-0.68
		c-0.35,0-0.69,0.07-1.02,0.21c-0.33,0.14-0.62,0.32-0.86,0.55c-0.25,0.23-0.44,0.49-0.59,0.79c-0.15,0.29-0.22,0.6-0.22,0.92
		H432.68z"/>
	<path class="st6" d="M439.9,29.21c-0.17-0.32-0.38-0.57-0.66-0.75c-0.27-0.19-0.61-0.28-1-0.28c-0.19,0-0.38,0.02-0.57,0.07
		c-0.19,0.04-0.36,0.11-0.52,0.21s-0.28,0.21-0.37,0.35c-0.09,0.14-0.14,0.32-0.14,0.53c0,0.36,0.13,0.62,0.38,0.79
		c0.25,0.16,0.63,0.31,1.13,0.43l1.1,0.26c0.54,0.12,0.98,0.36,1.34,0.73c0.36,0.37,0.53,0.82,0.53,1.37c0,0.42-0.08,0.77-0.25,1.08
		c-0.17,0.3-0.39,0.55-0.67,0.74c-0.28,0.19-0.6,0.33-0.96,0.42c-0.36,0.09-0.73,0.13-1.1,0.13c-0.59,0-1.14-0.11-1.65-0.34
		c-0.51-0.22-0.94-0.61-1.3-1.16l0.94-0.64c0.22,0.35,0.5,0.63,0.83,0.84s0.73,0.31,1.19,0.31c0.22,0,0.44-0.02,0.66-0.07
		c0.22-0.05,0.41-0.13,0.58-0.23c0.17-0.1,0.31-0.24,0.41-0.4c0.1-0.16,0.16-0.36,0.16-0.57c0-0.38-0.14-0.66-0.43-0.83
		c-0.29-0.17-0.63-0.3-1.03-0.4l-1.05-0.25c-0.13-0.03-0.31-0.09-0.53-0.16c-0.22-0.08-0.44-0.19-0.66-0.34
		c-0.21-0.15-0.4-0.35-0.55-0.6s-0.23-0.55-0.23-0.91c0-0.39,0.08-0.74,0.24-1.03c0.16-0.3,0.37-0.54,0.64-0.72
		c0.27-0.19,0.57-0.33,0.91-0.42c0.34-0.09,0.69-0.14,1.05-0.14c0.54,0,1.03,0.1,1.49,0.31c0.46,0.21,0.81,0.56,1.07,1.07
		L439.9,29.21z"/>
	<path class="st6" d="M446.79,28.37h-2.22v4.53c0,0.28,0.03,0.52,0.08,0.7s0.13,0.32,0.23,0.42c0.1,0.1,0.22,0.17,0.35,0.21
		c0.14,0.04,0.29,0.06,0.45,0.06c0.19,0,0.38-0.03,0.58-0.08c0.2-0.05,0.38-0.13,0.54-0.21l0.05,1c-0.41,0.19-0.89,0.28-1.46,0.28
		c-0.21,0-0.42-0.03-0.65-0.08c-0.22-0.06-0.43-0.16-0.62-0.31c-0.19-0.15-0.34-0.36-0.46-0.62c-0.12-0.26-0.18-0.61-0.18-1.03
		v-4.84h-1.63v-0.99h1.63v-2.17h1.08v2.17h2.22V28.37z"/>
	<path class="st6" d="M454.41,24.43c0,0.23-0.08,0.42-0.25,0.57c-0.16,0.15-0.34,0.22-0.54,0.22c-0.2,0-0.38-0.07-0.54-0.22
		c-0.17-0.15-0.25-0.34-0.25-0.57c0-0.23,0.08-0.42,0.25-0.57c0.16-0.15,0.34-0.22,0.54-0.22c0.2,0,0.38,0.07,0.54,0.22
		C454.33,24.01,454.41,24.2,454.41,24.43z M454.17,35.07h-1.08v-7.68h1.08V35.07z"/>
	<path class="st6" d="M457.81,27.39c0.02,0.21,0.04,0.41,0.04,0.62c0,0.2,0.01,0.41,0.01,0.62h0.03c0.12-0.21,0.27-0.4,0.46-0.57
		c0.19-0.17,0.39-0.33,0.62-0.45c0.23-0.13,0.47-0.22,0.73-0.3s0.51-0.11,0.76-0.11c0.99,0,1.71,0.26,2.18,0.78
		c0.47,0.52,0.71,1.26,0.71,2.22v4.88h-1.08v-4.25c0-0.85-0.15-1.51-0.44-1.96c-0.29-0.45-0.84-0.68-1.64-0.68
		c-0.05,0-0.21,0.02-0.46,0.07c-0.25,0.04-0.52,0.16-0.8,0.36c-0.28,0.2-0.53,0.49-0.75,0.89c-0.22,0.39-0.33,0.94-0.33,1.64v3.94
		h-1.08v-5.99c0-0.21-0.01-0.47-0.02-0.79s-0.04-0.62-0.06-0.9H457.81z"/>
	<path class="st6" d="M472.04,35.07h-1.18V23.45h7.01v1.08h-5.83v3.96h5.42v1.08h-5.42V35.07z"/>
	<path class="st6" d="M484.52,30.36v-0.2c0-1.32-0.66-1.99-1.97-1.99c-0.9,0-1.68,0.3-2.35,0.9l-0.66-0.77
		c0.72-0.74,1.81-1.12,3.25-1.12c0.37,0,0.73,0.05,1.08,0.16s0.64,0.28,0.89,0.5c0.25,0.22,0.45,0.51,0.61,0.85
		c0.15,0.34,0.23,0.75,0.23,1.21v3.43c0,0.29,0.01,0.6,0.04,0.93c0.03,0.32,0.06,0.59,0.09,0.8h-1.05
		c-0.03-0.19-0.06-0.39-0.07-0.61s-0.02-0.43-0.02-0.64h-0.03c-0.32,0.51-0.69,0.88-1.12,1.11c-0.43,0.22-0.96,0.34-1.58,0.34
		c-0.34,0-0.67-0.05-0.99-0.14s-0.6-0.24-0.85-0.43s-0.44-0.43-0.59-0.71s-0.22-0.6-0.22-0.98c0-0.62,0.16-1.11,0.48-1.47
		c0.32-0.36,0.73-0.62,1.21-0.8c0.49-0.17,1.01-0.29,1.56-0.33c0.55-0.04,1.06-0.07,1.52-0.07H484.52z M483.96,31.24
		c-0.27,0-0.62,0.01-1.03,0.04c-0.41,0.03-0.8,0.09-1.18,0.2c-0.38,0.1-0.7,0.27-0.97,0.48c-0.27,0.22-0.4,0.52-0.4,0.9
		c0,0.25,0.05,0.47,0.16,0.65c0.1,0.18,0.24,0.33,0.42,0.44c0.17,0.12,0.37,0.2,0.58,0.25c0.21,0.05,0.43,0.07,0.65,0.07
		c0.39,0,0.74-0.07,1.03-0.2c0.29-0.13,0.53-0.31,0.73-0.53c0.2-0.22,0.34-0.49,0.44-0.79s0.14-0.62,0.14-0.96v-0.56H483.96z"/>
	<path class="st6" d="M488.23,29.78c0-0.34-0.01-0.68-0.02-1.03s-0.03-0.8-0.04-1.36h1.07v1.43h0.03c0.08-0.21,0.19-0.41,0.33-0.6
		c0.14-0.19,0.31-0.36,0.52-0.52c0.2-0.15,0.44-0.28,0.71-0.37c0.27-0.09,0.57-0.14,0.91-0.14c0.31,0,0.57,0.03,0.8,0.1l-0.21,1.07
		c-0.14-0.05-0.35-0.08-0.62-0.08c-0.42,0-0.77,0.08-1.07,0.24c-0.3,0.16-0.54,0.36-0.74,0.61s-0.34,0.51-0.43,0.8
		c-0.09,0.29-0.14,0.56-0.14,0.82v4.33h-1.08V29.78z"/>
	<path class="st6" d="M493.86,29.09c0-0.29-0.01-0.57-0.02-0.85c-0.02-0.29-0.04-0.57-0.06-0.85h1.17v1.17h0.03
		c0.26-0.45,0.63-0.79,1.09-1.02c0.46-0.23,0.93-0.34,1.39-0.34c0.21,0,0.43,0.02,0.67,0.07s0.46,0.12,0.68,0.24
		c0.22,0.11,0.42,0.28,0.62,0.48s0.35,0.48,0.48,0.8c0.22-0.49,0.57-0.88,1.04-1.17c0.48-0.29,0.97-0.43,1.49-0.43
		c0.99,0,1.71,0.26,2.18,0.78c0.47,0.52,0.71,1.26,0.71,2.22v4.88h-1.08v-4.48c0-0.78-0.14-1.37-0.41-1.79s-0.78-0.62-1.53-0.62
		c-0.4,0-0.74,0.08-1.02,0.24c-0.27,0.16-0.5,0.37-0.67,0.63s-0.29,0.56-0.37,0.9c-0.08,0.33-0.12,0.68-0.12,1.04v4.09h-1.08v-4.48
		c0-0.78-0.14-1.37-0.41-1.79s-0.78-0.62-1.53-0.62c-0.07,0-0.22,0.02-0.45,0.07c-0.24,0.04-0.48,0.16-0.73,0.36
		c-0.25,0.2-0.48,0.49-0.68,0.89c-0.2,0.39-0.3,0.94-0.3,1.64v3.94h-1.08V29.09z"/>
	<path class="st6" d="M511.92,29.21c-0.17-0.32-0.38-0.57-0.66-0.75c-0.27-0.19-0.61-0.28-1-0.28c-0.19,0-0.38,0.02-0.57,0.07
		c-0.19,0.04-0.36,0.11-0.52,0.21s-0.28,0.21-0.37,0.35c-0.09,0.14-0.14,0.32-0.14,0.53c0,0.36,0.13,0.62,0.38,0.79
		c0.25,0.16,0.63,0.31,1.13,0.43l1.1,0.26c0.54,0.12,0.98,0.36,1.34,0.73c0.36,0.37,0.53,0.82,0.53,1.37c0,0.42-0.08,0.77-0.25,1.08
		c-0.17,0.3-0.39,0.55-0.67,0.74c-0.28,0.19-0.6,0.33-0.96,0.42c-0.36,0.09-0.73,0.13-1.1,0.13c-0.59,0-1.14-0.11-1.65-0.34
		c-0.51-0.22-0.94-0.61-1.3-1.16l0.94-0.64c0.22,0.35,0.5,0.63,0.83,0.84s0.73,0.31,1.19,0.31c0.22,0,0.44-0.02,0.66-0.07
		c0.22-0.05,0.41-0.13,0.58-0.23c0.17-0.1,0.31-0.24,0.41-0.4c0.1-0.16,0.16-0.36,0.16-0.57c0-0.38-0.14-0.66-0.43-0.83
		c-0.29-0.17-0.63-0.3-1.03-0.4l-1.05-0.25c-0.13-0.03-0.31-0.09-0.53-0.16c-0.22-0.08-0.44-0.19-0.66-0.34
		c-0.21-0.15-0.4-0.35-0.55-0.6s-0.23-0.55-0.23-0.91c0-0.39,0.08-0.74,0.24-1.03c0.16-0.3,0.37-0.54,0.64-0.72
		c0.27-0.19,0.57-0.33,0.91-0.42c0.34-0.09,0.69-0.14,1.05-0.14c0.54,0,1.03,0.1,1.49,0.31c0.46,0.21,0.81,0.56,1.07,1.07
		L511.92,29.21z"/>
	<path class="st6" d="M516.83,34.28c0,0.23-0.08,0.44-0.25,0.62c-0.16,0.18-0.38,0.27-0.64,0.27s-0.48-0.09-0.64-0.27
		c-0.16-0.18-0.25-0.39-0.25-0.62s0.08-0.43,0.25-0.62s0.38-0.27,0.64-0.27s0.48,0.09,0.64,0.27S516.83,34.05,516.83,34.28z"/>
	<path class="st6" d="M409.45,54.77h-1.18V44.23h-3.89v-1.08h8.96v1.08h-3.89V54.77z"/>
	<path class="st6" d="M413.35,49.48c0-0.34-0.01-0.68-0.02-1.03s-0.03-0.8-0.04-1.36h1.07v1.43h0.03c0.08-0.21,0.19-0.41,0.33-0.6
		c0.14-0.19,0.31-0.36,0.52-0.52c0.2-0.15,0.44-0.28,0.71-0.37c0.27-0.09,0.57-0.14,0.91-0.14c0.31,0,0.57,0.03,0.8,0.1l-0.21,1.07
		c-0.14-0.05-0.35-0.08-0.62-0.08c-0.42,0-0.77,0.08-1.07,0.24c-0.3,0.16-0.54,0.36-0.74,0.61s-0.34,0.51-0.43,0.8
		c-0.09,0.29-0.14,0.56-0.14,0.82v4.33h-1.08V49.48z"/>
	<path class="st6" d="M423.61,50.06v-0.2c0-1.32-0.66-1.99-1.97-1.99c-0.9,0-1.68,0.3-2.35,0.9l-0.66-0.77
		c0.72-0.74,1.81-1.12,3.25-1.12c0.37,0,0.73,0.05,1.08,0.16s0.64,0.28,0.89,0.5c0.25,0.22,0.45,0.51,0.61,0.85
		c0.15,0.34,0.23,0.75,0.23,1.21v3.43c0,0.29,0.01,0.6,0.04,0.93c0.03,0.32,0.06,0.59,0.09,0.8h-1.05
		c-0.03-0.19-0.06-0.39-0.07-0.61s-0.02-0.43-0.02-0.64h-0.03c-0.32,0.51-0.69,0.88-1.12,1.11c-0.43,0.22-0.96,0.34-1.58,0.34
		c-0.34,0-0.67-0.05-0.99-0.14s-0.6-0.24-0.85-0.43s-0.44-0.43-0.59-0.71s-0.22-0.6-0.22-0.98c0-0.62,0.16-1.11,0.48-1.47
		c0.32-0.36,0.73-0.62,1.21-0.8c0.49-0.17,1.01-0.29,1.56-0.33c0.55-0.04,1.06-0.07,1.52-0.07H423.61z M423.06,50.94
		c-0.27,0-0.62,0.01-1.03,0.04c-0.41,0.03-0.8,0.09-1.18,0.2c-0.38,0.1-0.7,0.27-0.97,0.48s-0.4,0.52-0.4,0.9
		c0,0.25,0.05,0.47,0.16,0.65c0.1,0.18,0.24,0.33,0.42,0.44c0.17,0.12,0.37,0.2,0.58,0.25c0.21,0.05,0.43,0.07,0.65,0.07
		c0.39,0,0.74-0.07,1.03-0.2c0.29-0.13,0.53-0.31,0.73-0.53c0.2-0.22,0.34-0.49,0.44-0.79s0.14-0.62,0.14-0.96v-0.56H423.06z"/>
	<path class="st6" d="M434.88,54.77h-1.08v-1.28h-0.03c-0.17,0.26-0.38,0.49-0.62,0.67c-0.24,0.19-0.49,0.34-0.75,0.46
		s-0.53,0.21-0.81,0.26c-0.28,0.05-0.54,0.08-0.8,0.08c-0.6,0-1.15-0.1-1.65-0.3c-0.5-0.2-0.93-0.48-1.29-0.85s-0.64-0.79-0.85-1.28
		c-0.2-0.49-0.3-1.03-0.3-1.61s0.1-1.12,0.3-1.61c0.2-0.49,0.48-0.92,0.85-1.28c0.36-0.36,0.79-0.64,1.29-0.84
		c0.5-0.2,1.05-0.3,1.65-0.3c0.25,0,0.52,0.03,0.8,0.08s0.55,0.14,0.81,0.26c0.26,0.12,0.51,0.27,0.75,0.46
		c0.24,0.19,0.45,0.41,0.62,0.67h0.03v-6.01h1.08V54.77z M427.87,50.93c0,0.43,0.07,0.83,0.21,1.2c0.14,0.37,0.33,0.7,0.58,0.97
		c0.25,0.27,0.55,0.49,0.91,0.65c0.36,0.16,0.76,0.24,1.21,0.24c0.44,0,0.85-0.08,1.22-0.24c0.38-0.16,0.7-0.37,0.98-0.65
		c0.27-0.27,0.49-0.6,0.64-0.97c0.15-0.37,0.23-0.77,0.23-1.2s-0.08-0.83-0.23-1.2s-0.37-0.7-0.64-0.97s-0.6-0.49-0.98-0.65
		c-0.38-0.16-0.79-0.24-1.22-0.24c-0.45,0-0.85,0.08-1.21,0.24c-0.36,0.16-0.66,0.38-0.91,0.65c-0.25,0.27-0.45,0.6-0.58,0.97
		S427.87,50.5,427.87,50.93z"/>
	<path class="st6" d="M438,51.22c0.03,0.38,0.13,0.74,0.28,1.08c0.15,0.34,0.36,0.63,0.61,0.88c0.25,0.25,0.54,0.44,0.87,0.58
		c0.33,0.14,0.68,0.21,1.07,0.21c0.58,0,1.08-0.13,1.5-0.4c0.42-0.27,0.74-0.58,0.96-0.93l0.84,0.69c-0.46,0.58-0.97,1-1.52,1.25
		s-1.15,0.38-1.78,0.38c-0.57,0-1.1-0.1-1.58-0.3c-0.49-0.2-0.91-0.48-1.26-0.85c-0.35-0.36-0.63-0.79-0.83-1.28
		c-0.2-0.49-0.3-1.03-0.3-1.61s0.1-1.12,0.3-1.61c0.2-0.49,0.47-0.92,0.82-1.28c0.35-0.36,0.76-0.64,1.23-0.84
		c0.47-0.2,0.98-0.3,1.53-0.3c0.58,0,1.1,0.1,1.56,0.31c0.46,0.21,0.85,0.48,1.16,0.83c0.31,0.34,0.55,0.75,0.71,1.21
		c0.16,0.47,0.25,0.96,0.25,1.49v0.49H438z M443.22,50.34c0-0.73-0.22-1.33-0.66-1.78s-1.05-0.68-1.84-0.68
		c-0.35,0-0.69,0.07-1.02,0.21c-0.33,0.14-0.62,0.32-0.86,0.55c-0.25,0.23-0.44,0.49-0.59,0.79c-0.15,0.29-0.22,0.6-0.22,0.92
		H443.22z"/>
	<path class="st6" d="M452.51,44.13c0,0.23-0.08,0.42-0.25,0.57c-0.16,0.15-0.34,0.22-0.54,0.22c-0.2,0-0.38-0.07-0.54-0.22
		c-0.17-0.15-0.25-0.34-0.25-0.57c0-0.23,0.08-0.42,0.25-0.57c0.16-0.15,0.34-0.22,0.54-0.22c0.2,0,0.38,0.07,0.54,0.22
		C452.43,43.71,452.51,43.9,452.51,44.13z M452.26,54.77h-1.08v-7.68h1.08V54.77z"/>
	<path class="st6" d="M455.91,47.09c0.02,0.21,0.04,0.41,0.04,0.62c0,0.2,0.01,0.41,0.01,0.62h0.03c0.12-0.21,0.27-0.4,0.46-0.57
		c0.19-0.17,0.39-0.33,0.62-0.45c0.23-0.13,0.47-0.22,0.73-0.3s0.51-0.11,0.76-0.11c0.99,0,1.71,0.26,2.18,0.78
		c0.47,0.52,0.71,1.26,0.71,2.22v4.88h-1.08v-4.25c0-0.85-0.15-1.51-0.44-1.96c-0.29-0.45-0.84-0.68-1.64-0.68
		c-0.05,0-0.21,0.02-0.46,0.07c-0.25,0.04-0.52,0.16-0.8,0.36c-0.28,0.2-0.53,0.49-0.75,0.89c-0.22,0.39-0.33,0.94-0.33,1.64v3.94
		h-1.08v-5.99c0-0.21-0.01-0.47-0.02-0.79s-0.04-0.62-0.06-0.9H455.91z"/>
	<path class="st6" d="M478.53,52.93c-0.2,0.3-0.44,0.58-0.73,0.84c-0.29,0.26-0.62,0.49-0.99,0.68c-0.37,0.19-0.77,0.34-1.21,0.45
		s-0.89,0.17-1.37,0.17c-0.86,0-1.67-0.15-2.41-0.46c-0.74-0.31-1.38-0.73-1.92-1.27c-0.54-0.54-0.97-1.18-1.27-1.93
		c-0.31-0.74-0.46-1.56-0.46-2.45s0.15-1.7,0.46-2.45c0.31-0.74,0.73-1.39,1.27-1.93c0.54-0.54,1.18-0.97,1.92-1.27
		c0.74-0.31,1.54-0.46,2.41-0.46c0.72,0,1.45,0.14,2.17,0.43c0.72,0.29,1.34,0.75,1.86,1.41l-1.03,0.77
		c-0.12-0.19-0.29-0.37-0.49-0.56c-0.21-0.19-0.45-0.35-0.71-0.49c-0.27-0.14-0.56-0.26-0.86-0.34c-0.31-0.09-0.61-0.13-0.92-0.13
		c-0.74,0-1.41,0.14-2,0.41s-1.09,0.64-1.5,1.1c-0.41,0.46-0.73,0.99-0.94,1.6s-0.33,1.25-0.33,1.91s0.11,1.3,0.33,1.91
		s0.53,1.14,0.94,1.6c0.41,0.46,0.91,0.83,1.5,1.1s1.26,0.41,2,0.41c0.31,0,0.61-0.03,0.91-0.08s0.6-0.15,0.89-0.28
		c0.29-0.13,0.56-0.31,0.82-0.53c0.26-0.22,0.5-0.51,0.71-0.85L478.53,52.93z"/>
	<path class="st6" d="M487.89,50.93c0,0.58-0.1,1.12-0.3,1.61c-0.2,0.49-0.48,0.92-0.85,1.28s-0.79,0.64-1.29,0.85
		c-0.5,0.2-1.05,0.3-1.65,0.3c-0.59,0-1.14-0.1-1.63-0.3c-0.5-0.2-0.93-0.48-1.29-0.85s-0.64-0.79-0.85-1.28
		c-0.2-0.49-0.3-1.03-0.3-1.61s0.1-1.12,0.3-1.61c0.2-0.49,0.48-0.92,0.85-1.28c0.36-0.36,0.79-0.64,1.29-0.84
		c0.5-0.2,1.04-0.3,1.63-0.3c0.6,0,1.15,0.1,1.65,0.3c0.5,0.2,0.93,0.48,1.29,0.84c0.36,0.36,0.64,0.79,0.85,1.28
		C487.79,49.81,487.89,50.35,487.89,50.93z M486.71,50.93c0-0.43-0.07-0.83-0.21-1.2c-0.14-0.37-0.33-0.7-0.58-0.97
		c-0.25-0.27-0.56-0.49-0.91-0.65c-0.36-0.16-0.76-0.24-1.21-0.24s-0.85,0.08-1.21,0.24c-0.36,0.16-0.66,0.38-0.9,0.65
		s-0.44,0.6-0.58,0.97s-0.21,0.77-0.21,1.2s0.07,0.83,0.21,1.2c0.14,0.37,0.33,0.7,0.58,0.97c0.25,0.27,0.55,0.49,0.9,0.65
		c0.36,0.16,0.76,0.24,1.21,0.24s0.85-0.08,1.21-0.24c0.36-0.16,0.66-0.37,0.91-0.65c0.25-0.27,0.45-0.6,0.58-0.97
		C486.64,51.76,486.71,51.36,486.71,50.93z"/>
	<path class="st6" d="M489.86,48.79c0-0.29-0.01-0.57-0.02-0.85c-0.02-0.29-0.04-0.57-0.06-0.85h1.17v1.17h0.03
		c0.26-0.45,0.63-0.79,1.09-1.02c0.46-0.23,0.93-0.34,1.39-0.34c0.21,0,0.43,0.02,0.67,0.07s0.46,0.12,0.68,0.24
		c0.22,0.11,0.42,0.28,0.62,0.48s0.35,0.48,0.48,0.8c0.22-0.49,0.57-0.88,1.04-1.17c0.48-0.29,0.97-0.43,1.49-0.43
		c0.99,0,1.71,0.26,2.18,0.78c0.47,0.52,0.71,1.26,0.71,2.22v4.88h-1.08v-4.48c0-0.78-0.14-1.37-0.41-1.79s-0.78-0.62-1.53-0.62
		c-0.4,0-0.74,0.08-1.02,0.24c-0.27,0.16-0.5,0.37-0.67,0.63s-0.29,0.56-0.37,0.9c-0.08,0.33-0.12,0.68-0.12,1.04v4.09h-1.08v-4.48
		c0-0.78-0.14-1.37-0.41-1.79s-0.78-0.62-1.53-0.62c-0.07,0-0.22,0.02-0.45,0.07c-0.24,0.04-0.48,0.16-0.73,0.36
		c-0.25,0.2-0.48,0.49-0.68,0.89c-0.2,0.39-0.3,0.94-0.3,1.64v3.94h-1.08V48.79z"/>
	<path class="st6" d="M503.84,48.79c0-0.29-0.01-0.57-0.02-0.85c-0.02-0.29-0.04-0.57-0.06-0.85h1.17v1.17h0.03
		c0.26-0.45,0.63-0.79,1.09-1.02c0.46-0.23,0.93-0.34,1.39-0.34c0.21,0,0.43,0.02,0.67,0.07s0.46,0.12,0.68,0.24
		c0.22,0.11,0.42,0.28,0.62,0.48s0.35,0.48,0.48,0.8c0.22-0.49,0.57-0.88,1.04-1.17c0.48-0.29,0.97-0.43,1.49-0.43
		c0.99,0,1.71,0.26,2.18,0.78c0.47,0.52,0.71,1.26,0.71,2.22v4.88h-1.08v-4.48c0-0.78-0.14-1.37-0.41-1.79s-0.78-0.62-1.53-0.62
		c-0.4,0-0.74,0.08-1.02,0.24c-0.27,0.16-0.5,0.37-0.67,0.63s-0.29,0.56-0.37,0.9c-0.08,0.33-0.12,0.68-0.12,1.04v4.09h-1.08v-4.48
		c0-0.78-0.14-1.37-0.41-1.79s-0.78-0.62-1.53-0.62c-0.07,0-0.22,0.02-0.45,0.07c-0.24,0.04-0.48,0.16-0.73,0.36
		c-0.25,0.2-0.48,0.49-0.68,0.89c-0.2,0.39-0.3,0.94-0.3,1.64v3.94h-1.08V48.79z"/>
	<path class="st6" d="M525.6,50.93c0,0.58-0.1,1.12-0.3,1.61c-0.2,0.49-0.48,0.92-0.85,1.28s-0.79,0.64-1.29,0.85
		c-0.5,0.2-1.05,0.3-1.65,0.3c-0.59,0-1.14-0.1-1.63-0.3c-0.5-0.2-0.93-0.48-1.29-0.85s-0.64-0.79-0.85-1.28
		c-0.2-0.49-0.3-1.03-0.3-1.61s0.1-1.12,0.3-1.61c0.2-0.49,0.48-0.92,0.85-1.28c0.36-0.36,0.79-0.64,1.29-0.84
		c0.5-0.2,1.04-0.3,1.63-0.3c0.6,0,1.15,0.1,1.65,0.3c0.5,0.2,0.93,0.48,1.29,0.84c0.36,0.36,0.64,0.79,0.85,1.28
		C525.49,49.81,525.6,50.35,525.6,50.93z M524.41,50.93c0-0.43-0.07-0.83-0.21-1.2c-0.14-0.37-0.33-0.7-0.58-0.97
		c-0.25-0.27-0.56-0.49-0.91-0.65c-0.36-0.16-0.76-0.24-1.21-0.24s-0.85,0.08-1.21,0.24c-0.36,0.16-0.66,0.38-0.9,0.65
		s-0.44,0.6-0.58,0.97s-0.21,0.77-0.21,1.2s0.07,0.83,0.21,1.2c0.14,0.37,0.33,0.7,0.58,0.97c0.25,0.27,0.55,0.49,0.9,0.65
		c0.36,0.16,0.76,0.24,1.21,0.24s0.85-0.08,1.21-0.24c0.36-0.16,0.66-0.37,0.91-0.65c0.25-0.27,0.45-0.6,0.58-0.97
		C524.35,51.76,524.41,51.36,524.41,50.93z"/>
	<path class="st6" d="M535.23,54.77h-1.08v-1.28h-0.03c-0.17,0.26-0.38,0.49-0.62,0.67c-0.24,0.19-0.49,0.34-0.75,0.46
		s-0.53,0.21-0.81,0.26c-0.28,0.05-0.54,0.08-0.8,0.08c-0.6,0-1.15-0.1-1.65-0.3c-0.5-0.2-0.93-0.48-1.29-0.85s-0.64-0.79-0.85-1.28
		c-0.2-0.49-0.3-1.03-0.3-1.61s0.1-1.12,0.3-1.61c0.2-0.49,0.48-0.92,0.85-1.28c0.36-0.36,0.79-0.64,1.29-0.84
		c0.5-0.2,1.05-0.3,1.65-0.3c0.25,0,0.52,0.03,0.8,0.08s0.55,0.14,0.81,0.26c0.26,0.12,0.51,0.27,0.75,0.46
		c0.24,0.19,0.45,0.41,0.62,0.67h0.03v-6.01h1.08V54.77z M528.22,50.93c0,0.43,0.07,0.83,0.21,1.2c0.14,0.37,0.33,0.7,0.58,0.97
		c0.25,0.27,0.55,0.49,0.91,0.65c0.36,0.16,0.76,0.24,1.21,0.24c0.44,0,0.85-0.08,1.22-0.24c0.38-0.16,0.7-0.37,0.98-0.65
		c0.27-0.27,0.49-0.6,0.64-0.97c0.15-0.37,0.23-0.77,0.23-1.2s-0.08-0.83-0.23-1.2s-0.37-0.7-0.64-0.97s-0.6-0.49-0.98-0.65
		c-0.38-0.16-0.79-0.24-1.22-0.24c-0.45,0-0.85,0.08-1.21,0.24c-0.36,0.16-0.66,0.38-0.91,0.65c-0.25,0.27-0.45,0.6-0.58,0.97
		S528.22,50.5,528.22,50.93z"/>
	<path class="st6" d="M539.17,44.13c0,0.23-0.08,0.42-0.25,0.57c-0.16,0.15-0.34,0.22-0.54,0.22c-0.2,0-0.38-0.07-0.54-0.22
		c-0.17-0.15-0.25-0.34-0.25-0.57c0-0.23,0.08-0.42,0.25-0.57c0.16-0.15,0.34-0.22,0.54-0.22c0.2,0,0.38,0.07,0.54,0.22
		C539.09,43.71,539.17,43.9,539.17,44.13z M538.93,54.77h-1.08v-7.68h1.08V54.77z"/>
	<path class="st6" d="M545.51,48.07h-2.22v4.53c0,0.28,0.03,0.52,0.08,0.7s0.13,0.32,0.23,0.42c0.1,0.1,0.22,0.17,0.35,0.21
		c0.14,0.04,0.29,0.06,0.45,0.06c0.19,0,0.38-0.03,0.58-0.08c0.2-0.05,0.38-0.13,0.54-0.21l0.05,1c-0.41,0.19-0.89,0.28-1.46,0.28
		c-0.21,0-0.42-0.03-0.65-0.08c-0.22-0.06-0.43-0.16-0.62-0.31c-0.19-0.15-0.34-0.36-0.46-0.62c-0.12-0.26-0.18-0.61-0.18-1.03
		v-4.84h-1.63v-0.99h1.63v-2.17h1.08v2.17h2.22V48.07z"/>
	<path class="st6" d="M548.56,44.13c0,0.23-0.08,0.42-0.25,0.57c-0.16,0.15-0.34,0.22-0.54,0.22c-0.2,0-0.38-0.07-0.54-0.22
		c-0.17-0.15-0.25-0.34-0.25-0.57c0-0.23,0.08-0.42,0.25-0.57c0.16-0.15,0.34-0.22,0.54-0.22c0.2,0,0.38,0.07,0.54,0.22
		C548.48,43.71,548.56,43.9,548.56,44.13z M548.32,54.77h-1.08v-7.68h1.08V54.77z"/>
	<path class="st6" d="M551.68,51.22c0.03,0.38,0.13,0.74,0.28,1.08c0.15,0.34,0.36,0.63,0.61,0.88c0.25,0.25,0.54,0.44,0.87,0.58
		c0.33,0.14,0.68,0.21,1.07,0.21c0.58,0,1.08-0.13,1.5-0.4c0.42-0.27,0.74-0.58,0.96-0.93l0.84,0.69c-0.46,0.58-0.97,1-1.52,1.25
		s-1.15,0.38-1.78,0.38c-0.57,0-1.1-0.1-1.58-0.3c-0.49-0.2-0.91-0.48-1.26-0.85c-0.35-0.36-0.63-0.79-0.83-1.28
		c-0.2-0.49-0.3-1.03-0.3-1.61s0.1-1.12,0.3-1.61c0.2-0.49,0.47-0.92,0.82-1.28c0.35-0.36,0.76-0.64,1.23-0.84
		c0.47-0.2,0.98-0.3,1.53-0.3c0.58,0,1.1,0.1,1.56,0.31c0.46,0.21,0.85,0.48,1.16,0.83c0.31,0.34,0.55,0.75,0.71,1.21
		c0.16,0.47,0.25,0.96,0.25,1.49v0.49H551.68z M556.9,50.34c0-0.73-0.22-1.33-0.66-1.78s-1.05-0.68-1.84-0.68
		c-0.35,0-0.69,0.07-1.02,0.21c-0.33,0.14-0.62,0.32-0.86,0.55c-0.25,0.23-0.44,0.49-0.59,0.79c-0.15,0.29-0.22,0.6-0.22,0.92H556.9
		z"/>
	<path class="st6" d="M564.13,48.91c-0.17-0.32-0.38-0.57-0.66-0.75c-0.27-0.19-0.61-0.28-1-0.28c-0.19,0-0.38,0.02-0.57,0.07
		c-0.19,0.04-0.36,0.11-0.52,0.21s-0.28,0.21-0.37,0.35c-0.09,0.14-0.14,0.32-0.14,0.53c0,0.36,0.13,0.62,0.38,0.79
		c0.25,0.16,0.63,0.31,1.13,0.43l1.1,0.26c0.54,0.12,0.98,0.36,1.34,0.73c0.36,0.37,0.53,0.82,0.53,1.37c0,0.42-0.08,0.77-0.25,1.08
		c-0.17,0.3-0.39,0.55-0.67,0.74c-0.28,0.19-0.6,0.33-0.96,0.42c-0.36,0.09-0.73,0.13-1.1,0.13c-0.59,0-1.14-0.11-1.65-0.34
		c-0.51-0.22-0.94-0.61-1.3-1.16l0.94-0.64c0.22,0.35,0.5,0.63,0.83,0.84s0.73,0.31,1.19,0.31c0.22,0,0.44-0.02,0.66-0.07
		c0.22-0.05,0.41-0.13,0.58-0.23c0.17-0.1,0.31-0.24,0.41-0.4c0.1-0.16,0.16-0.36,0.16-0.57c0-0.38-0.14-0.66-0.43-0.83
		c-0.29-0.17-0.63-0.3-1.03-0.4l-1.05-0.25c-0.13-0.03-0.31-0.09-0.53-0.16c-0.22-0.08-0.44-0.19-0.66-0.34
		c-0.21-0.15-0.4-0.35-0.55-0.6s-0.23-0.55-0.23-0.91c0-0.39,0.08-0.74,0.24-1.03c0.16-0.3,0.37-0.54,0.64-0.72
		c0.27-0.19,0.57-0.33,0.91-0.42c0.34-0.09,0.69-0.14,1.05-0.14c0.54,0,1.03,0.1,1.49,0.31c0.46,0.21,0.81,0.56,1.07,1.07
		L564.13,48.91z"/>
	<path class="st6" d="M569.04,53.98c0,0.23-0.08,0.44-0.25,0.62c-0.16,0.18-0.38,0.27-0.64,0.27s-0.48-0.09-0.64-0.27
		c-0.16-0.18-0.25-0.39-0.25-0.62s0.08-0.43,0.25-0.62s0.38-0.27,0.64-0.27s0.48,0.09,0.64,0.27S569.04,53.75,569.04,53.98z"/>
</g>
<g>
	<g>
		<path class="st1" d="M61.82,46.76h-1.31v9.03H57.5V42.73c-0.11-2.29,1.23-3.2,3.47-3.2c0.52,0,1.92,0.02,2.38,0.09v0.78
			c0,0.95-0.77,1.72-1.72,1.72h0c-0.7,0-1.09,0.29-1.16,0.88v0.79h2.88v1.45C63.34,46.08,62.66,46.76,61.82,46.76z"/>
		<path class="st1" d="M66.37,46.92h-3.02c0.36-2.22,1.93-3.31,4.7-3.31c3.31,0,4.99,1.09,5.06,3.31V51c0,3.31-2,4.79-5.24,5.01
			c-2.88,0.23-4.88-1.11-4.88-3.77c0.07-2.88,2.16-3.65,5.19-3.95c1.29-0.16,1.95-0.54,1.95-1.2c-0.07-0.68-0.7-1.02-1.95-1.02
			C67.12,46.08,66.53,46.35,66.37,46.92z M70.18,50.87v-1.11c-0.7,0.29-1.52,0.54-2.4,0.73c-1.2,0.23-1.81,0.79-1.81,1.68
			c0.07,0.95,0.57,1.41,1.52,1.41C69.16,53.57,70.18,52.57,70.18,50.87z"/>
		<path class="st1" d="M81.36,43.79h-1.42c-4.02,0-6.08,1.93-6.17,5.81v6.19h1.57c0.82,0,1.49-0.67,1.49-1.49l0,0v-4.75
			c0-1.74,0.84-2.63,2.51-2.63C79.64,45.52,80.32,44.47,81.36,43.79z"/>
		<path class="st1" d="M83.08,48.12v6.18l0,0c0,0.82-0.67,1.49-1.49,1.49h-1.57v-7.03c0-2.85,2.31-5.15,5.16-5.15
			c1.54,0,2.71,0.34,3.57,1.02c0.86-0.66,2.04-0.98,3.58-0.98c3.43,0,5.13,1.7,5.1,5.13v7.06h-1.57c-1-0.07-1.5-0.54-1.5-1.5v-6.17
			c-0.07-1.25-0.75-1.86-2.09-1.86s-2.02,0.61-2.04,1.86v7.62h-3.04v-7.67c-0.07-1.25-0.75-1.86-2.09-1.86S83.1,46.88,83.08,48.12z"
			/>
		<path class="st1" d="M101.51,46.76h-0.39v7.56v0c0,0.81-0.66,1.46-1.46,1.46h-1.55V43.47c-0.11-2.29,1.23-3.2,3.47-3.2
			c0.52,0,1,0.02,1.45,0.09v2.5h-0.79c-0.7,0-1.09,0.29-1.16,0.88v0.79h1.95v0.7C103.03,46.08,102.35,46.76,101.51,46.76z"/>
		<path class="st1" d="M113.75,49.85c0,4.13-1.84,6.22-5.47,6.22s-5.44-2.09-5.44-6.22c0-4.17,1.81-6.24,5.44-6.24
			S113.75,45.67,113.75,49.85z M105.9,49.85c0.02,2.34,0.82,3.52,2.36,3.52c1.54,0,2.31-1.23,2.34-3.61c0-2.34-0.77-3.49-2.31-3.49
			C106.7,46.26,105.9,47.46,105.9,49.85z"/>
		<path class="st1" d="M114.4,49.6c0.09-3.88,2.16-5.81,6.17-5.81H121v3.13h-1.02c-1.68,0-2.52,0.88-2.52,2.63v4.76v0
			c0,0.82-0.66,1.48-1.48,1.48h-1.59V49.6z"/>
		<path class="st1" d="M132.5,56.06c-3.63-0.11-5.44-2.22-5.44-6.31s1.84-6.13,5.49-6.15c3.05,0,4.8,1.49,5.27,4.49
			c0.21,1.34-0.84,2.55-2.19,2.55h-5.46c0.11,1.84,0.91,2.77,2.38,2.77c0.7,0,1.36-0.29,1.95-0.86c0.27-0.29,0.61-0.43,1.02-0.43
			h2.22C137.08,54.66,135.44,56.06,132.5,56.06z M130.2,48.49h4.51c-0.18-1.59-0.93-2.4-2.22-2.4S130.43,46.9,130.2,48.49z"/>
		<path class="st1" d="M125.62,46.92c0.84,0,1.5-0.64,1.5-1.5v-1.63h-2.43v-1.91c0-0.84-0.68-1.52-1.52-1.52h-1.5v12.81
			c0,3.11,3.2,2.6,3.2,2.6l0.74,0c0.84,0,1.5-0.64,1.5-1.5v-1.63h-2.1c-0.18,0-0.33-0.15-0.33-0.33v-5.39H125.62z"/>
	</g>
	<g>
		<path class="st6" d="M46.35,48.28c-1.72-0.69-3.61-1.08-5.58-1.08c-1.97,0-3.85,0.38-5.58,1.08c0.59,3.86,2.64,7.22,5.58,9.53
			c2.55,2,5.76,3.2,9.25,3.2c1.97,0,3.85-0.38,5.58-1.08C54.8,54.62,51.2,50.23,46.35,48.28z"/>
		<path class="st5" d="M40.78,34.2c-3.5,2.75-5.75,7.01-5.75,11.81c0,0.77,0.06,1.53,0.17,2.28c0.59,3.86,2.64,7.22,5.58,9.53
			c2.93-2.3,4.99-5.67,5.58-9.53c0.11-0.74,0.17-1.5,0.17-2.28C46.53,41.21,44.27,36.95,40.78,34.2z"/>
		<path class="st3" d="M40.78,47.21c-1.97,0-3.85,0.38-5.58,1.08c-4.84,1.94-8.44,6.34-9.25,11.65c1.72,0.69,3.61,1.08,5.58,1.08
			c3.49,0,6.7-1.2,9.25-3.2c2.93-2.3,4.99-5.67,5.58-9.53C44.63,47.59,42.75,47.21,40.78,47.21z"/>
		<path class="st7" d="M48.55,49.38c-0.7-0.42-1.43-0.79-2.2-1.1c-0.59,3.86-2.64,7.22-5.58,9.53
			C40.78,57.81,48.29,54.79,48.55,49.38z"/>
		<path class="st8" d="M46.35,48.28c0,0-3.97-3.89-11.32-2.63c0,0.12-0.01,0.23-0.01,0.35c0,0.77,0.06,1.53,0.17,2.28
			c1.72-0.69,3.61-1.08,5.58-1.08C42.75,47.21,44.63,47.59,46.35,48.28L46.35,48.28z"/>
	</g>
</g>
<g>
	<path class="st5" d="M26.75,19.91h2.22c0.4,0,0.74,0.05,1,0.16c0.26,0.11,0.47,0.25,0.62,0.42s0.26,0.36,0.32,0.57
		c0.06,0.21,0.09,0.41,0.09,0.61s-0.03,0.4-0.09,0.61c-0.06,0.21-0.16,0.4-0.32,0.57s-0.36,0.31-0.62,0.42
		c-0.26,0.11-0.59,0.16-1,0.16h-1.36v2.78h-0.85V19.91z M27.61,22.69h1.12c0.17,0,0.33-0.01,0.49-0.04
		c0.16-0.03,0.31-0.08,0.44-0.15c0.13-0.07,0.23-0.17,0.31-0.31c0.08-0.13,0.12-0.31,0.12-0.52s-0.04-0.39-0.12-0.52
		c-0.08-0.13-0.18-0.24-0.31-0.31c-0.13-0.07-0.27-0.12-0.44-0.15c-0.16-0.03-0.33-0.04-0.49-0.04h-1.12V22.69z"/>
	<path class="st5" d="M35.37,26.37c-0.48,0-0.92-0.08-1.33-0.25c-0.4-0.17-0.75-0.4-1.04-0.7c-0.29-0.3-0.51-0.65-0.68-1.05
		c-0.16-0.4-0.25-0.84-0.25-1.31c0-0.47,0.08-0.91,0.25-1.31c0.16-0.4,0.39-0.75,0.68-1.05c0.29-0.3,0.63-0.53,1.04-0.7
		c0.4-0.17,0.85-0.25,1.33-0.25S36.3,19.83,36.7,20c0.4,0.17,0.75,0.4,1.04,0.7c0.29,0.3,0.51,0.65,0.68,1.05s0.25,0.84,0.25,1.31
		c0,0.47-0.08,0.91-0.25,1.31c-0.16,0.4-0.39,0.75-0.68,1.05c-0.29,0.3-0.63,0.53-1.04,0.7C36.3,26.29,35.85,26.37,35.37,26.37z
		 M35.37,25.57c0.36,0,0.69-0.07,0.98-0.2c0.29-0.13,0.54-0.31,0.75-0.54c0.21-0.23,0.37-0.49,0.48-0.8s0.17-0.63,0.17-0.98
		c0-0.34-0.06-0.67-0.17-0.97s-0.27-0.57-0.48-0.8c-0.21-0.23-0.46-0.41-0.75-0.54c-0.29-0.13-0.62-0.2-0.98-0.2
		c-0.36,0-0.69,0.07-0.98,0.2c-0.29,0.13-0.54,0.31-0.75,0.54c-0.21,0.23-0.37,0.49-0.48,0.8C33.05,22.39,33,22.72,33,23.06
		c0,0.34,0.06,0.67,0.17,0.98c0.11,0.31,0.27,0.57,0.48,0.8c0.21,0.23,0.46,0.41,0.75,0.54C34.69,25.51,35.01,25.57,35.37,25.57z"/>
	<path class="st5" d="M39.53,19.91h0.89l1.39,5.04h0.02l1.48-5.04h0.98l1.48,5.04h0.02l1.39-5.04h0.89l-1.83,6.3h-0.91l-1.52-5.15
		H43.8l-1.51,5.15h-0.91L39.53,19.91z"/>
	<path class="st5" d="M49.34,19.91h4.07v0.8H50.2v1.88h2.99v0.8H50.2v2.02h3.37v0.8h-4.23V19.91z"/>
	<path class="st5" d="M55.23,19.91h2.22c0.4,0,0.74,0.05,1,0.16c0.26,0.11,0.47,0.25,0.62,0.42s0.26,0.36,0.32,0.57
		c0.06,0.21,0.09,0.41,0.09,0.61c0,0.2-0.04,0.4-0.11,0.58c-0.07,0.19-0.17,0.36-0.31,0.51c-0.13,0.15-0.3,0.28-0.49,0.38
		c-0.19,0.1-0.41,0.17-0.65,0.19l1.79,2.88h-1.07l-1.6-2.78h-0.95v2.78h-0.85V19.91z M56.08,22.69h1.12c0.17,0,0.33-0.01,0.49-0.04
		c0.16-0.03,0.31-0.08,0.44-0.15c0.13-0.07,0.23-0.17,0.31-0.31c0.08-0.13,0.12-0.31,0.12-0.52s-0.04-0.39-0.12-0.52
		c-0.08-0.13-0.18-0.24-0.31-0.31c-0.13-0.07-0.27-0.12-0.44-0.15c-0.16-0.03-0.33-0.04-0.49-0.04h-1.12V22.69z"/>
	<path class="st5" d="M61.11,19.91h4.07v0.8h-3.21v1.88h2.99v0.8h-2.99v2.02h3.37v0.8h-4.23V19.91z"/>
	<path class="st5" d="M66.86,19.91h2.2c0.45,0,0.84,0.05,1.17,0.15c0.33,0.1,0.63,0.24,0.87,0.41c0.25,0.17,0.45,0.36,0.61,0.58
		s0.29,0.45,0.39,0.68c0.1,0.23,0.16,0.46,0.21,0.69c0.04,0.23,0.06,0.45,0.06,0.64c0,0.4-0.07,0.79-0.22,1.17s-0.37,0.71-0.66,1.01
		c-0.29,0.29-0.65,0.53-1.08,0.71c-0.43,0.18-0.93,0.27-1.49,0.27h-2.06V19.91z M67.71,25.41h1.08c0.36,0,0.7-0.05,1.03-0.15
		c0.32-0.1,0.61-0.25,0.85-0.44c0.24-0.2,0.44-0.44,0.58-0.74c0.14-0.29,0.21-0.64,0.21-1.03c0-0.2-0.03-0.44-0.1-0.71
		c-0.07-0.27-0.19-0.53-0.37-0.77s-0.43-0.45-0.75-0.62c-0.32-0.17-0.74-0.25-1.25-0.25h-1.28V25.41z"/>
	<path class="st5" d="M76.96,19.91h2.19c0.27,0,0.53,0.03,0.76,0.1c0.23,0.07,0.44,0.16,0.61,0.29c0.17,0.13,0.3,0.29,0.4,0.49
		s0.15,0.43,0.15,0.7c0,0.36-0.1,0.66-0.3,0.89c-0.2,0.23-0.46,0.4-0.78,0.5v0.02c0.19,0.01,0.37,0.06,0.53,0.15
		c0.17,0.09,0.31,0.2,0.43,0.34c0.12,0.14,0.22,0.3,0.29,0.49s0.11,0.38,0.11,0.6c0,0.29-0.06,0.54-0.17,0.75s-0.27,0.4-0.48,0.55
		s-0.44,0.26-0.7,0.34c-0.27,0.08-0.55,0.12-0.86,0.12h-2.16V19.91z M77.82,22.53h1.17c0.16,0,0.31-0.02,0.45-0.05
		c0.14-0.03,0.27-0.09,0.37-0.17c0.11-0.08,0.19-0.17,0.25-0.29c0.06-0.12,0.09-0.26,0.09-0.44c0-0.25-0.08-0.47-0.24-0.65
		c-0.16-0.18-0.41-0.28-0.76-0.28h-1.34V22.53z M77.82,25.47h1.26c0.13,0,0.27-0.01,0.43-0.04c0.16-0.03,0.3-0.08,0.44-0.16
		s0.25-0.19,0.35-0.33c0.1-0.14,0.14-0.32,0.14-0.54c0-0.37-0.12-0.65-0.36-0.84c-0.24-0.19-0.57-0.28-0.99-0.28h-1.26V25.47z"/>
	<path class="st5" d="M84.51,23.52l-2.39-3.61h1.1l1.72,2.77l1.77-2.77h1.04l-2.39,3.61v2.69h-0.85V23.52z"/>
</g>
<g>
	<g>
		<path class="st9" d="M240.57,65.33c0.54,0,0.96-0.04,1.3-0.08v8.53h1.21V58.89c0.29,0.04,0.75,0.08,1.25,0.08
			c1.55,0,3.85-0.29,5.31-1.8c2.38-2.38,1.67-6.82,1.67-7.03c-0.04-0.25-0.25-0.46-0.5-0.5c-0.17-0.04-4.64-0.75-7.03,1.67
			c-0.29,0.29-0.5,0.59-0.71,0.92V39.61c0.84-0.67,3.39-2.93,3.39-5.73c0-3.26-3.51-5.81-3.64-5.9c-0.21-0.17-0.5-0.17-0.71,0
			c-0.17,0.13-3.64,2.63-3.64,5.9c0,2.8,2.55,5.06,3.39,5.73v19.07c-0.21-0.33-0.46-0.67-0.75-0.96c-2.38-2.38-6.82-1.67-7.03-1.67
			c-0.25,0.04-0.46,0.25-0.5,0.5c-0.04,0.17-0.75,4.6,1.67,7.03C236.73,65.04,239.03,65.33,240.57,65.33z M244.63,52.16
			c1.55-1.55,4.43-1.46,5.52-1.38c0.08,1.09,0.21,3.93-1.38,5.52c-1.55,1.55-4.43,1.46-5.52,1.38
			C243.12,56.59,243.04,53.75,244.63,52.16z M239.65,33.89c0-2.09,1.97-3.97,2.8-4.64c0.84,0.67,2.8,2.55,2.8,4.64
			c0,2.09-1.97,3.97-2.8,4.64C241.62,37.86,239.65,35.98,239.65,33.89z M234.72,57.18c1.09-0.08,3.93-0.21,5.52,1.38
			c1.55,1.55,1.46,4.43,1.38,5.52c-1.09,0.08-3.93,0.21-5.52-1.38C234.51,61.15,234.63,58.27,234.72,57.18z"/>
		<path class="st9" d="M255.54,47.27c0.54,0,0.96-0.04,1.3-0.08v26.6h1.21V40.83c0.29,0.04,0.75,0.08,1.25,0.08
			c1.55,0,3.85-0.29,5.31-1.8c2.38-2.38,1.67-6.82,1.67-7.03c-0.04-0.25-0.25-0.46-0.5-0.5c-0.17-0.04-4.64-0.75-7.03,1.67
			c-0.29,0.29-0.5,0.59-0.71,0.92v-5.73c0-0.33-0.25-0.59-0.59-0.59c-0.33,0-0.59,0.25-0.59,0.59v12.13
			c-0.21-0.33-0.46-0.67-0.75-0.96c-2.38-2.38-6.82-1.67-7.03-1.67c-0.25,0.04-0.46,0.25-0.5,0.5c-0.04,0.17-0.75,4.6,1.67,7.03
			C251.7,46.97,253.96,47.27,255.54,47.27z M259.6,34.09c1.55-1.55,4.43-1.46,5.52-1.38c0.08,1.09,0.21,3.93-1.38,5.52
			c-1.59,1.55-4.43,1.46-5.52,1.38C258.1,38.53,258.01,35.68,259.6,34.09z M249.69,39.11c1.09-0.08,3.93-0.21,5.52,1.38
			c1.55,1.55,1.46,4.43,1.38,5.52c-1.09,0.08-3.97,0.21-5.52-1.38C249.48,43.09,249.56,40.2,249.69,39.11z"/>
		<path class="st9" d="M272.1,39.61v13.05c-0.21-0.33-0.46-0.67-0.75-0.96c-2.38-2.38-6.82-1.67-7.03-1.67
			c-0.25,0.04-0.46,0.25-0.5,0.5c-0.04,0.17-0.75,4.6,1.67,7.03c1.51,1.51,3.76,1.8,5.31,1.8c0.54,0,0.96-0.04,1.3-0.08v14.55h1.21
			V52.87c0.29,0.04,0.75,0.08,1.25,0.08c1.55,0,3.85-0.29,5.31-1.8c2.38-2.38,1.67-6.82,1.67-7.03c-0.04-0.25-0.25-0.46-0.5-0.5
			c-0.17-0.04-4.64-0.75-7.03,1.67c-0.29,0.29-0.5,0.59-0.71,0.92v-6.61c0.84-0.67,3.39-2.93,3.39-5.73c0-3.26-3.51-5.81-3.64-5.9
			c-0.21-0.17-0.5-0.17-0.71,0c-0.17,0.13-3.64,2.63-3.64,5.9C268.72,36.69,271.27,38.95,272.1,39.61z M271.9,58.06
			c-1.09,0.08-3.93,0.21-5.52-1.38c-1.55-1.55-1.46-4.43-1.38-5.52c1.09-0.08,3.93-0.21,5.52,1.38
			C272.06,54.13,271.98,56.97,271.9,58.06z M274.91,46.14c1.55-1.55,4.43-1.46,5.52-1.38c0.08,1.09,0.21,3.93-1.38,5.52
			c-1.59,1.55-4.43,1.46-5.52,1.38C273.4,50.57,273.32,47.73,274.91,46.14z M272.69,29.24c0.84,0.67,2.8,2.55,2.8,4.64
			c0,2.09-1.97,3.97-2.8,4.64c-0.84-0.67-2.8-2.55-2.8-4.64C269.93,31.79,271.9,29.91,272.69,29.24z"/>
	</g>
	<g>
		<path class="st9" d="M375.52,39.61v13.05c-0.21-0.33-0.46-0.67-0.75-0.96c-2.38-2.38-6.82-1.67-7.03-1.67
			c-0.25,0.04-0.46,0.25-0.5,0.5c-0.04,0.17-0.75,4.6,1.67,7.03c1.51,1.51,3.76,1.8,5.31,1.8c0.54,0,0.96-0.04,1.3-0.08v14.55h1.21
			V52.87c0.29,0.04,0.75,0.08,1.25,0.08c1.55,0,3.85-0.29,5.31-1.8c2.38-2.38,1.67-6.82,1.67-7.03c-0.04-0.25-0.25-0.46-0.5-0.5
			c-0.17-0.04-4.64-0.75-7.03,1.67c-0.29,0.29-0.5,0.59-0.71,0.92v-6.61c0.84-0.67,3.39-2.93,3.39-5.73c0-3.26-3.51-5.81-3.64-5.9
			c-0.21-0.17-0.5-0.17-0.71,0c-0.17,0.13-3.64,2.63-3.64,5.9C372.13,36.69,374.68,38.95,375.52,39.61z M375.31,58.06
			c-1.09,0.08-3.93,0.21-5.52-1.38c-1.55-1.55-1.46-4.43-1.38-5.52c1.09-0.08,3.93-0.21,5.52,1.38
			C375.48,54.13,375.4,56.97,375.31,58.06z M378.32,46.14c1.55-1.55,4.43-1.46,5.52-1.38c0.08,1.09,0.21,3.93-1.38,5.52
			c-1.59,1.55-4.43,1.46-5.52,1.38C376.82,50.57,376.73,47.73,378.32,46.14z M376.11,29.24c0.84,0.67,2.8,2.55,2.8,4.64
			c0,2.09-1.97,3.97-2.8,4.64c-0.84-0.67-2.8-2.55-2.8-4.64C373.35,31.79,375.31,29.91,376.11,29.24z"/>
		<path class="st9" d="M343.99,65.33c0.54,0,0.96-0.04,1.3-0.08v8.53h1.21V58.89c0.29,0.04,0.75,0.08,1.25,0.08
			c1.55,0,3.85-0.29,5.31-1.8c2.38-2.38,1.67-6.82,1.67-7.03c-0.04-0.25-0.25-0.46-0.5-0.5c-0.17-0.04-4.64-0.75-7.03,1.67
			c-0.29,0.29-0.5,0.59-0.71,0.92V39.61c0.84-0.67,3.39-2.93,3.39-5.73c0-3.26-3.51-5.81-3.64-5.9c-0.21-0.17-0.5-0.17-0.71,0
			c-0.17,0.13-3.64,2.63-3.64,5.9c0,2.8,2.55,5.06,3.39,5.73v19.07c-0.21-0.33-0.46-0.67-0.75-0.96c-2.38-2.38-6.82-1.67-7.03-1.67
			c-0.25,0.04-0.46,0.25-0.5,0.5c-0.04,0.17-0.75,4.6,1.67,7.03C340.14,65.04,342.44,65.33,343.99,65.33z M348.05,52.16
			c1.55-1.55,4.43-1.46,5.52-1.38c0.08,1.09,0.21,3.93-1.38,5.52c-1.55,1.55-4.43,1.46-5.52,1.38
			C346.54,56.59,346.46,53.75,348.05,52.16z M343.07,33.89c0-2.09,1.97-3.97,2.8-4.64c0.84,0.67,2.8,2.55,2.8,4.64
			c0,2.09-1.97,3.97-2.8,4.64C345.04,37.86,343.07,35.98,343.07,33.89z M338.14,57.18c1.09-0.08,3.93-0.21,5.52,1.38
			c1.55,1.55,1.46,4.43,1.38,5.52c-1.09,0.08-3.93,0.21-5.52-1.38C337.93,61.15,338.05,58.27,338.14,57.18z"/>
		<path class="st9" d="M358.96,47.27c0.54,0,0.96-0.04,1.3-0.08v26.6h1.21V40.83c0.29,0.04,0.75,0.08,1.25,0.08
			c1.55,0,3.85-0.29,5.31-1.8c2.38-2.38,1.67-6.82,1.67-7.03c-0.04-0.25-0.25-0.46-0.5-0.5c-0.17-0.04-4.64-0.75-7.03,1.67
			c-0.29,0.29-0.5,0.59-0.71,0.92v-5.73c0-0.33-0.25-0.59-0.59-0.59c-0.33,0-0.59,0.25-0.59,0.59v12.13
			c-0.21-0.33-0.46-0.67-0.75-0.96c-2.38-2.38-6.82-1.67-7.03-1.67c-0.25,0.04-0.46,0.25-0.5,0.5c-0.04,0.17-0.75,4.6,1.67,7.03
			C355.11,46.97,357.37,47.27,358.96,47.27z M363.02,34.09c1.55-1.55,4.43-1.46,5.52-1.38c0.08,1.09,0.21,3.93-1.38,5.52
			c-1.59,1.55-4.43,1.46-5.52,1.38C361.51,38.53,361.43,35.68,363.02,34.09z M353.11,39.11c1.09-0.08,3.93-0.21,5.52,1.38
			c1.55,1.55,1.46,4.43,1.38,5.52c-1.09,0.08-3.93,0.21-5.52-1.38C352.9,43.09,352.98,40.2,353.11,39.11z"/>
	</g>
	<g>
		<path class="st9" d="M323.88,39.61v13.05c-0.21-0.33-0.46-0.67-0.75-0.96c-2.38-2.38-6.82-1.67-7.03-1.67
			c-0.25,0.04-0.46,0.25-0.5,0.5c-0.04,0.17-0.75,4.6,1.67,7.03c1.51,1.51,3.76,1.8,5.31,1.8c0.54,0,0.96-0.04,1.3-0.08v14.55h1.21
			V52.87c0.29,0.04,0.75,0.08,1.25,0.08c1.55,0,3.85-0.29,5.31-1.8c2.38-2.38,1.67-6.82,1.67-7.03c-0.04-0.25-0.25-0.46-0.5-0.5
			c-0.17-0.04-4.64-0.75-7.03,1.67c-0.29,0.29-0.5,0.59-0.71,0.92v-6.61c0.84-0.67,3.39-2.93,3.39-5.73c0-3.26-3.51-5.81-3.64-5.9
			c-0.21-0.17-0.5-0.17-0.71,0c-0.17,0.13-3.64,2.63-3.64,5.9C320.49,36.69,323.04,38.95,323.88,39.61z M323.67,58.06
			c-1.09,0.08-3.93,0.21-5.52-1.38c-1.55-1.55-1.46-4.43-1.38-5.52c1.09-0.08,3.93-0.21,5.52,1.38
			C323.83,54.13,323.75,56.97,323.67,58.06z M326.68,46.14c1.55-1.55,4.43-1.46,5.52-1.38c0.08,1.09,0.21,3.93-1.38,5.52
			c-1.59,1.55-4.43,1.46-5.52,1.38C325.17,50.57,325.09,47.73,326.68,46.14z M324.46,29.24c0.84,0.67,2.8,2.55,2.8,4.64
			c0,2.09-1.97,3.97-2.8,4.64c-0.84-0.67-2.8-2.55-2.8-4.64C321.7,31.79,323.67,29.91,324.46,29.24z"/>
		<path class="st9" d="M307.32,47.27c0.54,0,0.96-0.04,1.3-0.08v26.6h1.21V40.83c0.29,0.04,0.75,0.08,1.25,0.08
			c1.55,0,3.85-0.29,5.31-1.8c2.38-2.38,1.67-6.82,1.67-7.03c-0.04-0.25-0.25-0.46-0.5-0.5c-0.17-0.04-4.64-0.75-7.03,1.67
			c-0.29,0.29-0.5,0.59-0.71,0.92v-5.73c0-0.33-0.25-0.59-0.59-0.59c-0.33,0-0.59,0.25-0.59,0.59v12.13
			c-0.21-0.33-0.46-0.67-0.75-0.96c-2.38-2.38-6.82-1.67-7.03-1.67c-0.25,0.04-0.46,0.25-0.5,0.5c-0.04,0.17-0.75,4.6,1.67,7.03
			C303.47,46.97,305.73,47.27,307.32,47.27z M311.37,34.09c1.55-1.55,4.43-1.46,5.52-1.38c0.08,1.09,0.21,3.93-1.38,5.52
			c-1.59,1.55-4.43,1.46-5.52,1.38C309.87,38.53,309.78,35.68,311.37,34.09z M301.46,39.11c1.09-0.08,3.93-0.21,5.52,1.38
			c1.55,1.55,1.46,4.43,1.38,5.52c-1.09,0.08-3.93,0.21-5.52-1.38C301.25,43.09,301.34,40.2,301.46,39.11z"/>
		<path class="st9" d="M292.34,65.33c0.54,0,0.96-0.04,1.3-0.08v8.53h1.21V58.89c0.29,0.04,0.75,0.08,1.25,0.08
			c1.55,0,3.85-0.29,5.31-1.8c2.38-2.38,1.67-6.82,1.67-7.03c-0.04-0.25-0.25-0.46-0.5-0.5c-0.17-0.04-4.64-0.75-7.03,1.67
			c-0.29,0.29-0.5,0.59-0.71,0.92V39.61c0.84-0.67,3.39-2.93,3.39-5.73c0-3.26-3.51-5.81-3.64-5.9c-0.21-0.17-0.5-0.17-0.71,0
			c-0.17,0.13-3.64,2.63-3.64,5.9c0,2.8,2.55,5.06,3.39,5.73v19.07c-0.21-0.33-0.46-0.67-0.75-0.96c-2.38-2.38-6.82-1.67-7.03-1.67
			c-0.25,0.04-0.46,0.25-0.5,0.5c-0.04,0.17-0.75,4.6,1.67,7.03C288.5,65.04,290.8,65.33,292.34,65.33z M296.4,52.16
			c1.55-1.55,4.43-1.46,5.52-1.38c0.08,1.09,0.21,3.93-1.38,5.52c-1.55,1.55-4.43,1.46-5.52,1.38
			C294.9,56.59,294.81,53.75,296.4,52.16z M291.42,33.89c0-2.09,1.97-3.97,2.8-4.64c0.84,0.67,2.8,2.55,2.8,4.64
			c0,2.09-1.97,3.97-2.8,4.64C293.39,37.86,291.42,35.98,291.42,33.89z M286.49,57.18c1.09-0.08,3.93-0.21,5.52,1.38
			c1.55,1.55,1.46,4.43,1.38,5.52c-1.09,0.08-3.93,0.21-5.52-1.38C286.28,61.15,286.41,58.27,286.49,57.18z"/>
	</g>
</g>
</svg>
