<?xml version="1.0" encoding="utf-8"?>
<!-- Generator: Adobe Illustrator 18.0.0, SVG Export Plug-In . SVG Version: 6.00 Build 0)  -->
<!DOCTYPE svg PUBLIC "-//W3C//DTD SVG 1.1//EN" "http://www.w3.org/Graphics/SVG/1.1/DTD/svg11.dtd">
<svg version="1.1" id="Layer_1" xmlns="http://www.w3.org/2000/svg" xmlns:xlink="http://www.w3.org/1999/xlink" x="0px" y="0px"
	 viewBox="0 0 35.7 35.7" enable-background="new 0 0 35.7 35.7" xml:space="preserve">
<g>
	<circle fill="#1D3B2D" cx="17.8" cy="17.8" r="17.3"/>
	<path fill="#8DC63F" d="M17.8,0C8,0,0,8,0,17.8c0,9.9,8,17.8,17.8,17.8s17.8-8,17.8-17.8C35.7,8,27.7,0,17.8,0 M17.8,34.3
		c-3.9,0-7.4-1.3-10.2-3.6c0.5-0.2,1.2-0.5,1.5-0.6c1-0.4,2.1-0.7,3.2-0.9c1.5-0.3,1.3-1,1.4-2.5c0-0.2,0.4-2,0.1-2.1
		c-1-0.5-1.3-2.1-1.3-3.1c0-0.6,0-0.9-0.4-1.3c-0.3-0.4-0.5-0.8-0.7-1.2c-0.4-0.9-0.9-2.2-0.5-3.2c0.1-0.2,0.2-0.4,0.3-0.6
		c0.1-0.4-0.2-0.7-0.2-1.1c-0.1-0.5-0.1-0.9-0.2-1.4c-0.1-0.9-0.1-1.9,0-2.8c0.1-1,0.9-1.8,1.6-2.5C14,5.8,16.7,4.6,19,5.1
		c2.5,0.5,5.1,1.5,5.7,4.2c0.2,1,0.2,2.1,0.1,3.1c-0.1,0.7-0.3,1.4-0.3,2c0,0.5,0.4,1,0.5,1.4c0.1,0.5-0.2,1.4-0.3,1.9
		c-0.2,0.7-0.4,1.4-0.7,2c-0.3,0.6-0.7,0.9-0.8,1.6c-0.1,1-0.3,2.5-1.2,3c-0.2,0.1,0.1,2,0.1,2.2c0.1,1.6,0.6,2.3,2.1,2.5
		c1.1,0.2,2.2,0.5,3.2,0.9c0.2,0.1,0.6,0.3,1,0.4C25.4,32.9,21.8,34.3,17.8,34.3"/>
</g>
</svg>
