<?xml version="1.0" encoding="utf-8"?>
<!-- Generator: Adobe Illustrator 18.0.0, SVG Export Plug-In . SVG Version: 6.00 Build 0)  -->
<!DOCTYPE svg PUBLIC "-//W3C//DTD SVG 1.1//EN" "http://www.w3.org/Graphics/SVG/1.1/DTD/svg11.dtd">
<svg version="1.1" id="Layer_1" xmlns="http://www.w3.org/2000/svg" xmlns:xlink="http://www.w3.org/1999/xlink" x="0px" y="0px"
	 viewBox="0 0 48.1 49.5" enable-background="new 0 0 48.1 49.5" xml:space="preserve">
<g>
	<g>
		<g>
			<path fill="#FFFFFF" d="M21.9,49.5H3.1c-0.6,0-1-0.4-1-1V29.7c0-0.6,0.4-1,1-1h18.8c0.6,0,1,0.4,1,1v18.8
				C22.9,49.1,22.5,49.5,21.9,49.5z M4.1,47.5h16.8V30.7H4.1V47.5z"/>
		</g>
		<g>
			<path fill="#FFFFFF" d="M24,30.7H1c-0.6,0-1-0.4-1-1v-5c0-0.6,0.4-1,1-1h23c0.6,0,1,0.4,1,1v5C25,30.3,24.6,30.7,24,30.7z
				 M2,28.7h21v-3H2V28.7z"/>
		</g>
		<g>
			<path fill="#FFFFFF" d="M15.8,40.3H9.2c-1.7,0-3-1.3-3-3v-0.2c0-1.7,1.3-3,3-3h6.6c1.7,0,3,1.3,3,3v0.2
				C18.8,39,17.5,40.3,15.8,40.3z M9.2,36.1c-0.6,0-1,0.4-1,1v0.2c0,0.6,0.4,1,1,1h6.6c0.6,0,1-0.4,1-1v-0.2c0-0.6-0.4-1-1-1H9.2z"
				/>
		</g>
		<g>
			<path fill="#FFFFFF" d="M45,49.5H26.2c-0.6,0-1-0.4-1-1V29.7c0-0.6,0.4-1,1-1H45c0.6,0,1,0.4,1,1v18.8C46,49.1,45.5,49.5,45,49.5
				z M27.2,47.5H44V30.7H27.2V47.5z"/>
		</g>
		<g>
			<path fill="#FFFFFF" d="M47.1,30.7H24c-0.6,0-1-0.4-1-1v-5c0-0.6,0.4-1,1-1h23c0.6,0,1,0.4,1,1v5C48.1,30.3,47.6,30.7,47.1,30.7z
				 M25,28.7h21v-3H25V28.7z"/>
		</g>
		<g>
			<path fill="#FFFFFF" d="M38.9,40.3h-6.6c-1.7,0-3-1.3-3-3v-0.2c0-1.7,1.3-3,3-3h6.6c1.7,0,3,1.3,3,3v0.2
				C41.9,39,40.5,40.3,38.9,40.3z M32.2,36.1c-0.6,0-1,0.4-1,1v0.2c0,0.6,0.4,1,1,1h6.6c0.6,0,1-0.4,1-1v-0.2c0-0.6-0.4-1-1-1H32.2z
				"/>
		</g>
	</g>
	<g>
		<g>
			<path fill="#FFFFFF" d="M33.4,25.8H14.6c-0.6,0-1-0.4-1-1V6c0-0.6,0.4-1,1-1h18.8c0.6,0,1,0.4,1,1v18.8
				C34.4,25.3,34,25.8,33.4,25.8z M15.6,23.8h16.8V7H15.6V23.8z"/>
		</g>
		<g>
			<path fill="#FFFFFF" d="M35.6,7h-23c-0.6,0-1-0.4-1-1V1c0-0.6,0.4-1,1-1h23c0.6,0,1,0.4,1,1v5C36.6,6.5,36.1,7,35.6,7z M13.5,5
				h21V2h-21V5z"/>
		</g>
		<g>
			<path fill="#FFFFFF" d="M27.4,16.5h-6.6c-1.7,0-3-1.3-3-3v-0.2c0-1.7,1.3-3,3-3h6.6c1.7,0,3,1.3,3,3v0.2
				C30.4,15.2,29,16.5,27.4,16.5z M20.7,12.3c-0.6,0-1,0.4-1,1v0.2c0,0.6,0.4,1,1,1h6.6c0.6,0,1-0.4,1-1v-0.2c0-0.6-0.4-1-1-1H20.7z
				"/>
		</g>
	</g>
</g>
</svg>
