<?xml version="1.0" encoding="utf-8"?>
<!-- Generator: Adobe Illustrator 18.0.0, SVG Export Plug-In . SVG Version: 6.00 Build 0)  -->
<!DOCTYPE svg PUBLIC "-//W3C//DTD SVG 1.1//EN" "http://www.w3.org/Graphics/SVG/1.1/DTD/svg11.dtd">
<svg version="1.1" id="Layer_1" xmlns="http://www.w3.org/2000/svg" xmlns:xlink="http://www.w3.org/1999/xlink" x="0px" y="0px"
	 viewBox="0 0 841.9 595.3" enable-background="new 0 0 841.9 595.3" xml:space="preserve">
<path fill="#FFFFFF" d="M684.4,117.1H432.5v48.3h251.9V117.1L684.4,117.1z M684.4,196.9H432.5v48.3h251.9V196.9L684.4,196.9z
	 M491.3,320.7h134.4v-48.3H491.3V320.7L491.3,320.7z M50.4,165.4h172.2v-48.3H50.4V165.4z M0,289.2h222.5V241H0
	C0,238.9,0,289.2,0,289.2z M50.4,413.1h172.2v-48.3H50.4V413.1z M277.1,3.7v520.7h67.2c10.5,39.9,46.2,67.2,88.2,67.2
	s77.7-29.4,88.2-67.2h79.8c10.5,39.9,46.2,67.2,88.2,67.2c42,0,77.7-29.4,88.2-67.2H844V3.7H277.1z M430.4,543.3
	c-23.1,0-44.1-18.9-44.1-44.1s18.9-44.1,44.1-44.1c23.1,0,44.1,18.9,44.1,44.1S455.6,543.3,430.4,543.3z M686.5,543.3
	c-23.1,0-44.1-18.9-44.1-44.1s18.9-44.1,44.1-44.1s44.1,18.9,44.1,44.1S711.7,543.3,686.5,543.3z M793.6,476.1h-16.8
	c-10.5-39.9-46.2-67.2-88.2-67.2c-42,0-77.7,29.4-88.2,67.2h-79.8c-10.5-39.9-46.2-67.2-88.2-67.2s-77.7,29.4-88.2,67.2h-16.8V52
	h468.2L793.6,476.1L793.6,476.1z M413.6,482.4c-4.2,4.2-6.3,10.5-6.3,16.8c0,6.3,2.1,12.6,6.3,16.8c4.2,4.2,10.5,6.3,16.8,6.3
	s12.6-2.1,16.8-6.3c4.2-4.2,6.3-10.5,6.3-16.8c0-6.3-2.1-12.6-6.3-16.8C438.8,474,422,474,413.6,482.4z M669.7,482.4
	c-4.2,4.2-6.3,10.5-6.3,16.8c0,6.3,2.1,12.6,6.3,16.8c4.2,4.2,10.5,6.3,16.8,6.3s12.6-2.1,16.8-6.3c4.2-4.2,6.3-10.5,6.3-16.8
	c0-6.3-2.1-12.6-6.3-16.8C694.9,474,678.1,474,669.7,482.4z"/>
</svg>
