<?xml version="1.0" encoding="utf-8"?>
<!-- Generator: Adobe Illustrator 18.0.0, SVG Export Plug-In . SVG Version: 6.00 Build 0)  -->
<!DOCTYPE svg PUBLIC "-//W3C//DTD SVG 1.1//EN" "http://www.w3.org/Graphics/SVG/1.1/DTD/svg11.dtd">
<svg version="1.1" id="Layer_1" xmlns="http://www.w3.org/2000/svg" xmlns:xlink="http://www.w3.org/1999/xlink" x="0px" y="0px"
	 viewBox="0 0 51.7 49.5" enable-background="new 0 0 51.7 49.5" xml:space="preserve">
<g>
	<path fill="#FFFFFF" d="M7.9,10v29.7H4.6v1.5h3.3v1.1H1.8v1.5h48.1v-1.5h-5.8v-1.1h3.3v-1.5h-3.3V10c1.1-1,1.7-2.3,1.9-3.7
		c0.2-2.9-1.9-5.5-2-5.6L43.4,0l-0.6,0.7c-1.6,1.9-2.3,3.8-2.1,5.7c0.2,1.9,1.3,3.1,1.9,3.6v29.7H26.8V10c1.1-1,1.7-2.3,1.9-3.7
		c0.2-2.9-1.9-5.5-2-5.6L26,0l-0.6,0.7c-1.6,1.9-2.3,3.8-2.1,5.7c0.2,1.9,1.3,3.1,1.9,3.6v29.7H9.4V10c1.1-1,1.7-2.3,1.9-3.7
		c0.2-2.9-1.9-5.5-2-5.6L8.6,0L8.1,0.7C6.5,2.6,5.8,4.5,6,6.4C6.2,8.2,7.4,9.5,7.9,10z M42.3,6.2c-0.1-1.2,0.2-2.4,1.1-3.7
		c0.5,0.8,1.2,2.3,1.1,3.7c-0.1,0.9-0.4,1.7-1.1,2.4C43,8.1,42.4,7.3,42.3,6.2z M24.9,6.2C24.7,5,25.1,3.7,26,2.4
		c0.5,0.8,1.2,2.3,1.1,3.7c-0.1,0.9-0.4,1.7-1.1,2.4C25.6,8.1,25,7.3,24.9,6.2z M42.7,41.1v1.1H26.8v-1.1H42.7z M25.3,41.1v1.1H9.4
		v-1.1H25.3z M8.6,2.4c0.5,0.8,1.2,2.3,1.1,3.7C9.7,7.1,9.3,7.9,8.6,8.6c-0.4-0.5-1-1.3-1.1-2.4C7.4,5,7.7,3.7,8.6,2.4z"/>
	<path fill="#FFFFFF" d="M9.8,16.7l0.1,0.8l0.8-0.2c5.4-1.1,6.1-6.8,6.1-6.9l0.1-1.1l-1.1,0.3C9.1,11.7,9.8,16.7,9.8,16.7z M15,11.6
		c-0.4,1.3-1.4,3.2-3.7,4.1C11.5,14.6,12.2,12.8,15,11.6z"/>
	<path fill="#FFFFFF" d="M15.8,16.6c-6.8,2-6,7-6,7.1l0.1,0.8l0.8-0.2c5.4-1.1,6.1-6.8,6.1-6.9l0.1-1.1L15.8,16.6z M11.3,22.6
		c0.2-1.1,0.9-2.9,3.7-4.1C14.6,19.8,13.6,21.7,11.3,22.6z"/>
	<path fill="#FFFFFF" d="M15.8,23.6c-6.8,2-6,7-6,7.1l0.1,0.8l0.8-0.2c5.4-1.1,6.1-6.8,6.1-6.9l0.1-1.1L15.8,23.6z M11.3,29.5
		c0.2-1.1,0.9-2.8,3.7-4.1C14.5,26.8,13.5,28.7,11.3,29.5z"/>
	<path fill="#FFFFFF" d="M9.8,37.6l0.1,0.8l0.8-0.2c5.4-1.1,6.1-6.8,6.1-6.9l0.1-1.1l-1.1,0.3C9.1,32.6,9.8,37.5,9.8,37.6z
		 M11.3,36.5c0.2-1.1,0.9-2.8,3.7-4.1C14.5,33.7,13.5,35.6,11.3,36.5z"/>
	<path fill="#FFFFFF" d="M6.6,17.3l0.8,0.2l0.1-0.8c0,0,0.7-5-6-7.1L0.4,9.3l0.1,1.1C0.5,10.5,1.2,16.2,6.6,17.3z M6,15.6
		c-2.3-0.8-3.3-2.8-3.7-4.1C5.1,12.8,5.8,14.6,6,15.6z"/>
	<path fill="#FFFFFF" d="M6.6,24.3l0.8,0.2l0.1-0.8c0,0,0.7-5-6-7.1l-1.1-0.3l0.1,1.1C0.5,17.5,1.2,23.2,6.6,24.3z M6,22.6
		c-2.3-0.8-3.3-2.8-3.7-4.1C5.1,19.7,5.8,21.5,6,22.6z"/>
	<path fill="#FFFFFF" d="M6.6,31.3l0.8,0.2l0.1-0.8c0-0.1,0.7-5-6-7.1l-1.1-0.3l0.1,1.1C0.5,24.4,1.2,30.1,6.6,31.3z M6,29.5
		c-2.3-0.8-3.3-2.8-3.7-4.1C5.1,26.7,5.8,28.5,6,29.5z"/>
	<path fill="#FFFFFF" d="M6.6,38.2l0.8,0.2l0.1-0.8c0-0.1,0.7-5-6-7.1l-1.1-0.3l0.1,1.1C0.5,31.4,1.2,37.1,6.6,38.2z M6,36.5
		c-2.3-0.8-3.3-2.8-3.7-4.1C5.1,33.6,5.8,35.4,6,36.5z"/>
	<path fill="#FFFFFF" d="M27.2,16.7l0.1,0.8l0.8-0.2c5.4-1.1,6.1-6.8,6.1-6.9l0.1-1.1l-1.1,0.3C26.4,11.7,27.2,16.7,27.2,16.7z
		 M32.4,11.6c-0.4,1.3-1.5,3.2-3.7,4.1C28.8,14.6,29.6,12.8,32.4,11.6z"/>
	<path fill="#FFFFFF" d="M33.2,16.6c-6.8,2-6,7-6,7.1l0.1,0.8l0.8-0.2c5.4-1.1,6.1-6.8,6.1-6.9l0.1-1.1L33.2,16.6z M28.7,22.6
		c0.2-1.1,0.9-2.8,3.7-4.1C31.9,19.8,30.9,21.7,28.7,22.6z"/>
	<path fill="#FFFFFF" d="M33.2,23.6c-6.8,2-6,7-6,7.1l0.1,0.8l0.8-0.2c5.4-1.1,6.1-6.8,6.1-6.9l0.1-1.1L33.2,23.6z M28.7,29.5
		c0.2-1.1,0.9-2.9,3.7-4.1C31.9,26.8,30.9,28.7,28.7,29.5z"/>
	<path fill="#FFFFFF" d="M27.2,37.6l0.1,0.8l0.8-0.2c5.4-1.1,6.1-6.8,6.1-6.9l0.1-1.1l-1.1,0.3C26.4,32.6,27.2,37.5,27.2,37.6z
		 M28.7,36.5c0.2-1.1,0.9-2.9,3.7-4.1C31.9,33.7,30.9,35.6,28.7,36.5z"/>
	<path fill="#FFFFFF" d="M24,17.3l0.8,0.2l0.1-0.8c0,0,0.7-5-6-7.1l-1.1-0.3l0.1,1.1C17.9,10.5,18.6,16.2,24,17.3z M23.4,15.6
		c-2.3-0.8-3.3-2.8-3.7-4.1C22.5,12.8,23.2,14.6,23.4,15.6z"/>
	<path fill="#FFFFFF" d="M24,24.3l0.8,0.2l0.1-0.8c0,0,0.7-5-6-7.1l-1.1-0.3l0.1,1.1C17.9,17.5,18.6,23.2,24,24.3z M23.4,22.6
		c-2.3-0.8-3.3-2.8-3.7-4.1C22.5,19.7,23.2,21.5,23.4,22.6z"/>
	<path fill="#FFFFFF" d="M24,31.3l0.8,0.2l0.1-0.8c0-0.1,0.7-5-6-7.1l-1.1-0.3l0.1,1.1C17.9,24.4,18.6,30.1,24,31.3z M23.4,29.5
		c-2.3-0.8-3.3-2.8-3.7-4.1C22.5,26.7,23.2,28.5,23.4,29.5z"/>
	<path fill="#FFFFFF" d="M24,38.2l0.8,0.2l0.1-0.8c0-0.1,0.7-5-6-7.1l-1.1-0.3l0.1,1.1C17.9,31.4,18.6,37.1,24,38.2z M23.4,36.5
		c-2.3-0.8-3.3-2.8-3.7-4.1C22.5,33.6,23.2,35.4,23.4,36.5z"/>
	<path fill="#FFFFFF" d="M44.5,16.7l0.1,0.8l0.8-0.2c5.4-1.1,6.1-6.8,6.1-6.9l0.1-1.1l-1.1,0.3C43.8,11.7,44.5,16.7,44.5,16.7z
		 M49.7,11.6c-0.4,1.3-1.5,3.2-3.7,4.1C46.2,14.6,46.9,12.8,49.7,11.6z"/>
	<path fill="#FFFFFF" d="M44.5,23.7l0.1,0.8l0.8-0.2c5.4-1.1,6.1-6.8,6.1-6.9l0.1-1.1l-1.1,0.3C43.8,18.7,44.5,23.6,44.5,23.7z
		 M46.1,22.6c0.2-1.1,0.9-2.8,3.7-4.1C49.3,19.8,48.3,21.7,46.1,22.6z"/>
	<path fill="#FFFFFF" d="M44.5,30.6l0.1,0.8l0.8-0.2c5.4-1.1,6.1-6.8,6.1-6.9l0.1-1.1l-1.1,0.3C43.8,25.6,44.5,30.6,44.5,30.6z
		 M46,29.5c0.2-1.1,0.9-2.9,3.7-4.1C49.3,26.8,48.3,28.7,46,29.5z"/>
	<path fill="#FFFFFF" d="M44.5,37.6l0.1,0.8l0.8-0.2c5.4-1.1,6.1-6.8,6.1-6.9l0.1-1.1l-1.1,0.3C43.8,32.6,44.5,37.5,44.5,37.6z
		 M46,36.5c0.2-1.1,0.9-2.9,3.7-4.1C49.3,33.7,48.3,35.6,46,36.5z"/>
	<path fill="#FFFFFF" d="M41.4,17.3l0.8,0.2l0.1-0.8c0,0,0.7-5-6-7.1l-1.1-0.3l0.1,1.1C35.3,10.5,36,16.2,41.4,17.3z M40.7,15.6
		c-2.3-0.8-3.3-2.8-3.7-4.1C39.9,12.8,40.6,14.6,40.7,15.6z"/>
	<path fill="#FFFFFF" d="M41.4,24.3l0.8,0.2l0.1-0.8c0,0,0.7-5-6-7.1l-1.1-0.3l0.1,1.1C35.3,17.5,36,23.2,41.4,24.3z M40.7,22.6
		c-2.3-0.8-3.3-2.8-3.7-4.1C39.9,19.7,40.6,21.5,40.7,22.6z"/>
	<path fill="#FFFFFF" d="M41.4,31.3l0.8,0.2l0.1-0.8c0-0.1,0.7-5-6-7.1l-1.1-0.3l0.1,1.1C35.3,24.4,36,30.1,41.4,31.3z M40.7,29.5
		c-2.3-0.8-3.3-2.8-3.7-4.1C39.9,26.7,40.6,28.5,40.7,29.5z"/>
	<path fill="#FFFFFF" d="M41.4,38.2l0.8,0.2l0.1-0.8c0-0.1,0.7-5-6-7.1l-1.1-0.3l0.1,1.1C35.3,31.4,36,37.1,41.4,38.2z M40.7,36.5
		c-2.3-0.8-3.3-2.8-3.7-4.1C39.9,33.6,40.6,35.4,40.7,36.5z"/>
	<rect x="0" y="45.2" fill="#FFFFFF" width="51.5" height="1.5"/>
	<rect x="1.8" y="48" fill="#FFFFFF" width="48.1" height="1.5"/>
</g>
</svg>
