<?xml version="1.0" encoding="utf-8"?>
<!-- Generator: Adobe Illustrator 18.0.0, SVG Export Plug-In . SVG Version: 6.00 Build 0)  -->
<!DOCTYPE svg PUBLIC "-//W3C//DTD SVG 1.1//EN" "http://www.w3.org/Graphics/SVG/1.1/DTD/svg11.dtd">
<svg version="1.1" id="Layer_1" xmlns="http://www.w3.org/2000/svg" xmlns:xlink="http://www.w3.org/1999/xlink" x="0px" y="0px"
	 viewBox="0 0 40.1 28" enable-background="new 0 0 40.1 28" xml:space="preserve">
<linearGradient id="SVGID_1_" gradientUnits="userSpaceOnUse" x1="10.2391" y1="0.7019" x2="43.576" y2="27.9535">
	<stop  offset="0" style="stop-color:#8DC63F"/>
	<stop  offset="1" style="stop-color:#2BB673"/>
</linearGradient>
<path fill="url(#SVGID_1_)" d="M32.6,5.4h-12v2.3h12L32.6,5.4L32.6,5.4z M32.6,9.2h-12v2.3h12L32.6,9.2L32.6,9.2z M23.4,15.1h6.4
	v-2.3h-6.4L23.4,15.1L23.4,15.1z M2.4,7.7h8.2V5.4H2.4V7.7z M0,13.6h10.6v-2.3H0C0,11.2,0,13.6,0,13.6z M2.4,19.5h8.2v-2.3H2.4V19.5
	z M13.2,0v24.8h3.2c0.5,1.9,2.2,3.2,4.2,3.2s3.7-1.4,4.2-3.2h3.8c0.5,1.9,2.2,3.2,4.2,3.2s3.7-1.4,4.2-3.2h3.2V0H13.2z M20.5,25.7
	c-1.1,0-2.1-0.9-2.1-2.1s0.9-2.1,2.1-2.1c1.1,0,2.1,0.9,2.1,2.1S21.7,25.7,20.5,25.7z M32.7,25.7c-1.1,0-2.1-0.9-2.1-2.1
	s0.9-2.1,2.1-2.1s2.1,0.9,2.1,2.1S33.9,25.7,32.7,25.7z M37.8,22.5H37c-0.5-1.9-2.2-3.2-4.2-3.2s-3.7,1.4-4.2,3.2h-3.8
	c-0.5-1.9-2.2-3.2-4.2-3.2s-3.7,1.4-4.2,3.2h-0.8V2.3h22.3L37.8,22.5L37.8,22.5z M19.7,22.8c-0.2,0.2-0.3,0.5-0.3,0.8
	c0,0.3,0.1,0.6,0.3,0.8c0.2,0.2,0.5,0.3,0.8,0.3c0.3,0,0.6-0.1,0.8-0.3c0.2-0.2,0.3-0.5,0.3-0.8c0-0.3-0.1-0.6-0.3-0.8
	C20.9,22.4,20.1,22.4,19.7,22.8z M31.9,22.8c-0.2,0.2-0.3,0.5-0.3,0.8c0,0.3,0.1,0.6,0.3,0.8c0.2,0.2,0.5,0.3,0.8,0.3
	c0.3,0,0.6-0.1,0.8-0.3c0.2-0.2,0.3-0.5,0.3-0.8c0-0.3-0.1-0.6-0.3-0.8C33.1,22.4,32.3,22.4,31.9,22.8z"/>
</svg>
