<?xml version="1.0" encoding="utf-8"?>
<!-- Generator: Adobe Illustrator 18.0.0, SVG Export Plug-In . SVG Version: 6.00 Build 0)  -->
<!DOCTYPE svg PUBLIC "-//W3C//DTD SVG 1.1//EN" "http://www.w3.org/Graphics/SVG/1.1/DTD/svg11.dtd">
<svg version="1.1" id="Layer_1" xmlns="http://www.w3.org/2000/svg" xmlns:xlink="http://www.w3.org/1999/xlink" x="0px" y="0px"
	 viewBox="0 0 35.7 33.9" enable-background="new 0 0 35.7 33.9" xml:space="preserve">
<g>
	<linearGradient id="SVGID_1_" gradientUnits="userSpaceOnUse" x1="3.9656" y1="10.8129" x2="25.2743" y2="34.9627">
		<stop  offset="0" style="stop-color:#8DC63F"/>
		<stop  offset="1" style="stop-color:#2BB673"/>
	</linearGradient>
	<path fill="url(#SVGID_1_)" d="M20.9,31.1c-1.2,0.4-2.6,0.6-4,0.6C8.8,31.7,2.2,25.1,2.2,17c0-1.9,0.4-3.7,1.1-5.5
		c0.1-0.2,0.2-0.5,0.3-0.7c0.5-1.1,1.2-2,1.9-2.9l3.4,3.4c0.2,0.2,0.5,0.3,0.8,0.3c0.1,0,0.3,0,0.4-0.1c0.4-0.2,0.7-0.6,0.7-1V1.9
		c0-0.6-0.5-1.1-1.1-1.1H1.1c-0.4,0-0.9,0.3-1,0.7C-0.1,1.9,0,2.4,0.3,2.7l3.6,3.6C3,7.3,2.2,8.5,1.6,9.8c-0.1,0.3-0.3,0.7-0.4,0.9
		C0.4,12.7,0,14.8,0,17c0,9.3,7.6,16.9,16.9,16.9c1.6,0,3.2-0.2,4.6-0.6c0.6-0.2,0.9-0.8,0.8-1.4C22.1,31.3,21.5,30.9,20.9,31.1z"/>
	<linearGradient id="SVGID_2_" gradientUnits="userSpaceOnUse" x1="13.5445" y1="2.3609" x2="34.8532" y2="26.5108">
		<stop  offset="0" style="stop-color:#8DC63F"/>
		<stop  offset="1" style="stop-color:#2BB673"/>
	</linearGradient>
	<path fill="url(#SVGID_2_)" d="M31.7,25.2c1.1-1.9,1.8-4,2.1-6.2c0.1-0.7,0.1-1.4,0.1-2.1c0-9.3-7.6-17-17-17c-0.7,0-1.4,0-2.1,0.1
		c-0.6,0.1-1,0.6-0.9,1.3c0.1,0.6,0.6,1,1.3,0.9c0.6-0.1,1.2-0.1,1.8-0.1c8.1,0,14.7,6.6,14.7,14.7c0,0.6,0,1.2-0.1,1.8
		c-0.2,1.7-0.7,3.3-1.5,4.8l-3.2-3.2c-0.3-0.3-0.8-0.4-1.2-0.2c-0.4,0.2-0.7,0.6-0.7,1v8.5c0,0.6,0.5,1.1,1.1,1.1h8.5c0,0,0,0,0,0
		c0.6,0,1.1-0.5,1.1-1.1c0-0.4-0.2-0.8-0.5-0.9L31.7,25.2z"/>
</g>
</svg>
