<?xml version="1.0" encoding="utf-8"?>
<!-- Generator: Adobe Illustrator 18.0.0, SVG Export Plug-In . SVG Version: 6.00 Build 0)  -->
<!DOCTYPE svg PUBLIC "-//W3C//DTD SVG 1.1//EN" "http://www.w3.org/Graphics/SVG/1.1/DTD/svg11.dtd">
<svg version="1.1" id="Layer_1" xmlns="http://www.w3.org/2000/svg" xmlns:xlink="http://www.w3.org/1999/xlink" x="0px" y="0px"
	 viewBox="0 0 28.3 36.7" enable-background="new 0 0 28.3 36.7" xml:space="preserve">
<g>
	<linearGradient id="SVGID_1_" gradientUnits="userSpaceOnUse" x1="7.075" y1="5.09" x2="25.136" y2="30.3319">
		<stop  offset="0" style="stop-color:#8DC63F"/>
		<stop  offset="1" style="stop-color:#2BB673"/>
	</linearGradient>
	<path fill="url(#SVGID_1_)" d="M27.8,5.1l-13.3-5C14.4,0,14.3,0,14.2,0c-0.1,0-0.2,0-0.3,0.1l-13.3,5C0.2,5.2,0,5.5,0,5.8v15.8
		c0,3.3,2,6,4.6,8.4s6,4.4,9.1,6.5c0.3,0.2,0.7,0.2,0.9,0c3.1-2.1,6.5-4.2,9.1-6.5s4.6-5.1,4.6-8.4V5.8C28.3,5.5,28.1,5.2,27.8,5.1z
		 M26.7,21.7c0,2.6-1.6,4.9-4.1,7.1c-2.3,2.1-5.5,4.1-8.5,6c-3-2-6.1-3.9-8.5-6c-2.5-2.2-4.1-4.5-4.1-7.1V6.4l12.5-4.7l12.5,4.7
		V21.7z"/>
	<linearGradient id="SVGID_2_" gradientUnits="userSpaceOnUse" x1="5.7726" y1="6.0219" x2="23.8336" y2="31.2638">
		<stop  offset="0" style="stop-color:#8DC63F"/>
		<stop  offset="1" style="stop-color:#2BB673"/>
	</linearGradient>
	<path fill="url(#SVGID_2_)" d="M12.4,12.6c-0.1-0.2-0.2-0.4-0.3-0.5s-0.2-0.2-0.3-0.3c-0.1-0.1-0.2-0.1-0.4-0.2
		c-0.1,0-0.3-0.1-0.5-0.1h-0.7c-0.2,0-0.3,0.1-0.5,0.2c-0.1,0.1-0.2,0.3-0.2,0.6v3.5H8.4c-0.1,0-0.2,0-0.2,0.1
		c-0.1,0.1-0.1,0.3-0.1,0.5c0,0.2,0,0.4,0.1,0.5s0.1,0.1,0.2,0.1h1.1v1.6H8.4c-0.1,0-0.2,0-0.2,0.1c-0.1,0.1-0.1,0.3-0.1,0.5
		c0,0.2,0,0.4,0.1,0.5s0.1,0.1,0.2,0.1h1.1v4.6c0,0,0,0.1,0,0.1c0,0,0.1,0.1,0.1,0.1c0.1,0,0.1,0,0.2,0.1c0.1,0,0.2,0,0.4,0
		c0.2,0,0.3,0,0.4,0s0.2,0,0.3-0.1c0.1,0,0.1-0.1,0.1-0.1c0,0,0-0.1,0-0.1v-4.6h3.5l2,3.6c0.1,0.3,0.3,0.5,0.4,0.7
		c0.1,0.2,0.2,0.3,0.4,0.4c0.1,0.1,0.2,0.2,0.4,0.2c0.1,0,0.3,0.1,0.5,0.1h0.5c0.1,0,0.2,0,0.3,0s0.2-0.1,0.2-0.1
		c0.1-0.1,0.1-0.1,0.2-0.2c0-0.1,0.1-0.2,0.1-0.3v-4.1h1.1c0.1,0,0.2,0,0.2-0.1c0.1-0.1,0.1-0.3,0.1-0.5c0-0.2,0-0.4-0.1-0.5
		c-0.1-0.1-0.1-0.1-0.2-0.1h-1.1v-1.6h1.1c0.1,0,0.2,0,0.2-0.1c0.1-0.1,0.1-0.3,0.1-0.5c0-0.2,0-0.4-0.1-0.5
		c-0.1-0.1-0.1-0.1-0.2-0.1h-1.1v-4c0,0,0-0.1,0-0.1c0,0-0.1-0.1-0.1-0.1c-0.1,0-0.1-0.1-0.3-0.1c-0.1,0-0.2,0-0.4,0
		c-0.2,0-0.3,0-0.4,0c-0.1,0-0.2,0-0.3,0.1c-0.1,0-0.1,0.1-0.1,0.1c0,0,0,0.1,0,0.1v4h-3.6L12.4,12.6z M11.1,15c0-0.5,0-1.1,0-1.5h0
		c0.2,0.4,0.4,0.8,0.7,1.3c0.2,0.4,0.4,0.8,0.6,1.1h-1.3C11.1,15.5,11.1,15.2,11.1,15z M11.1,18.7v-1.6h2l0.9,1.6H11.1z M17.8,22.5
		L17.8,22.5c-0.2-0.3-0.3-0.7-0.5-1s-0.4-0.7-0.6-1c-0.1-0.2-0.2-0.4-0.3-0.5h1.4c0,0.3,0,0.5,0,0.8C17.8,21.3,17.8,21.9,17.8,22.5z
		 M17.8,17.1v1.6h-2c0-0.1-0.1-0.2-0.1-0.3l-0.8-1.4H17.8z"/>
</g>
</svg>
