<?xml version="1.0" encoding="utf-8"?>
<!-- Generator: Adobe Illustrator 18.0.0, SVG Export Plug-In . SVG Version: 6.00 Build 0)  -->
<!DOCTYPE svg PUBLIC "-//W3C//DTD SVG 1.1//EN" "http://www.w3.org/Graphics/SVG/1.1/DTD/svg11.dtd">
<svg version="1.1" id="Layer_1" xmlns="http://www.w3.org/2000/svg" xmlns:xlink="http://www.w3.org/1999/xlink" x="0px" y="0px"
	 viewBox="0 0 37.8 36.4" enable-background="new 0 0 37.8 36.4" xml:space="preserve">
<g>
	<g>
		<linearGradient id="SVGID_1_" gradientUnits="userSpaceOnUse" x1="4.1878" y1="4.3405" x2="35.753" y2="36.4348">
			<stop  offset="0" style="stop-color:#8DC63F"/>
			<stop  offset="1" style="stop-color:#2BB673"/>
		</linearGradient>
		<path fill="url(#SVGID_1_)" d="M36.9,34.6h-2.7V5.5h2.7c0.4,0,0.7-0.2,0.8-0.6c0.1-0.3,0.1-0.7-0.2-1l-3.6-3.6
			c-0.1-0.1-0.2-0.2-0.3-0.2c-0.2-0.1-0.5-0.1-0.7,0c-0.1,0-0.2,0.1-0.3,0.2L29,3.9c-0.3,0.3-0.3,0.7-0.2,1c0.1,0.3,0.5,0.6,0.8,0.6
			h2.7v29.1h-7.3V13.7c0-0.5-0.4-0.9-0.9-0.9c-0.5,0-0.9,0.4-0.9,0.9v20.9H16V19.1c0-0.5-0.4-0.9-0.9-0.9s-0.9,0.4-0.9,0.9v15.5H6.9
			v-10c0-0.5-0.4-0.9-0.9-0.9s-0.9,0.4-0.9,0.9v10H2.3c-0.5,0-0.9,0.4-0.9,0.9c0,0.5,0.4,0.9,0.9,0.9h34.6c0.5,0,0.9-0.4,0.9-0.9
			C37.8,35,37.4,34.6,36.9,34.6z"/>
		<g>
			<linearGradient id="SVGID_2_" gradientUnits="userSpaceOnUse" x1="3.9603" y1="4.5642" x2="35.5256" y2="36.6585">
				<stop  offset="0" style="stop-color:#8DC63F"/>
				<stop  offset="1" style="stop-color:#2BB673"/>
			</linearGradient>
			<path fill="url(#SVGID_2_)" d="M6.6,8.8H3.1v4.6c0,0,0,0.1,0,0.1c0,0-0.1,0.1-0.1,0.1c-0.1,0-0.1,0-0.3,0.1c-0.1,0-0.2,0-0.4,0
				s-0.3,0-0.4,0c-0.1,0-0.2,0-0.2-0.1c-0.1,0-0.1-0.1-0.1-0.1c0,0,0-0.1,0-0.1V8.8H0.3c-0.1,0-0.2,0-0.2-0.1C0,8.6,0,8.4,0,8.2
				C0,8,0,7.8,0.1,7.7c0.1-0.1,0.1-0.1,0.2-0.1h1.1V5.9H0.3c-0.1,0-0.2,0-0.2-0.1C0,5.7,0,5.5,0,5.3c0-0.2,0-0.4,0.1-0.5
				c0.1-0.1,0.1-0.1,0.2-0.1h1.1V1.2c0-0.3,0.1-0.5,0.2-0.6C1.8,0.5,2,0.4,2.1,0.4h0.7c0.2,0,0.4,0,0.5,0.1c0.1,0,0.3,0.1,0.4,0.2
				C3.8,0.7,3.9,0.8,4,1c0.1,0.1,0.2,0.3,0.3,0.5l1.8,3.2h3.6v-4c0,0,0-0.1,0-0.1c0,0,0.1-0.1,0.1-0.1c0.1,0,0.1-0.1,0.3-0.1
				c0.1,0,0.2,0,0.4,0c0.1,0,0.3,0,0.4,0c0.1,0,0.2,0,0.3,0.1c0.1,0,0.1,0.1,0.1,0.1c0,0,0,0.1,0,0.1v4h1.1c0.1,0,0.2,0,0.2,0.1
				c0.1,0.1,0.1,0.3,0.1,0.5c0,0.2,0,0.4-0.1,0.5c-0.1,0.1-0.1,0.1-0.2,0.1h-1.1v1.6h1.1c0.1,0,0.2,0,0.2,0.1
				c0.1,0.1,0.1,0.3,0.1,0.5c0,0.2,0,0.4-0.1,0.5c-0.1,0.1-0.1,0.1-0.2,0.1h-1.1v4.1c0,0.1,0,0.3-0.1,0.3c0,0.1-0.1,0.2-0.2,0.2
				c-0.1,0.1-0.2,0.1-0.2,0.1c-0.1,0-0.2,0-0.3,0h-0.5c-0.2,0-0.3,0-0.5-0.1c-0.1,0-0.3-0.1-0.4-0.2C9.2,13.3,9.1,13.2,9,13
				c-0.1-0.2-0.2-0.4-0.4-0.7L6.6,8.8z M3.7,3.6C3.5,3.1,3.3,2.7,3.1,2.3h0c0,0.5,0,1,0,1.5c0,0.3,0,0.6,0,0.9h1.3
				C4.2,4.4,4,4,3.7,3.6z M3.1,7.6h2.9L5.1,5.9h-2V7.6z M7.5,7.3c0,0.1,0.1,0.2,0.1,0.3h2V5.9H6.8L7.5,7.3z M8.7,9.3
				c0.2,0.3,0.4,0.7,0.6,1c0.2,0.3,0.4,0.7,0.5,1h0c0-0.5,0-1.1,0-1.7c0-0.3,0-0.6,0-0.8H8.4C8.5,9,8.6,9.1,8.7,9.3z"/>
		</g>
	</g>
</g>
</svg>
