<?xml version="1.0" encoding="utf-8"?>
<!-- Generator: Adobe Illustrator 18.0.0, SVG Export Plug-In . SVG Version: 6.00 Build 0)  -->
<!DOCTYPE svg PUBLIC "-//W3C//DTD SVG 1.1//EN" "http://www.w3.org/Graphics/SVG/1.1/DTD/svg11.dtd">
<svg version="1.1" id="Layer_1" xmlns="http://www.w3.org/2000/svg" xmlns:xlink="http://www.w3.org/1999/xlink" x="0px" y="0px"
	 viewBox="0 0 40.3 29.8" enable-background="new 0 0 40.3 29.8" xml:space="preserve">
<g>
	<linearGradient id="SVGID_1_" gradientUnits="userSpaceOnUse" x1="8.5918" y1="5.9597" x2="36.5295" y2="25.383">
		<stop  offset="0" style="stop-color:#8DC63F"/>
		<stop  offset="1" style="stop-color:#2BB673"/>
	</linearGradient>
	<path fill="url(#SVGID_1_)" d="M30.7,24c2.1,0,3.8-1.7,3.8-3.8V3.8c0-2.1-1.7-3.8-3.8-3.8H3.8C1.7,0,0,1.7,0,3.8v16.3
		C0,22.3,1.7,24,3.8,24H30.7z M1.9,20.2V3.8c0-1.1,0.9-1.9,1.9-1.9h26.9c1.1,0,1.9,0.9,1.9,1.9v16.3c0,1.1-0.9,1.9-1.9,1.9H3.8
		C2.8,22.1,1.9,21.2,1.9,20.2z"/>
	<linearGradient id="SVGID_2_" gradientUnits="userSpaceOnUse" x1="8.5253" y1="6.0553" x2="36.463" y2="25.4786">
		<stop  offset="0" style="stop-color:#8DC63F"/>
		<stop  offset="1" style="stop-color:#2BB673"/>
	</linearGradient>
	<rect x="4.3" y="3.8" fill="url(#SVGID_2_)" width="4.8" height="1.9"/>
	<linearGradient id="SVGID_3_" gradientUnits="userSpaceOnUse" x1="8.6582" y1="5.8642" x2="36.5959" y2="25.2875">
		<stop  offset="0" style="stop-color:#8DC63F"/>
		<stop  offset="1" style="stop-color:#2BB673"/>
	</linearGradient>
	<rect x="25.4" y="18.2" fill="url(#SVGID_3_)" width="4.8" height="1.9"/>
	<linearGradient id="SVGID_4_" gradientUnits="userSpaceOnUse" x1="8.5918" y1="5.9597" x2="36.5295" y2="25.383">
		<stop  offset="0" style="stop-color:#8DC63F"/>
		<stop  offset="1" style="stop-color:#2BB673"/>
	</linearGradient>
	<path fill="url(#SVGID_4_)" d="M17.3,18.2c3.5,0,6.2-2.8,6.2-6.2s-2.8-6.2-6.2-6.2C13.8,5.8,11,8.5,11,12S13.8,18.2,17.3,18.2z
		 M17.3,7.7c2.4,0,4.3,1.9,4.3,4.3s-1.9,4.3-4.3,4.3S13,14.4,13,12S14.9,7.7,17.3,7.7z"/>
	<linearGradient id="SVGID_5_" gradientUnits="userSpaceOnUse" x1="7.2805" y1="7.8458" x2="35.2182" y2="27.2691">
		<stop  offset="0" style="stop-color:#8DC63F"/>
		<stop  offset="1" style="stop-color:#2BB673"/>
	</linearGradient>
	<path fill="url(#SVGID_5_)" d="M37.4,23V7.7c0-0.5-0.4-1-1-1c-0.5,0-1,0.4-1,1V23c0,1.1-0.9,1.9-1.9,1.9H3.8c-0.5,0-1,0.4-1,1
		s0.4,1,1,1h29.8C35.7,26.9,37.4,25.2,37.4,23z"/>
	<linearGradient id="SVGID_6_" gradientUnits="userSpaceOnUse" x1="6.8691" y1="8.4375" x2="34.8068" y2="27.8609">
		<stop  offset="0" style="stop-color:#8DC63F"/>
		<stop  offset="1" style="stop-color:#2BB673"/>
	</linearGradient>
	<path fill="url(#SVGID_6_)" d="M39.4,9.6c-0.5,0-1,0.4-1,1v15.4c0,1.1-0.9,1.9-1.9,1.9H6.7c-0.5,0-1,0.4-1,1s0.4,1,1,1h29.8
		c2.1,0,3.8-1.7,3.8-3.8V10.6C40.3,10,39.9,9.6,39.4,9.6z"/>
</g>
</svg>
